<?xml version="1.0" encoding="utf-8"?>
<!-- Generator: Adobe Illustrator 25.3.1, SVG Export Plug-In . SVG Version: 6.00 Build 0)  -->
<svg xmlns="http://www.w3.org/2000/svg" width="643" height="656" viewBox="0 0 643 656">
  <circle cx="321.2" cy="334.7" r="320.7" />
  <path d="M334.6,14.8c-9.5-0.5-19-0.5-28.6,0" />
  <path d="M346.9,15c-9.5-0.3-45.6-0.7-55.1-0.1" />
  <path d="M635.2,265c-2.5-9.2-13.1-43.7-16.6-52.5" />
  <path d="M493.5,605.9c7.8-5.5,36.6-27.2,43.8-33.5" />
  <circle cx="320.3" cy="14.7" r="14.2" />
  <path d="M24.6,212.9c-3.2,9-14.2,43.3-16.5,52.6" />
  <circle cx="15.3" cy="239.1" r="14.2" />
  <path d="M505.5,598.7c7.2-6.2,14.1-12.8,20.6-19.8" />
  <path d="M104.6,570.8c7.3,6.1,35.6,28.5,43.5,33.8" />
  <circle cx="515.8" cy="588.8" r="14.2" />
  <circle cx="125.3" cy="588.8" r="14.2" />
  <path d="M631,252.8c-2.3-9.2-5-18.4-8.2-27.3" />
  <circle cx="626.8" cy="239.1" r="14.2" />
</svg>
