<svg width="33" height="33" viewBox="0 0 33 33" fill="none" xmlns="http://www.w3.org/2000/svg">
<path d="M33 19.2369V13.7631L29.6575 13.0946C29.3414 11.8682 28.8567 10.6992 28.2109 9.60559L30.1025 6.76804L26.232 2.89753L23.3944 4.78927C22.3008 4.14338 21.1318 3.6586 19.9053 3.34251L19.2369 0H13.7631L13.0947 3.34245C11.8682 3.6586 10.6992 4.14331 9.60565 4.78921L6.76811 2.89746L2.89759 6.76798L4.78927 9.60552C4.14338 10.6991 3.65866 11.8682 3.34258 13.0945L0 13.7631V19.2369L3.34251 19.9053C3.6586 21.1318 4.14331 22.3008 4.78921 23.3944L2.89753 26.232L6.76804 30.1025L9.60559 28.2108C10.6992 28.8566 11.8682 29.3414 13.0946 29.6574L13.7631 33H19.2369L19.9053 29.6575C21.1318 29.3414 22.3008 28.8567 23.3944 28.2109L26.232 30.1025L30.1025 26.232L28.2109 23.3945C28.8567 22.3009 29.3415 21.1318 29.6575 19.9054L33 19.2369ZM16.5 25.2353C11.6756 25.2353 7.76471 21.3244 7.76471 16.5C7.76471 11.6756 11.6756 7.76471 16.5 7.76471C21.3244 7.76471 25.2353 11.6756 25.2353 16.5C25.2353 21.3244 21.3244 25.2353 16.5 25.2353Z" fill="#333333"/>
<path d="M16.5 11L13 14.1149C14.8588 15.2943 18.139 15.2958 20 14.1149L16.5 11Z" fill="#FFBF1C"/>
<path d="M13 20.8524C13.875 21.4441 14.8959 21.8469 16 22V16.0083C14.8995 15.8774 13.8683 15.5322 13 15V20.8524Z" fill="#FFBF1C"/>
<path d="M17 22C18.1041 21.8469 19.125 21.4441 20 20.8524V15C19.1317 15.5321 18.1005 15.8773 17 16.0083V22Z" fill="#FFBF1C"/>
</svg>
