<svg width="31" height="36" viewBox="0 0 31 36" fill="none" xmlns="http://www.w3.org/2000/svg">
<path d="M24.8301 10.8301V33.3791V33.8301H29.8301V10.8301H24.8301Z" fill="#333333"/>
<path d="M30.1152 32.949L25.1159 32.9491L22.3247 32.949V20.8061H14.6046V18.0393C14.6046 18.0393 14.6046 16.7871 13.0393 16.7871C11.4741 16.7871 11.4741 18.0393 11.4741 18.0393V20.8061H8.96959V18.0393C8.96959 18.0393 8.96959 16.7871 7.4043 16.7871C5.83901 16.7871 5.83901 18.0393 5.83901 18.0393V20.8061H2.04412V32.949H0.830078V35.7822H30.9353V32.949H30.1152ZM8.52067 28.9018H5.68749V26.0687H8.52067V28.9018ZM13.3775 28.9018H10.5443V26.0687H13.3775V28.9018ZM18.2349 28.9018H15.4017V26.0687H18.2349V28.9018Z" fill="#333333"/>
<path d="M27.3299 6.83008V9.33008C22.3297 4.32998 18.3299 9.33012 15.83 9.83008C7.32997 11.3301 7.33008 4.33015 9.33008 2.33008C12.8301 -1.17004 19.3299 0.830089 20.3299 4.33012C22.3299 1.33009 26.8297 3.83006 27.3299 6.83008Z" fill="#FF4D4D"/>
</svg>
