<svg width="31" height="31" viewBox="0 0 31 31" fill="none" xmlns="http://www.w3.org/2000/svg">
<g clip-path="url(#clip0)">
<path d="M30.4251 10.6826L16.3626 0.995078C16.0426 0.775078 15.6201 0.775078 15.2988 0.995078L1.23633 10.6826C0.981328 10.8576 0.830078 11.1463 0.830078 11.4551V29.5801C0.830078 30.2701 1.39008 30.8301 2.08008 30.8301H4.58008V15.8301C4.58008 15.1401 5.14008 14.5801 5.83008 14.5801H25.8301C26.5201 14.5801 27.0801 15.1401 27.0801 15.8301V30.8301H29.5801C30.2701 30.8301 30.8301 30.2701 30.8301 29.5801V11.4551C30.8301 11.1463 30.6788 10.8576 30.4251 10.6826Z" fill="#333333"/>
<path d="M12.3926 24.5801V26.5176C12.3926 27.0351 11.9726 27.4551 11.4551 27.4551C10.9376 27.4551 10.5176 27.0351 10.5176 26.5176V24.5801H8.33008C7.98508 24.5801 7.70508 24.8601 7.70508 25.2051V30.2051C7.70508 30.5501 7.98508 30.8301 8.33008 30.8301H14.5801C14.9251 30.8301 15.2051 30.5501 15.2051 30.2051V25.2051C15.2051 24.8601 14.9251 24.5801 14.5801 24.5801H12.3926Z" fill="#FF4D4D"/>
<path d="M21.1426 24.5801V26.5176C21.1426 27.0351 20.7226 27.4551 20.2051 27.4551C19.6876 27.4551 19.2676 27.0351 19.2676 26.5176V24.5801H17.0801C16.7351 24.5801 16.4551 24.8601 16.4551 25.2051V30.2051C16.4551 30.5501 16.7351 30.8301 17.0801 30.8301H23.3301C23.6751 30.8301 23.9551 30.5501 23.9551 30.2051V25.2051C23.9551 24.8601 23.6751 24.5801 23.3301 24.5801H21.1426Z" fill="#333333"/>
<path d="M16.7676 17.0801V19.0176C16.7676 19.5351 16.3476 19.9551 15.8301 19.9551C15.3126 19.9551 14.8926 19.5351 14.8926 19.0176V17.0801H12.7051C12.3601 17.0801 12.0801 17.3601 12.0801 17.7051V22.7051C12.0801 23.0501 12.3601 23.3301 12.7051 23.3301H18.9551C19.3001 23.3301 19.5801 23.0501 19.5801 22.7051V17.7051C19.5801 17.3601 19.3001 17.0801 18.9551 17.0801H16.7676Z" fill="#FF4D4D"/>
</g>
<defs>
<clipPath id="clip0">
<rect width="30" height="30" fill="white" transform="translate(0.830078 0.830078)"/>
</clipPath>
</defs>
</svg>
