<svg width="419" height="619" viewBox="0 0 419 619" fill="none" xmlns="http://www.w3.org/2000/svg">
<path d="M141 560.033L380.5 568.533L388.5 539.033C388.5 539.033 373.5 540.033 293.5 539.033C213.5 538.033 141 560.033 141 560.033Z" fill="#DDDDDD"/>
<path d="M76.3657 350.588H381.615L381.347 543.612C381.347 543.612 222.712 552.662 152.037 486.929C81.3628 421.197 76.3657 350.588 76.3657 350.588Z" fill="#9A7E72"/>
<path d="M78.2764 348.942H379.34V417.685C379.34 417.685 320.633 419.613 237.84 406.646C155.048 393.678 78.2764 351.451 78.2764 351.451V348.942Z" fill="#8C7165"/>
<path d="M377.333 345.429H390.209V534.832L377.333 579.256V345.429Z" fill="#81665A"/>
<path d="M109.79 313.699H418.971L419 350.588H11.2632L109.79 313.699Z" fill="#E7C593"/>
<path d="M233.866 347.156C232.702 346.942 232.12 346.728 231.538 345.657C230.957 344.586 231.248 343.729 231.248 343.729L253.064 313.747L383.964 313.747C384.837 315.032 406.363 344.372 406.363 344.372C406.363 344.372 406.19 345.784 405.49 346.299C404.791 346.814 403.745 346.728 402.29 346.728C394.146 346.728 235.029 347.37 233.866 347.156Z" fill="#3A3A3A"/>
<path d="M247.921 321.127C247.921 321.127 231.367 343.181 231.367 344.046C231.367 344.911 231.948 345.344 232.528 345.776C233.109 346.208 404.746 345.56 404.746 345.56L406.488 344.695L397.195 332.154L384.126 313.775L253.148 313.775L247.921 321.127Z" fill="#B6CCD7"/>
<path d="M300.135 338.397H330.653L332.414 342.798H298.081L300.135 338.397Z" fill="#242960"/>
<path d="M253.001 244.61C253.001 247.013 253.13 297.423 253.13 297.423L253.13 314.204L384.064 313.925L383.193 249.357V244.626C383.193 241.297 380.579 241.564 378.256 241.564L256.607 241.564C254.351 241.564 253.001 242.208 253.001 244.61Z" fill="#3A3A3A"/>
<path d="M256.57 246.017H379.126L380.288 310.586H256.57V246.017Z" fill="#808C92"/>
<path d="M247.421 333.995H253.183L251.903 336.636H246.141L247.421 333.995Z" fill="#242960"/>
<path d="M250.782 330.474H255.824L254.703 332.234H249.661L250.782 330.474Z" fill="#242960"/>
<path d="M252.703 326.072H258.465L257.185 328.713H251.422L252.703 326.072Z" fill="#242960"/>
<path d="M255.183 322.55H260.225L259.105 324.311H254.063L255.183 322.55Z" fill="#242960"/>
<path d="M256.945 319.029H261.987L260.866 320.79H255.824L256.945 319.029Z" fill="#242960"/>
<path d="M293.919 330.474H298.961L297.841 332.234H292.799L293.919 330.474Z" fill="#242960"/>
<path d="M295.68 326.072H300.721L299.601 328.713H294.559L295.68 326.072Z" fill="#242960"/>
<path d="M298.32 322.55H303.362L302.242 324.311H297.2L298.32 322.55Z" fill="#242960"/>
<path d="M300.081 319.029H305.123L304.003 320.79H298.961L300.081 319.029Z" fill="#242960"/>
<path d="M390.116 333.995H384.354L385.635 336.636H391.397L390.116 333.995Z" fill="#242960"/>
<path d="M387.635 330.474H382.593L383.713 332.234H388.755L387.635 330.474Z" fill="#242960"/>
<path d="M275.432 333.995H280.474L279.354 336.636H274.312L275.432 333.995Z" fill="#242960"/>
<path d="M278.233 330.474H283.995L282.715 332.234H276.953L278.233 330.474Z" fill="#242960"/>
<path d="M280.714 326.072H285.756L284.635 328.713H279.593L280.714 326.072Z" fill="#242960"/>
<path d="M283.354 322.55H288.396L287.276 324.311H282.234L283.354 322.55Z" fill="#242960"/>
<path d="M285.116 319.029H290.158L289.037 320.79H283.995L285.116 319.029Z" fill="#242960"/>
<path d="M321.209 330.474H326.251L325.131 332.234H320.089L321.209 330.474Z" fill="#242960"/>
<path d="M323.851 326.072H328.893L327.773 328.713H322.731L323.851 326.072Z" fill="#242960"/>
<path d="M325.771 322.55H331.533L330.253 324.311H324.491L325.771 322.55Z" fill="#242960"/>
<path d="M327.532 319.029H333.294L332.014 320.79H326.251L327.532 319.029Z" fill="#242960"/>
<path d="M362.106 333.995H357.064L358.184 336.636H363.226L362.106 333.995Z" fill="#242960"/>
<path d="M359.464 330.474H354.422L355.543 332.234H360.584L359.464 330.474Z" fill="#242960"/>
<path d="M364.587 326.072H358.824L360.105 328.713H365.867L364.587 326.072Z" fill="#242960"/>
<path d="M362.105 322.55H357.063L358.184 324.311H363.226L362.105 322.55Z" fill="#242960"/>
<path d="M359.465 319.029H354.423L355.543 320.79H360.585L359.465 319.029Z" fill="#242960"/>
<path d="M348.02 322.55H342.978L344.098 324.311H349.14L348.02 322.55Z" fill="#242960"/>
<path d="M346.1 319.029H340.338L341.618 320.79H347.38L346.1 319.029Z" fill="#242960"/>
<path d="M261.507 333.995H267.269L265.988 336.636H260.226L261.507 333.995Z" fill="#242960"/>
<path d="M264.867 330.474H269.909L268.789 332.234H263.747L264.867 330.474Z" fill="#242960"/>
<path d="M266.629 326.072H271.671L270.55 328.713H265.508L266.629 326.072Z" fill="#242960"/>
<path d="M269.27 322.55H274.312L273.191 324.311H268.149L269.27 322.55Z" fill="#242960"/>
<path d="M271.031 319.029H276.073L274.952 320.79H269.91L271.031 319.029Z" fill="#242960"/>
<path d="M307.284 330.474H313.046L311.766 332.234H306.003L307.284 330.474Z" fill="#242960"/>
<path d="M309.765 326.072H314.807L313.687 328.713H308.645L309.765 326.072Z" fill="#242960"/>
<path d="M312.406 322.55H317.448L316.328 324.311H311.286L312.406 322.55Z" fill="#242960"/>
<path d="M314.168 319.029H319.21L318.089 320.79H313.047L314.168 319.029Z" fill="#242960"/>
<path d="M376.191 333.995H371.149L372.27 336.636H377.312L376.191 333.995Z" fill="#242960"/>
<path d="M373.55 330.474H368.508L369.628 332.234H374.67L373.55 330.474Z" fill="#242960"/>
<path d="M378.672 326.072H372.909L374.19 328.713H379.952L378.672 326.072Z" fill="#242960"/>
<path d="M376.191 322.55H371.149L372.269 324.311H377.311L376.191 322.55Z" fill="#242960"/>
<path d="M373.55 319.029H368.508L369.628 320.79H374.67L373.55 319.029Z" fill="#242960"/>
<path d="M290.444 333.995H338.29L339.457 336.636H289.277L290.444 333.995Z" fill="#242960"/>
<path d="M254.464 333.995H260.226L258.945 336.636H253.183L254.464 333.995Z" fill="#242960"/>
<path d="M257.825 330.474H262.867L261.747 332.234H256.705L257.825 330.474Z" fill="#242960"/>
<path d="M259.746 326.072H265.509L264.228 328.713H258.466L259.746 326.072Z" fill="#242960"/>
<path d="M262.226 322.55H267.268L266.148 324.311H261.106L262.226 322.55Z" fill="#242960"/>
<path d="M263.987 319.029H269.029L267.909 320.79H262.867L263.987 319.029Z" fill="#242960"/>
<path d="M300.241 330.474H306.003L304.723 332.234H298.96L300.241 330.474Z" fill="#242960"/>
<path d="M302.723 326.072H307.765L306.644 328.713H301.603L302.723 326.072Z" fill="#242960"/>
<path d="M305.363 322.55H310.405L309.285 324.311H304.243L305.363 322.55Z" fill="#242960"/>
<path d="M307.124 319.029H312.166L311.046 320.79H306.004L307.124 319.029Z" fill="#242960"/>
<path d="M383.234 333.995H378.192L379.312 336.636H384.354L383.234 333.995Z" fill="#242960"/>
<path d="M380.592 330.474H375.55L376.67 332.234H381.712L380.592 330.474Z" fill="#242960"/>
<path d="M384.994 326.072H379.952L381.073 328.713H386.115L384.994 326.072Z" fill="#242960"/>
<path d="M382.353 322.55H377.311L378.431 324.311H383.473L382.353 322.55Z" fill="#242960"/>
<path d="M379.713 319.029H374.671L375.791 320.79H380.833L379.713 319.029Z" fill="#242960"/>
<path d="M282.475 333.995H287.517L286.396 336.636H281.354L282.475 333.995Z" fill="#242960"/>
<path d="M285.276 330.474H291.038L289.757 332.234H283.995L285.276 330.474Z" fill="#242960"/>
<path d="M287.757 326.072H292.799L291.678 328.713H286.636L287.757 326.072Z" fill="#242960"/>
<path d="M290.397 322.55H295.439L294.319 324.311H289.277L290.397 322.55Z" fill="#242960"/>
<path d="M292.159 319.029H297.2L296.08 320.79H291.038L292.159 319.029Z" fill="#242960"/>
<path d="M328.252 330.474H333.294L332.173 332.234H327.131L328.252 330.474Z" fill="#242960"/>
<path d="M330.893 326.072H335.935L334.815 328.713H329.773L330.893 326.072Z" fill="#242960"/>
<path d="M355.063 333.995H350.021L351.142 336.636H356.184L355.063 333.995Z" fill="#242960"/>
<path d="M352.422 330.474H347.38L348.5 332.234H353.542L352.422 330.474Z" fill="#242960"/>
<path d="M357.544 326.072H351.781L353.062 328.713H358.824L357.544 326.072Z" fill="#242960"/>
<path d="M355.062 322.55H350.02L351.141 324.311H356.183L355.062 322.55Z" fill="#242960"/>
<path d="M352.422 319.029H347.38L348.501 320.79H353.542L352.422 319.029Z" fill="#242960"/>
<path d="M340.977 322.55H335.935L337.055 324.311H342.097L340.977 322.55Z" fill="#242960"/>
<path d="M348.02 333.995H342.978L344.098 336.636H349.14L348.02 333.995Z" fill="#242960"/>
<path d="M346.099 330.474H340.337L341.618 332.234H347.38L346.099 330.474Z" fill="#242960"/>
<path d="M349.728 326.072H338.577L339.75 328.713H350.901L349.728 326.072Z" fill="#242960"/>
<path d="M268.389 333.995H273.431L272.311 336.636H267.269L268.389 333.995Z" fill="#242960"/>
<path d="M271.19 330.474H276.952L275.672 332.234H269.91L271.19 330.474Z" fill="#242960"/>
<path d="M273.671 326.072H278.713L277.593 328.713H272.551L273.671 326.072Z" fill="#242960"/>
<path d="M276.312 322.55H281.354L280.233 324.311H275.191L276.312 322.55Z" fill="#242960"/>
<path d="M278.073 319.029H283.115L281.995 320.79H276.953L278.073 319.029Z" fill="#242960"/>
<path d="M314.326 330.474H320.089L318.808 332.234H313.046L314.326 330.474Z" fill="#242960"/>
<path d="M316.808 326.072H321.85L320.729 328.713H315.688L316.808 326.072Z" fill="#242960"/>
<path d="M319.448 322.55H324.49L323.37 324.311H318.328L319.448 322.55Z" fill="#242960"/>
<path d="M321.21 319.029H326.252L325.131 320.79H320.089L321.21 319.029Z" fill="#242960"/>
<path d="M369.148 333.995H364.106L365.227 336.636H370.269L369.148 333.995Z" fill="#242960"/>
<path d="M366.507 330.474H361.465L362.585 332.234H367.627L366.507 330.474Z" fill="#242960"/>
<path d="M371.629 326.072H365.866L367.147 328.713H372.909L371.629 326.072Z" fill="#242960"/>
<path d="M369.148 322.55H364.106L365.227 324.311H370.269L369.148 322.55Z" fill="#242960"/>
<path d="M366.507 319.029H361.465L362.585 320.79H367.627L366.507 319.029Z" fill="#242960"/>
<path d="M189 587.5C189 596.06 160.298 603 121 603C81.7024 603 53 596.06 53 587.5C53 578.94 81.7024 572 121 572C160.298 572 189 578.94 189 587.5Z" fill="#DDDDDD"/>
<path d="M88.087 579.961C112.04 568.941 128.55 548.848 133.3 540.767L137.58 540.746L156.36 543.717L156.864 544.937C157.748 553.509 155.34 558.86 154.637 564.065C150.758 571.663 143.72 576.821 139.292 577.571L140.329 574.052L138.255 576.667C133.433 585.794 109.638 593.961 98.7857 591.856C90.1432 590.179 87.7332 587.328 86.4574 585.491L88.087 579.961Z" fill="#15161A"/>
<path d="M132.392 553.891C132.089 553.927 128.323 551.369 127.063 550.202C117.784 562.624 98.3191 575.817 90.9607 578.969L90.1738 579.714C112.827 577.755 132.695 553.855 132.392 553.891Z" fill="#474747"/>
<path d="M103.248 607.909C120.588 588.046 127.422 562.954 128.446 553.636L132.342 551.865L150.693 546.885L151.652 547.792C155.968 555.25 155.963 561.118 157.452 566.154C157.025 574.674 152.717 582.262 148.984 584.76L148.49 581.125L147.668 584.36C147.007 594.661 128.642 611.857 117.88 614.379C109.308 616.389 105.942 614.775 104.026 613.621L103.248 607.909Z" fill="#15161A"/>
<path d="M140.014 559.114C140.014 559.114 130.875 558.702 128.597 557.972C126.884 567.106 124.601 572.244 121.176 579.665L131.451 580.236C141.726 563.11 140.014 559.114 140.014 559.114Z" fill="#5A5A5A"/>
<path d="M143.714 584.176C140.885 593.381 136.036 599.603 129.298 605.929L126.713 608.212L122.834 611.636C133.499 604.875 139.706 599.203 144.553 590.337C147.147 585.592 145.693 580.061 145.245 577.693L143.714 584.176Z" fill="#474747"/>
<path d="M100.012 100.969L88.9448 90.3123C90.1963 88.7217 95.0933 79.2453 95.0933 79.2453L95.5029 77.6059L100.012 85.3935C100.012 85.3935 101.241 89.9022 102.471 90.3121C103.701 90.722 113.128 85.8034 114.767 86.2133C116.407 86.6232 118.995 84.1287 121.326 83.754C123.713 83.3703 125.005 83.3149 125.834 85.8034L121.735 87.4429L118.456 89.9022C117.227 90.722 115.587 91.5418 113.538 92.3615C111.327 93.2459 107.39 92.7714 104.11 95.6406C100.831 98.5098 100.82 100.545 100.012 100.969Z" fill="#FCA282"/>
<path d="M107.32 89.9503C102.744 89.5165 99.8667 91.5772 99 92.6617C100.5 93.5 102 95.5 102.5 97C104.58 93.9632 109.3 93.2618 112 92.6617C116.495 91.6629 119.765 88.8723 121.673 87.2446L121.68 87.2388L125 86L124.48 85.0696C121.568 84.6358 119.107 86.335 118.24 87.2388C116.507 88.3234 111.896 90.3841 107.32 89.9503Z" fill="#C37F67"/>
<rect x="132.857" y="53.9366" width="22.2715" height="43.775" rx="2" transform="rotate(65.3745 132.857 53.9366)" fill="#2F1E14"/>
<path d="M129.774 56.7263C130.748 56.2736 131.905 56.6708 132.396 57.6261L139.524 71.5025C140.044 72.5153 139.615 73.7575 138.581 74.2333L106.33 89.0694C105.329 89.5297 104.145 89.0945 103.68 88.0959L97.1661 74.0906C96.7002 73.0889 97.1347 71.8992 98.1365 71.4335L129.774 56.7263Z" fill="#464443"/>
<path d="M102.412 68.0332C102.412 68.0332 102.085 66.4875 101.35 65.9455C99.2277 64.3796 97.1039 65.9454 97.6347 68.0335C98.1656 70.1216 99.517 70.4416 100.82 70.1213C102.943 69.5991 102.412 68.0332 102.412 68.0332Z" fill="#FCA282"/>
<path d="M108.961 66.0279C108.961 66.0279 108.579 64.2245 107.722 63.5921C105.246 61.7653 102.768 63.5921 103.387 66.0282C104.007 68.4643 105.583 68.8377 107.103 68.4639C109.58 67.8547 108.961 66.0279 108.961 66.0279Z" fill="#FCA282"/>
<path d="M114.698 63.5685C114.698 63.5685 114.317 61.7652 113.46 61.1328C110.983 59.3059 108.506 61.1328 109.125 63.5689C109.744 66.005 111.321 66.3783 112.841 66.0045C115.318 65.3954 114.698 63.5685 114.698 63.5685Z" fill="#FCA282"/>
<path d="M119.627 60.6551C119.627 60.6551 119.3 59.1094 118.566 58.5673C116.443 57.0014 114.319 58.5673 114.85 60.6554C115.381 62.7434 116.732 63.0635 118.035 62.7431C120.158 62.2209 119.627 60.6551 119.627 60.6551Z" fill="#FCA282"/>
<path d="M94.2737 74.7366C93.044 72.2773 94.2736 71.8674 94.6835 71.4575L104.111 91.5418C102.471 92.3616 101.652 90.9953 101.242 89.9023C99.3289 85.9401 95.5267 77.2424 94.2737 74.7366Z" fill="#444240"/>
<path d="M129.831 554.689L129.088 549.231L129.001 548.597L149.678 542.473L150.212 549.433C150.212 549.433 147.756 552.663 141.368 554.359C134.981 556.056 129.831 554.689 129.831 554.689Z" fill="#E49072"/>
<path d="M75.3945 201.154C91.7119 198.582 133.605 187.055 133.605 187.055C133.605 187.055 128.077 161.778 120.601 130.367L69.6377 166.136L103.336 100.644C103.336 100.644 103.333 94.6755 97.2515 91.3C91.1695 87.9245 88.2425 89.6146 88.2425 89.6146C88.2425 89.6146 33.101 174.034 28.5468 189.406C23.9926 204.778 56.485 204.135 75.3945 201.154Z" fill="#BED4E1"/>
<path d="M62.3362 193.737L36.884 200.663C36.884 200.663 58.3356 202.624 69.5395 201.55C80.7433 200.476 108.516 193.239 114.858 191.566C121.201 189.893 126.399 188.69 126.399 188.69L130.34 187.563L124.983 167.352C124.983 167.352 110.01 174.622 95.599 180.877C81.1883 187.132 62.3362 193.737 62.3362 193.737Z" fill="#A8C1D0"/>
<path d="M135.261 546.924V541.415V540.775L156.575 537.496L156.165 544.464C156.165 544.464 153.296 547.333 146.738 548.153C140.18 548.973 135.261 546.924 135.261 546.924Z" fill="#D47C5C"/>
<circle cx="103.701" cy="79.6551" r="2.04942" fill="#706C6A"/>
<path d="M228.304 301.812H154.935L140.179 389.118L138.13 543.644H157.804C181.086 492.49 189.092 447.731 190.185 431.745C208.63 385.429 218.468 353.458 225.845 329.684L228.304 301.812Z" fill="#2A3958"/>
<path d="M108.208 443.632L106.569 428.057C106.569 428.057 111.897 396.086 114.357 372.722C116.816 349.359 122.554 300.173 122.554 300.173L162.313 301.812L166.002 335.423L162.313 360.016L151.246 434.205L153.296 545.283C151 553.481 135.397 553.344 127.883 552.251L108.208 443.632Z" fill="#2A3958"/>
<path d="M149.101 430.074L166.177 347.714L146.438 427.618L146.55 430.074L146.643 432.122C149.74 435.263 149.225 437.748 148.58 438.598L146.663 441.558L147.222 444.815C152.481 466.568 153.931 519.9 152.067 542.004C158.215 482.571 151.336 454.064 149.101 441.036L151.39 437.239L150.837 434.205L149.101 430.074Z" fill="#62718F"/>
<path d="M211.909 337.062L219.696 339.522C219.696 339.522 213.548 365.959 206.17 387.068C198.792 408.177 186.906 430.926 186.906 430.926C186.906 430.926 198.792 399.775 203.711 379.28C208.63 358.786 211.909 337.062 211.909 337.062Z" fill="#212D46"/>
<path d="M122.964 311.239L124.194 301.346H140.999C139.359 311.239 131.644 322.637 121.325 323.126L122.964 311.239Z" fill="#212D46"/>
<path d="M226.85 317.943L228.715 303.862H194.707C190.909 331.114 208.747 341.118 221.594 342.391L226.85 317.943Z" fill="#212D46"/>
<path d="M228.021 292.388H121.394V301.347L165.593 303.452L228.021 305.091V292.388Z" fill="#1C1E20"/>
<path d="M154.046 293.927C154.046 293.237 154.606 292.677 155.296 292.677H173.999C174.689 292.677 175.249 293.237 175.249 293.927V302.608C175.249 303.316 174.662 303.882 173.954 303.857L155.251 303.181C154.578 303.157 154.046 302.605 154.046 301.932V293.927Z" stroke="#C6C6C6" stroke-width="1.5"/>
<path d="M154.116 298.74C154.124 298.21 154.56 297.787 155.09 297.794L165.188 297.938C165.718 297.946 166.142 298.382 166.134 298.912C166.127 299.442 165.691 299.865 165.161 299.858L155.062 299.714C154.532 299.706 154.109 299.27 154.116 298.74Z" fill="#C4C4C4"/>
<path d="M155.299 290.647C156.404 290.647 157.302 291.543 157.302 292.647L157.302 301.862C157.302 302.966 156.404 303.862 155.299 303.862C154.194 303.862 153.296 302.966 153.296 301.862L153.296 292.647C153.296 291.543 154.194 290.647 155.299 290.647Z" fill="#F3F3F3"/>
<path d="M120.095 130.071L138.193 120.555L146.547 114.721L157.505 131.001L183.594 131.081L195.104 111.626L244.459 139.211L236.632 170.743L231.994 204.67L228.305 249.757V296.074H166.822C141.819 296.074 119.385 294.498 119.385 294.498C119.385 284.889 120.615 260.824 120.095 245.248C119.576 229.673 115.587 203.85 115.587 180.077C115.587 180.077 115.382 173.109 116.407 159.173C117.432 145.237 120.095 130.071 120.095 130.071Z" fill="#CADFEC"/>
<path d="M151.656 119.414V111.216L202.892 110.396L195.104 114.905L192.235 118.184L151.656 119.414Z" fill="#728E9F"/>
<path d="M155.608 95.658L196.76 84.1813V115.725C196.76 115.725 183.86 130.161 169.626 130.161C155.391 130.161 155.608 116.74 155.608 116.74V95.658Z" fill="#EDA58B"/>
<path d="M154.526 102.199C154.526 102.199 156.475 107.117 169.692 107.117C182.908 107.117 196.334 87.4427 196.334 87.4427L194.285 94.0009C194.285 94.0009 184.87 112.856 170.524 114.085C156.178 115.315 155.756 105.478 155.756 105.478L154.526 102.199Z" fill="#D57C5C"/>
<path d="M163.31 295.864L160.989 295.781L166.038 145.254L168.698 144.619L165.682 295.949L163.31 295.864Z" fill="#BED4E1"/>
<path d="M156.634 268.266L165.096 141.367L165.135 139.861L170.766 140.007L172.205 268.672C172.205 268.672 165.111 280.5 163.287 280.452C161.463 280.404 156.634 268.266 156.634 268.266Z" fill="#FFBF1C"/>
<path d="M171.331 128.431L170.921 129.251L163.953 128.431L160.264 137.449L165.208 145.646H170.511L176.249 134.58L171.331 128.431Z" fill="#FFBF1C"/>
<path d="M169.554 144.827H166.685H165.251H164.772V147.45C164.772 147.45 165.729 148.106 167.642 148.106C169.554 148.106 170.511 147.45 170.511 147.45V144.827H169.554Z" fill="#DCA61B"/>
<path d="M166.002 133.76L167.232 130.481L167.641 129.251L165.592 128.842L165.182 128.841L159.854 136.629L162.723 141.138L164.362 137.449L166.002 133.76Z" fill="#DCA61B"/>
<path d="M156.067 144.007L166.832 127.901L151.559 111.216L143.771 115.725L135.261 120.46L156.067 144.007Z" fill="#B6CEDC"/>
<path d="M178.2 145.647L169.592 128.021L202.793 110.396L209.761 116.545L213.86 120.234L178.2 145.647Z" fill="#B6CEDC"/>
<path d="M209.86 66.1288C212.734 60.1887 213.549 42.3556 214.779 34.9777L202.482 46.4544C200.296 53.5591 191.907 64.9812 192.235 73.5068C192.455 79.2237 201.804 84.3035 206.991 81.7044C211.473 79.4586 213.139 74.7364 213.139 74.7364C213.139 74.7364 203.712 78.8352 209.86 66.1288Z" fill="#723E28"/>
<path d="M134.851 56.7013L135.67 52.8166L134.547 44.136L134.542 44.1186C133.617 40.7019 132.502 36.5788 134.547 29.8742C136.49 23.5008 145.546 19.5402 148.134 20.5736C161.29 20.7803 188.12 21.1936 190.191 21.1936C201.061 20.6975 206.366 26.7741 207.661 29.8744C207.229 34.4214 205.908 43.9269 205.072 45.9958C202.796 51.6336 203.711 53.4366 203.711 52.8166C205.761 48.0939 211.909 48.0625 211.909 52.8166C211.909 57.5707 207.661 71.8671 201.662 69.8177C201.662 76.7857 200.022 81.7042 194.284 91.9513C184.449 104.848 177.069 110.396 162.313 110.396C147.557 110.396 139.014 80.5059 137.72 76.7856C136.685 73.8093 134.851 66.1286 134.851 66.1286L134.547 62.0297L134.851 56.7013Z" fill="#FFB499"/>
<ellipse rx="4.5" ry="5.5" transform="matrix(-0.997515 -0.0704584 -0.0704584 0.997515 174.877 57.8034)" fill="#2F1E14"/>
<ellipse rx="4.5" ry="5.5" transform="matrix(-0.997515 -0.0704584 -0.0704584 0.997515 145.877 57.8034)" fill="#2F1E14"/>
<ellipse rx="1.68468" ry="1.962" transform="matrix(-0.999947 -0.0102494 -0.00490757 0.999988 173.445 56.4166)" fill="white"/>
<ellipse rx="1.68468" ry="1.962" transform="matrix(-0.999947 -0.0102494 -0.00490757 0.999988 144.445 56.4166)" fill="white"/>
<path d="M129.683 23.0329C127.095 30.4736 132.694 51.9303 134.851 58.7509C136.08 55.8818 136.9 50.9631 136.49 46.8643C134.851 32.9283 139.3 24.6794 144.477 23.8527C142.924 30.3013 149.869 33.5669 153.535 34.3937C148.359 27.449 153.104 24.4728 156.123 23.8527C178.769 23.8527 184.429 20.7715 192.644 25.9603C200.432 30.8789 198.383 52.1929 194.694 59.9807L204.941 52.6028C219.823 37.7214 218.232 20.1223 214.953 15.6136C212.946 12.8539 209.559 9.17737 201.32 6.52461C196.098 4.84344 189.924 2.72004 181.324 1.52565C148.604 -3.01877 143.049 3.4167 142.229 9.97485C141.711 8.98276 136.49 9.01845 134.031 11.2045C130.342 14.4836 129.899 17.8658 129.683 23.0329Z" fill="#723E28"/>
<path d="M204.118 65.2046C202.337 63.8957 203.742 55.6183 205.722 53.2183C207.256 51.3582 209.709 51.6413 208.869 57.3501C208.284 61.3266 205.306 66.0773 204.118 65.2046Z" fill="#B75532"/>
<path d="M148.3 82.8552L176.26 82.8552C174.584 85.7802 169.572 93.0202 160.579 93.0202C151.585 93.0202 148.97 85.1101 148.3 82.8552Z" fill="white" stroke="#D2765C" stroke-width="2"/>
<path d="M174.673 45.7687C177.665 46.5844 183.63 47.3525 186.238 47.6345C188.095 48.6555 185.101 49.47 184.155 49.6411C180.692 49.9844 176.156 49.3914 173.635 49.3477C172.478 49.3277 168.476 48.5848 166.606 48.075C166.098 47.5074 165.47 45.9629 167.02 44.326C168.959 42.2799 170.933 44.7491 174.673 45.7687Z" fill="#77432D"/>
<path d="M146.536 46.3638C144.229 47.127 139.534 47.8081 137.474 48.0532C136.102 49.031 138.594 49.8644 139.372 50.0432C142.186 50.4207 145.756 49.894 147.772 49.8813C148.697 49.8755 151.822 49.1956 153.264 48.7186C153.607 48.1688 153.936 46.6637 152.508 45.0421C150.722 43.0151 149.419 45.4098 146.536 46.3638Z" fill="#77432D"/>
<path d="M152.887 71.4576C151.25 76.2236 154.207 76.7861 156.257 76.7861H162.815C167.324 76.7861 166.387 72.0816 164.805 71.0707C162.864 69.8306 161.397 67.3504 160.75 65.4902C160.103 63.63 160.276 53.089 160.276 52.4689C159.24 50.4847 158.119 51.6421 157.688 52.4689L156.257 60.3907C155.437 63.6698 154.936 65.4902 152.887 71.4576Z" fill="#E98F6F"/>
<path d="M227.485 249.757C230.354 216.556 230.354 209.178 232.813 200.571L234.453 194.832V187.454H231.174L229.944 190.323C229.944 190.323 225.284 208.358 223.795 217.786C222.307 227.213 219.287 241.149 214.778 255.495C210.269 269.841 198.793 288.696 192.234 295.664H227.485V249.757Z" fill="#A8C1D0"/>
<path d="M190.185 205.489C182.397 205.079 179.528 203.843 179.528 203.843L178.623 175.158L208.63 175.978L206.171 205.08C206.171 205.08 197.973 205.899 190.185 205.489Z" fill="#A8C1D0"/>
<path d="M211.702 312.174L225.637 321.883C225.641 324.847 216.323 340.751 216.323 340.751L213.61 339.679L210.904 338.731L207.811 337.062L204.942 335.013L202.681 333.08L200.023 330.094L197.503 325.546C197.503 325.546 202.556 321.303 203.712 320.257C206.68 317.57 211.158 313.394 211.702 312.174Z" fill="#FCA282"/>
<path d="M213.5 339.5C217.1 331.5 219.667 323.833 220.5 321V320.5L224.5 323.5V324C224.1 326.4 218.667 336 216 340.5L213.5 339.5Z" fill="#C37F67"/>
<path d="M101.07 68.546C101.07 68.546 101.908 67.5954 101.07 67.0373C99.4078 67.6782 98.8127 68.0209 98.4292 68.1688C98.4292 68.1688 98.4293 68.546 98.8065 68.9232C99.1837 69.3004 100.315 68.9232 100.315 68.9232C100.622 68.8049 101.07 68.546 101.07 68.546Z" fill="#EB8561"/>
<path d="M107.592 66.5475C107.592 66.5475 108.671 65.3228 107.592 64.6038C105.451 65.4296 104.684 65.871 104.19 66.0616C104.19 66.0616 104.19 66.5475 104.676 67.0335C105.162 67.5195 106.62 67.0335 106.62 67.0335C107.015 66.8811 107.592 66.5475 107.592 66.5475Z" fill="#EB8561"/>
<path d="M113.324 64.0879C113.324 64.0879 114.404 62.8632 113.324 62.1442C111.183 62.97 110.416 63.4114 109.922 63.602C109.922 63.602 109.922 64.0879 110.408 64.5739C110.894 65.0599 112.352 64.5739 112.352 64.5739C112.747 64.4215 113.324 64.0879 113.324 64.0879Z" fill="#EB8561"/>
<path d="M118.254 60.8291C118.254 60.8291 119.082 59.8895 118.254 59.3379C116.611 59.9714 116.023 60.3101 115.644 60.4563C115.644 60.4563 115.644 60.8291 116.017 61.202C116.39 61.5748 117.508 61.202 117.508 61.202C117.811 61.0851 118.254 60.8291 118.254 60.8291Z" fill="#EB8561"/>
<path d="M271.341 250.577C275.557 240.038 253.896 150.018 244.457 139.312C229.533 162.042 227.541 193.812 229.943 204.67L242.649 248.117L227.074 280.908L210.269 312.469L226.664 324.356C248.798 290.745 263.963 269.022 271.341 250.577Z" fill="#BED4E1"/>
<path d="M260.274 214.917L271.341 246.478C271.341 246.478 269.292 221.065 262.734 196.882C256.175 172.699 258.154 178.329 253.716 164.092C248.388 144.827 244.289 139.908 244.289 139.908C243.059 142.778 238.96 148.106 240.6 159.173L260.274 214.917Z" fill="#A8C1D0"/>
<path d="M78.2878 144.417L69.2703 165.731C69.2703 165.731 80.3372 144.827 84.0262 137.449L92.2239 121.054C100.831 104.658 102.881 100.559 102.881 100.559C102.881 99.3297 101.651 95.6407 100.012 94.0013L78.2878 144.417Z" fill="#A8C1D0"/>
</svg>
