<?xml version="1.0" encoding="utf-8"?>
<!-- Generator: Adobe Illustrator 25.3.1, SVG Export Plug-In . SVG Version: 6.00 Build 0)  -->
<svg version="1.1" id="Слой_1" xmlns="http://www.w3.org/2000/svg" xmlns:xlink="http://www.w3.org/1999/xlink" x="0px" y="0px"
	 viewBox="0 0 59.8 59.8" style="enable-background:new 0 0 59.8 59.8;" xml:space="preserve">
<style type="text/css">
	.st0{fill:#FFFFFF;}
</style>
<path class="st0" d="M43.3,0H16.5C7.4,0,0,7.4,0,16.5v26.8c0,9.1,7.4,16.5,16.5,16.5h26.8c9.1,0,16.5-7.4,16.5-16.5V16.5
	C59.8,7.4,52.4,0,43.3,0z M54.5,43.3c0,6.2-5,11.2-11.2,11.2H16.5c-6.2,0-11.2-5-11.2-11.2V16.5c0-6.2,5-11.2,11.2-11.2h26.8
	c6.2,0,11.2,5,11.2,11.2L54.5,43.3L54.5,43.3z"/>
<path class="st0" d="M29.9,14.5c-8.5,0-15.4,6.9-15.4,15.4c0,8.5,6.9,15.4,15.4,15.4c8.5,0,15.4-6.9,15.4-15.4
	C45.3,21.4,38.4,14.5,29.9,14.5z M29.9,40c-5.6,0-10.1-4.5-10.1-10.1c0-5.6,4.5-10.1,10.1-10.1S40,24.3,40,29.9
	C40,35.5,35.5,40,29.9,40z"/>
<path class="st0" d="M46,10c-1,0-2,0.4-2.7,1.1c-0.7,0.7-1.1,1.7-1.1,2.8c0,1,0.4,2,1.1,2.8c0.7,0.7,1.7,1.1,2.7,1.1
	c1,0,2-0.4,2.8-1.1c0.7-0.7,1.1-1.7,1.1-2.8c0-1-0.4-2-1.1-2.8C48,10.4,47,10,46,10z"/>
</svg>
