<svg xmlns="http://www.w3.org/2000/svg">
  <path
    d="M14.4963 0.204102H6.00787C3.12524 0.204102 0.780029 2.54943 0.780029 5.43206V13.9205C0.780029 16.8032 3.12524 19.1485 6.00787 19.1485H14.4963C17.3792 19.1485 19.7244 16.8031 19.7244 13.9205V5.43206C19.7245 2.54943 17.3792 0.204102 14.4963 0.204102ZM18.0437 13.9205C18.0437 15.8764 16.4524 17.4676 14.4964 17.4676H6.00787C4.05205 17.4677 2.46086 15.8764 2.46086 13.9205V5.43206C2.46086 3.47624 4.05205 1.88494 6.00787 1.88494H14.4963C16.4522 1.88494 18.0435 3.47624 18.0435 5.43206V13.9205H18.0437Z"
    fill="white" />
  <path
    d="M10.2526 4.79504C7.56089 4.79504 5.37109 6.98484 5.37109 9.67653C5.37109 12.3681 7.56089 14.5578 10.2526 14.5578C12.9443 14.5578 15.1341 12.3681 15.1341 9.67653C15.1341 6.98484 12.9443 4.79504 10.2526 4.79504ZM10.2526 12.8768C8.48781 12.8768 7.05193 11.4412 7.05193 9.67641C7.05193 7.91154 8.4877 6.47577 10.2526 6.47577C12.0175 6.47577 13.4532 7.91154 13.4532 9.67641C13.4532 11.4412 12.0173 12.8768 10.2526 12.8768Z"
    fill="white" />
  <path
    d="M15.3386 3.36987C15.0147 3.36987 14.6966 3.50098 14.4679 3.73069C14.2381 3.95929 14.106 4.27752 14.106 4.60249C14.106 4.92644 14.2382 5.24456 14.4679 5.47428C14.6965 5.70287 15.0147 5.8351 15.3386 5.8351C15.6635 5.8351 15.9806 5.70287 16.2104 5.47428C16.4401 5.24456 16.5712 4.92633 16.5712 4.60249C16.5712 4.27752 16.4401 3.95929 16.2104 3.73069C15.9818 3.50098 15.6635 3.36987 15.3386 3.36987Z"
    fill="white" />
</svg>
