<?xml version="1.0" encoding="utf-8"?>
<!-- Generator: Adobe Illustrator 25.3.1, SVG Export Plug-In . SVG Version: 6.00 Build 0)  -->
<svg version="1.1" id="Слой_1" xmlns="http://www.w3.org/2000/svg" xmlns:xlink="http://www.w3.org/1999/xlink" x="0px" y="0px"
	 viewBox="0 0 60 35" style="enable-background:new 0 0 60 35;" xml:space="preserve">
<style type="text/css">
	.st0{display:none;}
	.st1{fill:#3F4245;}
	.st2{opacity:0;}
</style>
<g>
	<rect x="0.5" y="0.5" class="st0" width="59" height="34"/>
	<path class="st1" d="M60,35H0V0h60V35z M1,34h58V1H1V34z"/>
</g>
<g>
	<path class="st2" d="M59.7,0.5L30.5,22.1L0.7,0.5"/>
	<polygon class="st1" points="30.5,22.7 0.4,0.9 1,0.1 30.5,21.5 59.4,0.1 60,0.9 	"/>
</g>
<g>
	<path d="M1.4,34.5l23.1-17.1"/>
	<rect x="-1.4" y="25.5" transform="matrix(0.8047 -0.5937 0.5937 0.8047 -12.8863 12.7809)" class="st1" width="28.7" height="1"/>
</g>
<g>
	<path d="M58.8,34.3L36.5,18"/>
	<rect x="47.2" y="12.3" transform="matrix(0.5897 -0.8076 0.8076 0.5897 -1.5201 49.2178)" class="st1" width="1" height="27.6"/>
</g>
</svg>
