<svg width="33" height="32" viewBox="0 0 33 32" fill="none" xmlns="http://www.w3.org/2000/svg">
<path d="M4.47553 10.5378L2.49463 22.0564H30.374L28.3931 10.5378C27.8649 8.60089 26.2826 8.02446 25.5 8H23.5H23H22.5H22L21.5 8.00003L20 8.00002L19.5 8.00001H19H18.5H18H17.5L9.12982 8.0433H7.48358C5.60539 8.21938 4.69564 9.77965 4.47553 10.5378Z" fill="#333333"/>
<path d="M19.4783 5.14286V8H22.5217V5.14286H27.3913L28 4.57143V0.571429L27.3913 0H14.6087L14 0.571429V4.57143L14.6087 5.14286H19.4783Z" fill="#0085FF"/>
<path d="M1.39397 24.0372C0.396181 24.2133 0.0489113 24.991 0 25.3578V29.6131C0.176081 30.6109 1.00268 31.0071 1.39397 31.0805H31.3277C32.3841 30.9631 32.795 30.1022 32.8684 29.6865V25.5046C32.751 24.4481 31.9391 24.0861 31.5478 24.0372H1.39397Z" fill="#333333"/>
<path d="M14.8201 11.5649H7.55678C7.20462 11.5649 7.06767 11.9073 7.04321 12.0784V18.0945C7.10191 18.5054 7.41005 18.6081 7.55678 18.6081H14.8201C15.1723 18.6081 15.2603 18.2657 15.2603 18.0945V12.0784C15.2016 11.785 14.9424 11.6138 14.8201 11.5649Z" fill="#F0F0F0"/>
<path d="M18.782 13.9126V11.5649H21.1297V13.9126H18.782Z" fill="#F0F0F0"/>
<path d="M23.4773 13.9126V11.5649H25.825V13.9126H23.4773Z" fill="#F0F0F0"/>
<path d="M23.4773 18.6082V16.2604H25.825V18.6082H23.4773Z" fill="#F0F0F0"/>
<path d="M18.782 18.6082V16.2604H21.1297V18.6082H18.782Z" fill="#F0F0F0"/>
</svg>
