<svg width="32" height="38" viewBox="0 0 32 38" fill="none" xmlns="http://www.w3.org/2000/svg">
<path d="M7.92847 13.2857V19.2857H23.9999V13.2857C23.4285 11.0571 21.7618 10.5 20.9999 10.5H10.857C8.91418 10.7286 8.09513 12.4524 7.92847 13.2857Z" fill="#333333"/>
<path d="M0 13.9285V19.2857H5.71429V13.1428C5.82857 12.1714 6.28571 11.5952 6.42857 11.4285H2.57143C0.742857 11.8285 0.0952381 13.2619 0 13.9285Z" fill="#333333"/>
<path d="M32 13.9285V19.2857H26.2857V13.1428C26.1714 12.1714 25.7143 11.5952 25.5714 11.4285H29.4286C31.2571 11.8285 31.9048 13.2619 32 13.9285Z" fill="#333333"/>
<path d="M3.4939 6.86244C3.73049 9.55293 5.97974 10.2656 7.0748 10.2856C8.12827 8.93319 9.77582 8.42987 10.4679 8.34727C11.0849 5.85813 10.7513 4.5661 9.19975 3.46614C7.95848 2.58617 6.40071 2.86727 5.77699 3.11782C4.93814 3.41207 3.30713 4.57293 3.4939 6.86244Z" fill="#333333"/>
<path d="M28.5415 6.91972C28.2558 9.60544 25.9939 10.2769 24.8986 10.2769C23.87 8.90544 22.232 8.3721 21.5415 8.27686C20.9701 5.77686 21.3272 4.49115 22.8986 3.41973C24.1558 2.56258 25.7082 2.87211 26.3272 3.13401C27.1605 3.44353 28.7701 4.63401 28.5415 6.91972Z" fill="#333333"/>
<circle cx="16.0003" cy="4.14286" r="4.14286" fill="#333333"/>
<path d="M10.5714 21.5715H0V23.7858L4.57143 24.3572C4.91429 25.9 5.61905 27.1429 5.92857 27.5715L3 31.2143L6.28571 34.5L10 31.4286C10.8571 32.2286 12.5 32.7143 13.2143 32.8572L13.7143 37.5715H18.2857L18.8571 32.8572C20.4 32.5715 21.6429 31.881 22.0714 31.5715L25.7143 34.5L29 31.2858L26 27.5C26.6286 27.0429 27.2619 25.1667 27.5 24.2858L32 23.7858V21.5715H21.3571C21.2857 23.3572 20.1143 26.9286 16 26.9286C11.8857 26.9286 10.6667 23.3572 10.5714 21.5715Z" fill="#0085FF"/>
</svg>
