<svg width="15" height="15" viewBox="0 0 15 15" xmlns="http://www.w3.org/2000/svg">
<path d="M14.5209 13.6626L10.9509 9.94962C11.8688 8.85844 12.3718 7.48552 12.3718 6.05624C12.3718 2.71688 9.65488 0 6.31552 0C2.97616 0 0.259277 2.71688 0.259277 6.05624C0.259277 9.3956 2.97616 12.1125 6.31552 12.1125C7.56916 12.1125 8.76382 11.7344 9.78522 11.0166L13.3824 14.7578C13.5327 14.9139 13.7349 15 13.9517 15C14.1568 15 14.3514 14.9218 14.4991 14.7796C14.813 14.4776 14.823 13.9768 14.5209 13.6626ZM6.31552 1.57989C8.78383 1.57989 10.7919 3.58793 10.7919 6.05624C10.7919 8.52456 8.78383 10.5326 6.31552 10.5326C3.84721 10.5326 1.83917 8.52456 1.83917 6.05624C1.83917 3.58793 3.84721 1.57989 6.31552 1.57989Z" />
</svg>
