<svg width="34" height="34" viewBox="0 0 34 34" fill="none" xmlns="http://www.w3.org/2000/svg">
<path d="M33.0291 23.2559C33.0291 19.1379 30.6667 15.4628 27.1285 13.675C27.0186 21.5708 20.6172 27.9722 12.7214 28.0821C14.5092 31.6203 18.1843 33.9827 22.3023 33.9827C24.2331 33.9827 26.1107 33.4685 27.7604 32.4915L32.9823 33.9359L31.5379 28.714C32.5149 27.0643 33.0291 25.1867 33.0291 23.2559Z" fill="#AA4EF2"/>
<path d="M25.4137 13.675C25.4137 6.6763 19.72 0.982666 12.7214 0.982666C5.72269 0.982666 0.0290527 6.6763 0.0290527 13.675C0.0290527 15.9559 0.636178 18.1767 1.78906 20.1264L0.0757156 26.3204L6.26996 24.6073C8.21966 25.7602 10.4405 26.3673 12.7214 26.3673C19.72 26.3673 25.4137 20.6736 25.4137 13.675ZM10.7737 10.721H8.82602C8.82602 8.57299 10.5733 6.82567 12.7214 6.82567C14.8694 6.82567 16.6167 8.57299 16.6167 10.721C16.6167 11.8112 16.1551 12.8591 15.35 13.5956L13.6952 15.1101V16.6289H11.7475V14.2524L14.035 12.1587C14.4438 11.7846 14.669 11.2741 14.669 10.721C14.669 9.647 13.7954 8.77334 12.7214 8.77334C11.6474 8.77334 10.7737 9.647 10.7737 10.721ZM11.7475 18.5766H13.6952V20.5243H11.7475V18.5766Z" fill="#333333"/>
</svg>
