<svg xmlns="http://www.w3.org/2000/svg">
  <path
    d="M19.398 2.79332C19.1728 1.95637 18.513 1.29661 17.6761 1.07125C16.1474 0.652954 10.0321 0.652954 10.0321 0.652954C10.0321 0.652954 3.91709 0.652954 2.38831 1.05539C1.56758 1.28052 0.891604 1.95649 0.666478 2.79332C0.26416 4.32199 0.26416 7.49223 0.26416 7.49223C0.26416 7.49223 0.26416 10.6785 0.666478 12.1911C0.891842 13.028 1.55148 13.6877 2.38843 13.9131C3.93319 14.3315 10.0323 14.3315 10.0323 14.3315C10.0323 14.3315 16.1474 14.3315 17.6761 13.9291C18.5131 13.7038 19.1728 13.0441 19.3982 12.2072C19.8004 10.6785 19.8004 7.50833 19.8004 7.50833C19.8004 7.50833 19.8165 4.32199 19.398 2.79332ZM8.08514 10.421V4.56345L13.1703 7.49223L8.08514 10.421Z"
    fill="white" />
</svg>
