<?xml version="1.0" encoding="utf-8"?>
<!-- Generator: Adobe Illustrator 25.3.1, SVG Export Plug-In . SVG Version: 6.00 Build 0)  -->
<svg version="1.1" id="Слой_1" xmlns="http://www.w3.org/2000/svg" xmlns:xlink="http://www.w3.org/1999/xlink" x="0px" y="0px"
	 viewBox="0 0 59.7 41.8" style="enable-background:new 0 0 59.7 41.8;" xml:space="preserve">
<style type="text/css">
	.st0{fill:#FFFFFF;}
</style>
<path class="st0" d="M58.5,6.5C57.8,4,55.8,2,53.2,1.3C48.6,0,29.9,0,29.9,0S11.2,0,6.5,1.2C4,1.9,1.9,4,1.2,6.5
	C0,11.2,0,20.9,0,20.9s0,9.7,1.2,14.4c0.7,2.6,2.7,4.6,5.3,5.3c4.7,1.3,23.4,1.3,23.4,1.3s18.7,0,23.4-1.2c2.6-0.7,4.6-2.7,5.3-5.3
	c1.2-4.7,1.2-14.4,1.2-14.4S59.8,11.2,58.5,6.5z M23.9,29.9V12l15.5,9L23.9,29.9z"/>
</svg>
