<?xml version="1.0" encoding="utf-8"?><svg xmlns="http://www.w3.org/2000/svg" xmlns:xlink="http://www.w3.org/1999/xlink"><symbol viewBox="0 0 159.8 157.4" id="callback-text" xmlns="http://www.w3.org/2000/svg"><path d="M115.8 150.1l-4.3-8.8-2 1 3.5 7.1-4 1.9-3.5-7.1-2 1 4.3 8.8 8-3.9zm-17.1-3.6c-2.3.7-3.4 2.8-2.7 5 .7 2.2 2.9 3.1 5.1 2.4 2.3-.7 3.4-2.8 2.7-5-.7-2.2-2.8-3.2-5.1-2.4zm.5 1.7c1-.3 2.1.1 2.5 1.4.4 1.2-.1 2.2-1.2 2.6-1 .3-2.1-.1-2.5-1.4-.3-1.3.2-2.3 1.2-2.6zm-5.3 7.4l-.4-3c-.2-1.4-.4-2.7.7-2.9h.3l-.2-1.8h-1.1c-1.8.3-1.9 2.3-1.5 4.9l.2 1.3-2.3.4-1.1-5.6-2.1.4 1.4 7.4 6.1-1.1zm-14.8 1.7l1.8-5.2 2.4 5 2.2-.1-3.7-7.4v-.1c.3-.7.6-1 1.2-1 .4 0 .9.1 1.3.4l.7-1.6c-.5-.4-1.4-.6-2.1-.6-1.4.1-2.4.7-3 2.5l-2.9 8.2 2.1-.1zm-8.6-.4l.2-3.2c.5-.2 1.1-.3 1.6-.3.9.1 1.4.5 1.3 1.4l-.1 2.2 2.2.1.1-2.4c.1-2-.9-2.9-2.9-3-.8-.1-1.5.1-2.1.3l.2-2.8-2.2-.1-.5 7.5 2.2.3zm-3.4-8l-2-.4-4.4 3.7.8-4.4-2.1-.4-1.4 7.4 2 .4 4.4-3.7-.8 4.4 2.1.4 1.4-7.4zM49.7 152l6.9 2.2.5-1.7-2.4-.8 1.8-5.5-2.1-.7-1.8 5.5-2.4-.8-.5 1.8zm-5-4.9l1.7.8-1 2.2 2 .9 3.1-6.9-3.4-1.6c-1.9-.9-3.4-.5-4.1 1-.6 1.5-.1 2.8 1.7 3.6zm2-3l1.3.6-.9 2-1.3-.6c-.8-.4-1.1-.8-.7-1.5.2-.8.8-.9 1.6-.5zm-12.8-9.9l-2.1-1.5v4.8l-4.3 1.4 1.9 1.4 3.4-1.2 1 .7-1.7 2.4 1.8 1.3 4.4-6.1-1.8-1.3-1.7 2.3-.9-.7v-3.5zm-4.9-4.6c-1.7-1.6-4.1-1.7-5.7 0-1.6 1.7-1.4 4 .4 5.7 1.7 1.6 4.1 1.7 5.7 0 1.5-1.6 1.3-4-.4-5.7zm-1.2 1.3c.8.7.9 1.9 0 2.8-.9.9-2 .9-2.8.2-.8-.7-.9-1.9 0-2.8s2-.9 2.8-.2zm-2.8-5.3l-1.4-1.7-2.2 1.8-2.1-2.5 2.2-1.8-1.4-1.7-5.8 4.8 1.4 1.7 2.3-1.9 2.1 2.5-2.3 1.9 1.4 1.7 5.8-4.8zm-7.4-10.4c-.8-1.3-2.1-2-3.4-1.9l.1 1.9c.8 0 1.4.3 1.8.9.6.9.4 2.1-.7 2.8s-2.2.4-2.8-.6c-.4-.6-.4-1.3 0-2l-1.7-1c-.8 1.1-.7 2.5.2 3.9 1.3 2.1 3.6 2.7 5.5 1.5 1.9-1.1 2.3-3.4 1-5.5zM6 109.1l5.5-.2-3.7 4.1 1 2 5.5-6.2h.1c.7 0 1.1.2 1.4.7.2.4.2.9.1 1.3l1.7.1c.2-.6.1-1.5-.3-2.2-.6-1.2-1.5-1.9-3.5-1.8l-8.7.3.9 1.9zm-1.7-4.5l2.9-.8c1.4-.4 2.6-.7 3 .3 0 .1.1.2.1.3l1.7-.4c0-.4-.1-.8-.2-1.1-.6-1.8-2.5-1.6-5.1-.9l-1.3.3-.7-2.3 5.5-1.8-.7-2.1-7.2 2.3 2 6.2zm-.9-13.5l.4 1.9-2.4.4.4 2.1 7.4-1.4-.7-3.7c-.4-2.1-1.6-3.1-3.2-2.8-1.5.3-2.2 1.5-1.9 3.5zm3.7-.2l.3 1.4-2.1.4-.2-1.4c-.3-.8-.1-1.3.6-1.5.8-.1 1.2.3 1.4 1.1zM0 79.8L.5 87h1.8l-.2-2.5 5.7-.5-.1-2.2-5.7.5-.2-2.5H0zm.2-5.4c-.1 1.2.2 2.4.7 3.3l1.6-.7c-.4-.6-.6-1.4-.6-2.2.1-1.2.6-1.7 1.6-1.7l-.1 1.7c-.1 2.3.8 3.3 2.1 3.3 1.3.1 2.3-.9 2.4-2.7.1-1.1-.3-1.9-.9-2.3h.9l.1-2-4.3-.1C1.4 70.8.3 72.1.2 74.4zm6.2.5c0 .8-.4 1.2-1 1.2-.5 0-.9-.4-.8-1.4l.1-1.5h.8c.7.3 1 1 .9 1.7zm1.5-13.3l-5.7-1-.4 2.2 5.7 1-.5 3-5.7-1-.3 2.1 7.4 1.3 1.1-6.4 1.6.3.4-2-3.4-.6-.2 1.1zm2.4-1.4l.6-1.9-3.2-4.8 4.3 1.4.7-2.1-7.2-2.3-.6 1.9L8 57.2l-4.3-1.4-.7 2.1 7.3 2.3zm-.8-18.3c-.9 1.8-.5 3.6.9 4.8l-.4.9-2.5-1.2-.9 2 6.8 3.3.9-2-2.6-1.3.5-.9c1.8.4 3.5-.4 4.4-2.2 1-2.1.3-4.3-1.7-5.3-2.2-1-4.4-.2-5.4 1.9zm5.4 2.6c-.5.9-1.5 1.3-2.7.8-1.2-.6-1.5-1.6-1.1-2.6.5-.9 1.5-1.3 2.7-.8 1.2.6 1.5 1.6 1.1 2.6zm30.7-38l4.1 8.9 2-.9-3.3-7.2 4-1.9 3.3 7.2 2-.9-4.1-8.9-8 3.7zm17 4c2.3-.7 3.5-2.7 2.8-4.9-.7-2.2-2.8-3.2-5.1-2.5-2.3.7-3.5 2.7-2.8 4.9.7 2.1 2.8 3.2 5.1 2.5zm-.5-1.8c-1 .3-2.1-.2-2.5-1.4s.2-2.2 1.2-2.6c1-.3 2.1.2 2.4 1.4s-.1 2.3-1.1 2.6zm5.5-7.3l.4 3c.2 1.4.3 2.7-.7 2.9H67l.2 1.8h1.1c1.8-.3 2-2.2 1.6-4.9l-.1-1.3 2.3-.4.9 5.7 2.2-.4L74 .4l-6.4 1zM82.4.1l-1.9 5.2-2.3-5-2.3.1 3.5 7.5V8c-.3.7-.6 1-1.2 1-.4 0-.9-.1-1.2-.4l-.8 1.4c.5.4 1.4.6 2.1.6 1.4-.1 2.4-.6 3-2.5L84.5 0l-2.1.1zm8.6.6l-.3 3.2c-.5.1-1 .2-1.6.1-.9-.1-1.4-.5-1.3-1.4L88 .4 85.8.2l-.2 2.4c-.2 2 .8 2.9 2.8 3.1.8.1 1.5-.1 2.1-.3l-.2 2.8 2.2.2.6-7.5L91 .7zm3.3 8.1l2 .4 4.5-3.6-.9 4.4 2.1.5 1.6-7.4-2-.4L97 6.2l1-4.3-2.1-.5-1.6 7.4zM111.7 6l-6.9-2.4-.6 1.7 2.4.8-1.9 5.4 2.1.7 1.9-5.4 2.4.8.6-1.6zm4.9 5l-1.7-.8 1-2.2-2-.9-3.3 6.8 3.4 1.7c1.9.9 3.4.6 4.1-.9.8-1.5.2-2.8-1.5-3.7zm-2 3l-1.3-.6.9-2 1.3.6c.8.4 1 .9.7 1.5-.3.8-.9.9-1.6.5zm12.5 10.1l2.1 1.6.1-4.8 4.3-1.3-1.9-1.4-3.4 1.1-.9-.7 1.8-2.3-1.7-1.3-4.6 6 1.7 1.3 1.7-2.3.9.7-.1 3.4zm4.8 4.7c1.7 1.7 4.1 1.7 5.7.1 1.6-1.6 1.5-4-.2-5.7-1.7-1.7-4.1-1.8-5.7-.1-1.6 1.7-1.5 4 .2 5.7zm1.3-1.3c-.8-.8-.8-1.9.1-2.8.9-.9 2.1-.9 2.8-.1.8.8.8 1.9-.1 2.8-.9.9-2 .9-2.8.1zm2.6 5.4l1.3 1.7 2.2-1.7 2 2.6-2.2 1.7 1.3 1.7 5.9-4.6-1.3-1.7-2.3 1.8-2-2.6L143 30l-1.3-1.7-5.9 4.6zm7.2 10.6c.8 1.4 2 2.1 3.4 1.9l-.1-1.9c-.8 0-1.4-.3-1.8-.9-.6-1-.3-2.1.8-2.8 1.1-.7 2.2-.3 2.8.6.4.6.4 1.3 0 2l1.6 1c.8-1.1.7-2.5-.1-3.9-1.3-2.1-3.5-2.8-5.5-1.6-1.9 1.2-2.4 3.5-1.1 5.6zm11.5 6.3l-5.5.1 3.8-4-.9-2.1-5.6 6h-.1c-.7 0-1.1-.2-1.4-.7-.2-.4-.2-.9-.1-1.3l-1.7-.1c-.2.6-.1 1.5.2 2.2.5 1.2 1.5 2 3.4 1.9l8.7-.1-.8-1.9zm1.5 4.6l-2.9.8c-1.4.3-2.7.6-3-.4 0-.1 0-.2-.1-.3l-1.7.4c0 .4.1.8.2 1.1.5 1.8 2.5 1.7 5.1 1l1.3-.3.7 2.3-5.5 1.6.6 2.1 7.2-2.1-1.9-6.2zm.6 13.5l-.3-1.9 2.4-.4-.4-2.1-7.4 1.2.6 3.7c.3 2.1 1.5 3.1 3.1 2.9 1.6-.2 2.3-1.4 2-3.4zm-3.6.1l-.2-1.4 2.2-.4.2 1.4c.1.8-.1 1.3-.8 1.5-.8.1-1.3-.3-1.4-1.1zm6.8 11.2l-.3-7.3-1.8.1.1 2.5-5.7.3.1 2.2 5.7-.3.1 2.5h1.8zm-.3 5.5c.1-1.2-.1-2.4-.7-3.3l-1.6.7c.4.6.6 1.4.5 2.2-.1 1.2-.7 1.7-1.6 1.6l.1-1.7c.2-2.3-.7-3.3-2-3.4-1.3-.1-2.4.9-2.5 2.6-.1 1.1.2 1.9.9 2.4l-.9-.1-.1 2 4.3.3c2.3.2 3.5-1.1 3.6-3.3zm-6.2-.7c.1-.8.5-1.2 1-1.2s.9.4.8 1.4l-.1 1.5-.8-.1c-.7-.2-1-.8-.9-1.6zm-1.8 13.3l5.6 1.1.4-2.1-5.6-1.1.6-3 5.6 1.1.4-2.1-7.4-1.5-1.3 6.3-1.6-.3-.4 2 3.4.7.3-1.1zm-2.4 1.3l-.7 1.9 3.1 4.9-4.2-1.4-.7 2.1 7.1 2.4.6-1.9-3.1-4.9 4.2 1.4.7-2.1-7-2.4zm.4 18.4c.9-1.8.6-3.6-.8-4.8l.5-.9 2.5 1.3 1-1.9-6.7-3.4-1 1.9 2.6 1.3-.5.9c-1.8-.5-3.5.3-4.4 2.1-1.1 2.1-.4 4.3 1.6 5.3 1.9 1 4.1.3 5.2-1.8zm-5.3-2.7c.5-.9 1.5-1.3 2.7-.7 1.2.6 1.5 1.7 1 2.6-.5.9-1.5 1.3-2.7.7-1.2-.6-1.5-1.7-1-2.6z" fill="#3f4245"/></symbol><symbol viewBox="0 0 580 400" id="callback-text-start" xmlns="http://www.w3.org/2000/svg"><path fill="#fff" id="bcanvas_background" d="M-1-1h582v402H-1z"/><style>.bst0{fill:#3f4245}</style><g transform="rotate(-180 290 200)" id="bsvg_45"><path id="bsvg_5" d="M314.993 249.708l-2.994-6.127-1.392.696 2.437 4.943-2.785 1.323-2.437-4.943-1.392.696 2.994 6.127 5.569-2.715z" class="bst0"/><path id="bsvg_6" d="M303.088 247.201c-1.601.488-2.367 1.95-1.88 3.481.488 1.532 2.02 2.158 3.551 1.671 1.601-.487 2.367-1.95 1.88-3.48-.488-1.533-1.95-2.229-3.55-1.672zm.348 1.184c.697-.21 1.462.07 1.74.974.28.836-.069 1.532-.835 1.81-.696.21-1.462-.07-1.74-.974-.209-.905.14-1.601.835-1.81z" class="bst0"/><path id="bsvg_7" d="M299.747 253.537l-.279-2.089c-.14-.975-.278-1.88.487-2.019h.21l-.14-1.253h-.766c-1.253.209-1.322 1.601-1.044 3.411l.14.905-1.602.279-.766-3.899-1.462.279.975 5.151 4.247-.765z" class="bst0"/><path id="bsvg_8" d="M289.443 254.72l1.253-3.62 1.671 3.48 1.532-.069-2.576-5.152v-.07c.209-.487.417-.695.835-.695.279 0 .627.07.905.278l.488-1.114c-.349-.278-.975-.418-1.462-.418-.975.07-1.671.488-2.089 1.741l-2.019 5.709 1.462-.07z" class="bst0"/><path id="bsvg_9" d="M283.456 254.442l.14-2.228a3.13 3.13 0 011.113-.21c.627.07.975.349.905.976l-.07 1.531 1.532.07.07-1.671c.07-1.392-.627-2.019-2.02-2.089-.556-.07-1.044.07-1.461.21l.139-1.95-1.532-.07-.348 5.222 1.532.209z" class="bst0"/><path id="bsvg_10" d="M281.089 248.872l-1.393-.278-3.063 2.576.557-3.064-1.462-.278-.974 5.152 1.392.278 3.063-2.576-.557 3.063 1.462.279.975-5.152z" class="bst0"/><path id="bsvg_11" d="M268.975 251.03l4.804 1.532.348-1.184-1.67-.557 1.252-3.829-1.462-.487-1.253 3.83-1.67-.558-.349 1.253z" class="bst0"/><path id="bsvg_12" d="M265.494 247.619l1.184.557-.696 1.532 1.392.626 2.158-4.804-2.367-1.113c-1.323-.627-2.367-.349-2.854.696-.418 1.044-.07 1.949 1.183 2.506zm1.393-2.089l.905.418-.627 1.392-.905-.417c-.557-.279-.766-.557-.487-1.044.139-.557.557-.627 1.114-.349z" class="bst0"/><path id="bsvg_13" d="M257.976 238.638l-1.462-1.044v3.342l-2.994.974 1.323.975 2.367-.836.696.488-1.184 1.67 1.254.906 3.063-4.247-1.253-.905-1.184 1.601-.626-.487v-2.437z" class="bst0"/><path id="bsvg_14" d="M254.564 235.436c-1.183-1.114-2.854-1.184-3.968 0-1.114 1.183-.975 2.784.278 3.968 1.184 1.114 2.855 1.184 3.969 0 1.044-1.114.905-2.785-.279-3.968zm-.835.905c.557.487.626 1.323 0 1.95-.627.626-1.393.626-1.95.138-.556-.487-.626-1.322 0-1.949s1.393-.627 1.95-.14z" class="bst0"/><path id="bsvg_15" d="M251.78 232.651l-.975-1.183-1.532 1.253-1.462-1.74 1.532-1.254-.975-1.183-4.038 3.341.975 1.184 1.601-1.323 1.462 1.74-1.601 1.323.975 1.184 4.038-3.342z" class="bst0"/><path id="bsvg_16" d="M246.628 225.41c-.557-.904-1.462-1.392-2.367-1.322l.07 1.323c.556 0 .974.209 1.252.626.418.627.279 1.462-.487 1.95s-1.531.278-1.95-.418c-.278-.418-.278-.905 0-1.392l-1.183-.697c-.557.766-.487 1.74.14 2.715.905 1.462 2.506 1.88 3.829 1.045 1.322-.766 1.6-2.367.696-3.83z" class="bst0"/><path id="bsvg_17" d="M238.552 221.164l3.829-.14-2.576 2.855.696 1.392 3.83-4.316h.069c.487 0 .766.14.975.487.139.279.139.627.07.905l1.183.07c.139-.418.07-1.044-.21-1.531-.417-.836-1.043-1.323-2.436-1.254l-6.057.21.627 1.322z" class="bst0"/><path id="bsvg_18" d="M237.369 218.031l2.018-.557c.975-.278 1.81-.487 2.089.21 0 .069.07.138.07.208l1.183-.279c0-.278-.07-.557-.14-.765-.417-1.253-1.74-1.114-3.55-.627l-.905.209-.487-1.601 3.829-1.253-.487-1.462-5.013 1.6 1.393 4.317z" class="bst0"/><path id="bsvg_19" d="M236.742 208.633l.278 1.322-1.67.279.278 1.462 5.152-.975-.488-2.576c-.278-1.462-1.113-2.158-2.227-1.949-1.045.209-1.532 1.044-1.323 2.437zm2.576-.14l.209.975-1.462.279-.14-.975c-.208-.557-.07-.905.418-1.044.557-.07.836.208.975.765z" class="bst0"/><path id="bsvg_20" d="M234.375 200.766l.348 5.012h1.253l-.14-1.74 3.97-.348-.07-1.532-3.969.348-.139-1.74h-1.253z" class="bst0"/><path id="bsvg_21" d="M234.514 197.006c-.07.836.14 1.671.487 2.298l1.114-.488c-.278-.417-.417-.974-.417-1.531.07-.836.417-1.184 1.114-1.184l-.07 1.184c-.07 1.601.557 2.297 1.462 2.297.905.07 1.601-.626 1.67-1.88.07-.765-.208-1.322-.626-1.6h.627l.07-1.393-2.994-.07c-1.601-.139-2.367.766-2.437 2.367zm4.316.348c0 .557-.278.836-.696.836-.348 0-.626-.279-.557-.975l.07-1.044h.557c.487.209.696.696.626 1.183z" class="bst0"/><path id="bsvg_22" d="M239.875 188.095l-3.968-.696-.279 1.532 3.968.696-.348 2.088-3.968-.696-.209 1.462 5.152.905.766-4.455 1.114.209.278-1.393-2.367-.418-.14.766z" class="bst0"/><path id="bsvg_23" d="M241.546 187.12l.417-1.322-2.227-3.342 2.993.975.487-1.462-5.012-1.601-.418 1.322 2.158 3.342-2.993-.975-.488 1.462 5.083 1.602z" class="bst0"/><path id="bsvg_24" d="M240.989 174.38c-.627 1.254-.348 2.507.626 3.342l-.278.627-1.74-.836-.627 1.393 4.734 2.297.626-1.392-1.81-.905.348-.627c1.253.279 2.437-.278 3.064-1.532.696-1.462.208-2.993-1.184-3.69-1.532-.695-3.063-.139-3.76 1.323zm3.76 1.81c-.349.627-1.045.906-1.88.557-.836-.417-1.045-1.113-.766-1.81.348-.626 1.044-.905 1.88-.557.835.418 1.044 1.114.765 1.81z" class="bst0"/><path id="bsvg_25" d="M266.12 149.736l2.855 6.196 1.393-.627-2.298-5.013 2.785-1.322 2.297 5.012 1.393-.626-2.855-6.196-5.57 2.576z" class="bst0"/><path id="bsvg_26" d="M277.956 152.52c1.601-.487 2.437-1.88 1.95-3.411-.488-1.532-1.95-2.228-3.551-1.74-1.601.487-2.437 1.88-1.95 3.41.488 1.463 1.95 2.229 3.551 1.741zm-.348-1.253c-.696.209-1.462-.14-1.74-.975s.139-1.531.835-1.81c.696-.208 1.462.14 1.67.975s-.069 1.601-.765 1.81z" class="bst0"/><path id="bsvg_27" d="M281.437 146.185l.278 2.089c.14.974.21 1.88-.487 2.018h-.209l.14 1.254h.765c1.253-.21 1.393-1.532 1.114-3.412l-.07-.905 1.602-.278.626 3.968 1.532-.278-.835-5.152-4.456.696z" class="bst0"/><path id="bsvg_28" d="M291.74 145.28l-1.322 3.62-1.602-3.48-1.6.069 2.436 5.221v.07c-.209.487-.418.696-.836.696-.278 0-.626-.07-.835-.278l-.557.974c.348.279.975.418 1.462.418.975-.07 1.671-.418 2.089-1.74l2.227-5.64-1.462.07z" class="bst0"/><path id="bsvg_29" d="M297.728 145.698l-.21 2.227c-.347.07-.695.14-1.113.07-.627-.07-.975-.348-.905-.975l.14-1.531-1.533-.14-.139 1.671c-.139 1.393.557 2.02 1.95 2.159.557.07 1.044-.07 1.462-.21l-.14 1.95 1.532.14.418-5.222-1.462-.14z" class="bst0"/><path id="bsvg_30" d="M300.025 151.337l1.392.278 3.133-2.506-.626 3.063 1.462.348 1.114-5.151-1.393-.279-3.202 2.437.696-2.994-1.462-.348-1.114 5.152z" class="bst0"/><path id="bsvg_31" d="M312.139 149.387l-4.804-1.67-.418 1.183 1.671.557-1.323 3.76 1.462.487 1.323-3.76 1.67.557.419-1.114z" class="bst0"/><path id="bsvg_32" d="M315.55 152.868l-1.184-.557.697-1.531-1.393-.627-2.297 4.734 2.367 1.184c1.323.626 2.367.418 2.854-.627.557-1.044.14-1.95-1.044-2.576zm-1.392 2.089l-.905-.418.626-1.392.905.418c.557.278.696.626.487 1.044-.208.557-.626.626-1.113.348z" class="bst0"/><path id="bsvg_33" d="M322.86 161.988l1.462 1.114.07-3.341 2.993-.905-1.323-.975-2.367.766-.626-.488 1.253-1.6-1.184-.906-3.202 4.177 1.183.905 1.184-1.601.626.487-.07 2.367z" class="bst0"/><path id="bsvg_34" d="M326.202 165.26c1.183 1.184 2.854 1.184 3.968.07 1.114-1.114 1.044-2.785-.14-3.968-1.183-1.184-2.854-1.253-3.968-.07-1.114 1.184-1.044 2.785.14 3.968zm.905-.905c-.557-.557-.557-1.322.07-1.949.626-.626 1.461-.626 1.949-.07.556.557.556 1.323-.07 1.95-.627.626-1.392.626-1.95.07z" class="bst0"/><path id="bsvg_35" d="M328.917 168.115l.905 1.183 1.531-1.183 1.393 1.81-1.532 1.183.905 1.184 4.108-3.203-.905-1.183-1.602 1.253-1.392-1.81 1.601-1.253-.905-1.184-4.107 3.203z" class="bst0"/><path id="bsvg_36" d="M333.93 175.494c.556.975 1.392 1.462 2.366 1.323l-.07-1.323c-.556 0-.974-.209-1.253-.626-.417-.696-.208-1.462.557-1.95.766-.487 1.532-.208 1.95.418.278.418.278.905 0 1.393l1.114.696c.557-.766.487-1.74-.07-2.715-.905-1.462-2.437-1.95-3.829-1.114-1.323.835-1.67 2.436-.766 3.898z" class="bst0"/><path id="bsvg_37" d="M341.935 179.88l-3.829.07 2.646-2.785-.627-1.462-3.898 4.177h-.07c-.487 0-.766-.139-.975-.487-.139-.279-.139-.627-.07-.905l-1.183-.07c-.139.418-.07 1.045.14 1.532.348.835 1.044 1.392 2.366 1.323l6.057-.07-.557-1.323z" class="bst0"/><path id="bsvg_38" d="M342.98 183.083l-2.02.557c-.974.209-1.879.417-2.088-.279 0-.07 0-.139-.07-.209l-1.183.279c0 .278.07.557.14.766.347 1.253 1.74 1.183 3.55.696l.905-.209.487 1.601-3.829 1.114.418 1.462 5.012-1.462-1.322-4.316z" class="bst0"/><path id="bsvg_39" d="M343.397 192.481l-.209-1.323 1.671-.278-.278-1.462-5.152.835.418 2.576c.209 1.462 1.044 2.158 2.158 2.02 1.114-.14 1.601-.975 1.392-2.368zm-2.506.07l-.14-.975 1.532-.278.14.974c.07.557-.07.905-.557 1.045-.557.07-.905-.21-.975-.766z" class="bst0"/><path id="bsvg_40" d="M345.625 200.348l-.209-5.082-1.253.07.07 1.74-3.969.209.07 1.531 3.968-.208.07 1.74h1.253z" class="bst0"/><path id="bsvg_41" d="M345.416 204.177c.07-.835-.07-1.67-.487-2.297l-1.114.487c.278.418.418.975.348 1.532-.07.835-.487 1.183-1.114 1.114l.07-1.184c.14-1.601-.488-2.297-1.393-2.367-.905-.07-1.67.627-1.74 1.81-.07.766.14 1.323.627 1.67l-.627-.069-.07 1.393 2.994.209c1.601.139 2.437-.766 2.506-2.298zm-4.316-.487c.07-.557.348-.836.696-.836s.627.279.557.975l-.07 1.044-.557-.07c-.487-.139-.696-.556-.626-1.113z" class="bst0"/><path id="bsvg_42" d="M339.847 212.949l3.898.766.279-1.462-3.899-.766.418-2.089 3.899.766.278-1.462-5.152-1.044-.905 4.386-1.114-.209-.278 1.392 2.367.488.209-.766z" class="bst0"/><path id="bsvg_43" d="M338.176 213.854l-.487 1.323 2.158 3.411-2.924-.975-.488 1.462 4.943 1.671.418-1.322-2.158-3.412 2.924.975.487-1.462-4.873-1.67z" class="bst0"/><path id="bsvg_44" d="M338.454 226.664c.627-1.253.418-2.506-.557-3.342l.349-.626 1.74.905.696-1.323-4.664-2.367-.696 1.323 1.81.905-.348.626c-1.254-.348-2.437.21-3.064 1.462-.765 1.462-.278 2.994 1.114 3.69 1.323.696 2.855.209 3.62-1.253zm-3.69-1.88c.349-.626 1.045-.905 1.88-.487.836.418 1.045 1.183.697 1.81-.349.626-1.045.905-1.88.487-.836-.417-1.044-1.183-.696-1.81z" class="bst0"/></g></symbol><symbol fill="none" viewBox="0 0 32 32" id="consalt-1" xmlns="http://www.w3.org/2000/svg"><path d="M24.576 21.012L32 28.436 28.436 32l-7.424-7.424a14.634 14.634 0 001.935-1.628 14.644 14.644 0 001.629-1.936z" fill="#333"/><path d="M12.766 11.699L8.965 7.897a6.171 6.171 0 013.809-1.309c1.344 0 2.688.435 3.8 1.303l-3.808 3.808zm.753 1.376l4.122-4.122a6.194 6.194 0 01-.493 8.192 6.155 6.155 0 01-3.63 1.764v-5.834zM7.9 8.961l4.114 4.114v5.832A6.155 6.155 0 018.4 17.145a6.145 6.145 0 01-1.812-4.374A6.14 6.14 0 017.9 8.961z" fill="#FFBF1C"/><path d="M3.71 3.71A12.627 12.627 0 0112.666 0c3.242 0 6.484 1.237 8.957 3.71 4.946 4.946 4.946 12.967 0 17.913a12.627 12.627 0 01-8.957 3.71 12.627 12.627 0 01-8.956-3.71c-4.947-4.947-4.947-12.967 0-17.913zm8.957 18.523a9.541 9.541 0 006.768-2.799c3.731-3.732 3.731-9.804 0-13.536-3.732-3.732-9.804-3.732-13.536 0a9.509 9.509 0 00-2.804 6.768c0 2.557.996 4.96 2.804 6.768a9.541 9.541 0 006.768 2.799z" fill="#333"/></symbol><symbol fill="none" viewBox="0 0 33 33" id="consalt-2" xmlns="http://www.w3.org/2000/svg"><path d="M33 19.237v-5.474l-3.343-.668a13.446 13.446 0 00-1.446-3.49l1.892-2.837-3.871-3.87-2.838 1.891a13.442 13.442 0 00-3.489-1.446L19.237 0h-5.474l-.668 3.342a13.475 13.475 0 00-3.49 1.447L6.769 2.897l-3.87 3.871L4.79 9.606a13.443 13.443 0 00-1.446 3.489L0 13.762v5.474l3.343.668c.316 1.227.8 2.396 1.446 3.49l-1.891 2.837 3.87 3.87 2.838-1.891a13.443 13.443 0 003.489 1.446L13.763 33h5.474l.668-3.343c1.227-.316 2.396-.8 3.49-1.446l2.837 1.892 3.87-3.871-1.891-2.837a13.443 13.443 0 001.447-3.49L33 19.237zm-16.5 5.998a8.735 8.735 0 110-17.47 8.735 8.735 0 010 17.47z" fill="#333"/><path d="M16.5 11L13 14.115c1.859 1.18 5.139 1.18 7 0L16.5 11zM13 20.852A7.088 7.088 0 0016 22v-5.992c-1.1-.13-2.132-.476-3-1.008v5.852zM17 22a7.088 7.088 0 003-1.148V15c-.868.532-1.9.877-3 1.008V22z" fill="#FFBF1C"/></symbol><symbol fill="none" viewBox="0 0 34 22" id="erp-logo-1" xmlns="http://www.w3.org/2000/svg"><path d="M28.055 16.17a2.808 2.808 0 00-2.805 2.805 2.808 2.808 0 002.805 2.805 2.808 2.808 0 002.805-2.805 2.809 2.809 0 00-2.805-2.805zm0 3.63a.826.826 0 11.001-1.652.826.826 0 01-.001 1.652z" fill="#FF4D4D"/><path d="M27.787 4.51H22.94a.66.66 0 00-.66.66v12.87c0 .364.296.66.66.66h.7a.658.658 0 00.659-.56c.259-1.984 1.842-3.215 3.757-3.215s3.498 1.231 3.757 3.216c.042.324.33.559.658.559h.7a.66.66 0 00.66-.66v-6.435a.658.658 0 00-.155-.423l-5.383-6.435a.66.66 0 00-.506-.237zM23.6 9.79v-3.3a.66.66 0 01.66-.66h2.908a.66.66 0 01.506.238l2.75 3.3a.66.66 0 01-.507 1.082H24.26a.66.66 0 01-.66-.66zM1.49 18.7h1.69a.658.658 0 00.658-.559c.26-1.985 1.842-3.215 3.757-3.215s3.498 1.23 3.757 3.215a.66.66 0 00.659.56h8.29a.66.66 0 00.66-.66V1.54a.66.66 0 00-.66-.66H1.49a.66.66 0 00-.66.66v16.5c0 .364.294.66.66.66z" fill="#333"/><path d="M7.595 16.17a2.808 2.808 0 00-2.805 2.805 2.808 2.808 0 002.805 2.805 2.808 2.808 0 002.805-2.805 2.809 2.809 0 00-2.805-2.805zm0 3.63a.826.826 0 11.001-1.652.826.826 0 01-.001 1.652z" fill="#FF4D4D"/></symbol><symbol fill="none" viewBox="0 0 31 36" id="erp-logo-2" xmlns="http://www.w3.org/2000/svg"><path d="M24.83 10.83v23h5v-23h-5z" fill="#333"/><path d="M30.115 32.949h-7.79V20.806h-7.72V18.04s0-1.252-1.566-1.252c-1.565 0-1.565 1.252-1.565 1.252v2.767H8.97V18.04s0-1.252-1.566-1.252c-1.565 0-1.565 1.252-1.565 1.252v2.767H2.044V32.95H.83v2.833h30.105V32.95h-.82zM8.521 28.902H5.687v-2.833h2.834v2.833zm4.856 0h-2.833v-2.833h2.833v2.833zm4.858 0h-2.833v-2.833h2.833v2.833z" fill="#333"/><path d="M27.33 6.83v2.5c-5-5-9 0-11.5.5-8.5 1.5-8.5-5.5-6.5-7.5 3.5-3.5 10-1.5 11 2 2-3 6.5-.5 7 2.5z" fill="#FF4D4D"/></symbol><symbol fill="none" viewBox="0 0 36 36" id="erp-logo-3" xmlns="http://www.w3.org/2000/svg"><g clip-path="url(#gclip0)"><path d="M21.708 18.147c4.774 0 8.657-3.884 8.657-8.659 0-4.774-3.883-8.658-8.657-8.658s-8.659 3.884-8.659 8.658c0 4.775 3.884 8.659 8.659 8.659zM20.682 4.399v-.235a1.025 1.025 0 112.051 0V4.4a2.711 2.711 0 012.138 2.647 1.026 1.026 0 01-2.05 0 .657.657 0 00-.657-.657h-.92a.657.657 0 00-.39 1.184l.854.631L23.78 9.74a2.718 2.718 0 011.097 2.158v.01a2.69 2.69 0 01-.78 1.92 2.688 2.688 0 01-1.364.746v.24a1.025 1.025 0 11-2.05 0v-.237a2.676 2.676 0 01-1.333-.72 2.686 2.686 0 01-.805-1.91 1.025 1.025 0 011.019-1.03h.007c.563 0 1.022.454 1.025 1.018a.655.655 0 00.66.652l.918-.005a.656.656 0 00.652-.661v-.01a.66.66 0 00-.266-.523l-.852-.63-2.074-1.534a2.72 2.72 0 01-1.096-2.176c0-1.3.92-2.388 2.144-2.648z" fill="#FF4D4D"/><path d="M7.679 23.074a.955.955 0 00-1.305-.35L1.55 25.508a.957.957 0 00-.35 1.306l4.93 8.538a.956.956 0 001.305.35l4.823-2.785a.955.955 0 00.35-1.305l-4.93-8.538zm27.637-1.704a1.437 1.437 0 00-2.006-.327c-1.954 1.408-5.706 4.11-6.004 4.326a3.72 3.72 0 01-2.42.886h-4.912a1.025 1.025 0 110-2.05h5.253a1.36 1.36 0 001.358-1.416c-.03-.734-.657-1.303-1.39-1.303h-4a6.559 6.559 0 00-4.791-2.066c-2.6 0-5.186 1.638-6.258 3.824l4.194 7.265h7.868a8.832 8.832 0 004.406-1.166c.464-.266.961-.587 1.5-.974 2.257-1.621 6.872-4.99 6.875-4.992a1.437 1.437 0 00.327-2.008z" fill="#333"/></g><defs><clipPath id="gclip0"><path fill="#fff" transform="translate(.83 .83)" d="M0 0h35v35H0z"/></clipPath></defs></symbol><symbol fill="none" viewBox="0 0 31 31" id="erp-logo-4" xmlns="http://www.w3.org/2000/svg"><g clip-path="url(#hclip0)"><path d="M30.425 10.683L16.363.995a.94.94 0 00-1.064 0L1.236 10.683a.936.936 0 00-.406.772V29.58c0 .69.56 1.25 1.25 1.25h2.5v-15c0-.69.56-1.25 1.25-1.25h20c.69 0 1.25.56 1.25 1.25v15h2.5c.69 0 1.25-.56 1.25-1.25V11.455a.938.938 0 00-.405-.772z" fill="#333"/><path d="M12.393 24.58v1.938a.938.938 0 01-1.875 0V24.58H8.33a.625.625 0 00-.625.625v5c0 .345.28.625.625.625h6.25c.345 0 .625-.28.625-.625v-5a.625.625 0 00-.625-.625h-2.187z" fill="#FF4D4D"/><path d="M21.143 24.58v1.938a.938.938 0 01-1.875 0V24.58H17.08a.625.625 0 00-.625.625v5c0 .345.28.625.625.625h6.25c.345 0 .625-.28.625-.625v-5a.625.625 0 00-.625-.625h-2.187z" fill="#333"/><path d="M16.768 17.08v1.938a.938.938 0 01-1.875 0V17.08h-2.188a.625.625 0 00-.625.625v5c0 .345.28.625.625.625h6.25c.345 0 .625-.28.625-.625v-5a.625.625 0 00-.625-.625h-2.187z" fill="#FF4D4D"/></g><defs><clipPath id="hclip0"><path fill="#fff" transform="translate(.83 .83)" d="M0 0h30v30H0z"/></clipPath></defs></symbol><symbol fill="none" viewBox="0 0 31 31" id="erp-logo-5" xmlns="http://www.w3.org/2000/svg"><path d="M30.83 29.072h-1.758V11.377H23.74v17.695h-1.758V18.408H16.71v10.664h-1.758v-14.18H9.678v14.18H7.92v-8.906H2.588v8.906H.83v1.758h30v-1.758z" fill="#333"/><path d="M30.83 7.861V.831h-7.09v1.757h4.09l-8.484 8.425-7.032-7.031L1.087 15.15l1.243 1.243 9.984-9.926 7.032 7.032 9.726-9.668v4.03h1.758z" fill="#FF4D4D"/></symbol><symbol viewBox="0 0 28.3 59.8" id="fb" xmlns="http://www.w3.org/2000/svg"><path d="M23.2 9.9h5.2V.4c-.9-.1-4-.4-7.5-.4C13.3 0 8.2 5 8.2 14.1v8.4H0v10.6h8.2v26.8h10.1V33.1h7.9l1.3-10.6h-9.2v-7.3c0-3.2.8-5.3 4.9-5.3z" fill="#fff"/></symbol><symbol id="inst" viewBox="0 0 59.8 59.8" xml:space="preserve" xmlns="http://www.w3.org/2000/svg"><style>.kst0{fill:#fff}</style><path class="kst0" d="M43.3 0H16.5C7.4 0 0 7.4 0 16.5v26.8c0 9.1 7.4 16.5 16.5 16.5h26.8c9.1 0 16.5-7.4 16.5-16.5V16.5C59.8 7.4 52.4 0 43.3 0zm11.2 43.3c0 6.2-5 11.2-11.2 11.2H16.5c-6.2 0-11.2-5-11.2-11.2V16.5c0-6.2 5-11.2 11.2-11.2h26.8c6.2 0 11.2 5 11.2 11.2v26.8z"/><path class="kst0" d="M29.9 14.5c-8.5 0-15.4 6.9-15.4 15.4s6.9 15.4 15.4 15.4 15.4-6.9 15.4-15.4-6.9-15.4-15.4-15.4zm0 25.5c-5.6 0-10.1-4.5-10.1-10.1s4.5-10.1 10.1-10.1S40 24.3 40 29.9 35.5 40 29.9 40zM46 10c-1 0-2 .4-2.7 1.1-.7.7-1.1 1.7-1.1 2.8 0 1 .4 2 1.1 2.8.7.7 1.7 1.1 2.7 1.1 1 0 2-.4 2.8-1.1.7-.7 1.1-1.7 1.1-2.8 0-1-.4-2-1.1-2.8C48 10.4 47 10 46 10z"/></symbol><symbol fill="none" viewBox="0 0 30 26" id="integr-1" xmlns="http://www.w3.org/2000/svg"><path d="M24.966 1.5c0 .99-.869 1.412-1.303 1.499H3.846c-.26.065-.782.365-.782 1.043 0 .677.521 1.02.782 1.108h23.141c1.617.156 2.108 1.542 2.151 2.216v2.999h-5.997c-1.477.217-4.433 1.551-4.433 5.15 0 3.598 2.956 5.019 4.433 5.28h5.997v2.737c-.208 1.721-1.52 2.325-2.15 2.412H3.715C.952 25.423.086 23.25 0 22.23V3.65C.365.887 2.412.065 3.39 0h20.273c.434.087 1.303.508 1.303 1.5z" fill="#333"/><path d="M29.073 18.672v-6.258c-1.89-.022-5.684-.052-5.737 0-.456 0-2.607.782-2.607 3.129 0 1.877 1.738 2.868 2.607 3.129h5.737z" fill="#4BC357"/></symbol><symbol fill="none" viewBox="0 0 40 24" id="integr-2" xmlns="http://www.w3.org/2000/svg"><path d="M4.494 1.642v16.49h30.84V1.779C35.22.411 34.088.023 33.537 0H6.22C5.07.11 4.59 1.14 4.494 1.642zm34.404 17.885H.62a.668.668 0 00-.62.411v.823a3.981 3.981 0 003.72 2.95h32.466c1.984 0 3.151-1.784 3.487-2.675v-.823c-.062-.55-.542-.686-.775-.686z" fill="#333"/><path d="M26.687 20.146H12.93c-.133 0-.204.112-.222.168v.336c.245.96.993 1.201 1.336 1.201h11.668c.713 0 1.133-.726 1.253-1.09v-.335c-.022-.224-.195-.28-.278-.28z" fill="#4BC357"/></symbol><symbol fill="none" viewBox="0 0 37 22" id="integr-3" xmlns="http://www.w3.org/2000/svg"><path d="M9.004 15.088v6.814h18.251v-6.814c-.648-2.531-2.541-3.164-3.406-3.164h-11.52c-2.206.26-3.136 2.218-3.325 3.164z" fill="#333"/><path d="M0 15.818v6.084h6.49v-6.976c.13-1.104.648-1.758.81-1.947H2.92C.844 13.433.108 15.06 0 15.818zm36.34 0v6.084h-6.489v-6.976c-.13-1.104-.648-1.758-.81-1.947h4.38c2.076.454 2.812 2.082 2.92 2.839z" fill="#4BC357"/><path d="M3.968 7.793c.268 3.056 2.823 3.865 4.066 3.888 1.197-1.536 3.068-2.108 3.854-2.201.7-2.827.322-4.295-1.44-5.544-1.41-1-3.18-.68-3.887-.395a4.09 4.09 0 00-2.593 4.252zm28.445.065c-.324 3.05-2.893 3.813-4.137 3.813-1.168-1.558-3.028-2.163-3.812-2.271-.65-2.84-.244-4.3 1.541-5.516 1.428-.974 3.19-.622 3.894-.325a4.09 4.09 0 012.514 4.3z" fill="#333"/><circle cx="18.171" cy="4.705" r="4.705" fill="#333"/></symbol><symbol viewBox="0 0 51.9 36.1" id="logo" xmlns="http://www.w3.org/2000/svg"><style/><path d="M25.9 36.1L0 0h31.1v3H5.8l20.1 27.9L46 3h-6.8V0h12.6z"/><path d="M27.9 32.6L16.4.5H2.9l24.1 33 .9-.9z"/></symbol><symbol id="mail" viewBox="0 0 60 35" xml:space="preserve" xmlns="http://www.w3.org/2000/svg"><style>.pst1{fill:#3f4245}</style><path class="pst1" d="M60 35H0V0h60v35zM1 34h58V1H1v33z"/><path class="pst1" d="M30.5 22.7L.4.9 1 .1l29.5 21.4L59.4.1l.6.8z"/><path d="M1.4 34.5l23.1-17.1"/><path transform="rotate(-36.419 12.983 25.976)" class="pst1" d="M-1.4 25.5h28.7v1H-1.4z"/><path d="M58.8 34.3L36.5 18"/><path transform="rotate(-53.864 47.68 26.106)" class="pst1" d="M47.2 12.3h1v27.6h-1z"/></symbol><symbol fill="none" viewBox="0 0 33 32" id="prod-1c-1" xmlns="http://www.w3.org/2000/svg"><path d="M4.476 10.538L2.495 22.056h27.879l-1.98-11.518C27.863 8.6 26.282 8.024 25.5 8h-8l-8.37.043H7.484c-1.879.176-2.788 1.737-3.008 2.495z" fill="#333"/><path d="M19.478 5.143V8h3.044V5.143h4.87L28 4.57v-4L27.391 0H14.61L14 .571v4l.609.572h4.87z" fill="#0085FF"/><path d="M1.394 24.037c-.998.176-1.345.954-1.394 1.32v4.256a1.817 1.817 0 001.394 1.468h29.934c1.056-.118 1.467-.979 1.54-1.395v-4.181c-.117-1.057-.929-1.419-1.32-1.468H1.394z" fill="#333"/><path d="M14.82 11.565H7.557c-.352 0-.49.342-.514.513v6.017c.059.41.367.513.514.513h7.263c.352 0 .44-.342.44-.514v-6.016c-.058-.293-.318-.464-.44-.513zm3.962 2.348v-2.348h2.348v2.348h-2.348zm4.695 0v-2.348h2.348v2.348h-2.348zm0 4.695V16.26h2.348v2.348h-2.348zm-4.695 0V16.26h2.348v2.348h-2.348z" fill="#F0F0F0"/></symbol><symbol fill="none" viewBox="0 0 32 38" id="prod-1c-2" xmlns="http://www.w3.org/2000/svg"><path d="M7.928 13.286v6H24v-6c-.572-2.229-2.238-2.786-3-2.786H10.857c-1.943.229-2.762 1.952-2.929 2.786zM0 13.928v5.358h5.714v-6.143c.115-.972.572-1.548.715-1.715H2.57c-1.828.4-2.476 1.834-2.571 2.5zm32 0v5.358h-5.714v-6.143c-.115-.972-.572-1.548-.715-1.715h3.858c1.828.4 2.476 1.834 2.571 2.5zM3.494 6.862c.236 2.69 2.486 3.404 3.58 3.424 1.054-1.353 2.702-1.856 3.394-1.939.617-2.489.283-3.78-1.268-4.88-1.242-.88-2.8-.6-3.423-.35a3.6 3.6 0 00-2.283 3.745zm25.047.058c-.285 2.685-2.547 3.357-3.642 3.357-1.029-1.372-2.667-1.905-3.358-2-.57-2.5-.214-3.786 1.358-4.857 1.257-.857 2.81-.548 3.428-.286a3.6 3.6 0 012.214 3.786z" fill="#333"/><circle cx="16" cy="4.143" r="4.143" fill="#333"/><path d="M10.571 21.572H0v2.214l4.571.571c.343 1.543 1.048 2.786 1.358 3.215L3 31.213 6.286 34.5 10 31.429c.857.8 2.5 1.285 3.214 1.428l.5 4.715h4.572l.571-4.715c1.543-.285 2.786-.976 3.214-1.285l3.643 2.928L29 31.286 26 27.5c.629-.457 1.262-2.333 1.5-3.214l4.5-.5V21.57H21.357c-.071 1.786-1.243 5.358-5.357 5.358s-5.333-3.572-5.429-5.357z" fill="#0085FF"/></symbol><symbol fill="none" viewBox="0 0 33 30" id="prod-1c-3" xmlns="http://www.w3.org/2000/svg"><path d="M31.066 0H1.934A1.936 1.936 0 000 1.934V21.14c0 1.066.868 1.933 1.934 1.933h29.132A1.936 1.936 0 0033 21.141V1.934A1.936 1.936 0 0031.066 0z" fill="#333"/><path d="M28.418 3H4.582C3.71 3 3 3.64 3 4.425v14.15C3 19.361 3.71 20 4.582 20h23.836C29.29 20 30 19.36 30 18.575V4.425C30 3.639 29.29 3 28.418 3z" fill="#F0F0F0"/><path d="M26.813 27.844h-5.221v-2.836H11.408v2.836h-5.22a.967.967 0 000 1.933h20.625a.967.967 0 000-1.933z" fill="#333"/><path d="M12.522 10.517h-2.65a.444.444 0 00-.444.442v6.628c0 .246.2.443.443.443h2.651c.246 0 .443-.2.443-.443V10.96c0-.246-.2-.442-.443-.442zm5.304-4.86h-2.652a.442.442 0 00-.442.44v11.49c0 .246.199.443.442.443h2.652c.245 0 .442-.2.442-.443V6.1c0-.246-.2-.443-.442-.443zm5.303 3.534h-2.651a.44.44 0 00-.443.443v7.953c0 .246.2.443.443.443h2.65c.247 0 .443-.2.443-.443V9.634a.442.442 0 00-.442-.443z" fill="#0085FF"/></symbol><symbol viewBox="0 0 15 15" id="search-1" xmlns="http://www.w3.org/2000/svg"><path d="M14.52 13.663L10.95 9.95a6.037 6.037 0 001.422-3.894A6.063 6.063 0 006.316 0 6.063 6.063 0 00.259 6.056a6.063 6.063 0 006.057 6.057 5.991 5.991 0 003.47-1.096l3.596 3.74c.15.157.353.243.57.243a.79.79 0 00.57-1.337zM6.317 1.58a4.481 4.481 0 014.476 4.476 4.481 4.481 0 01-4.476 4.477A4.481 4.481 0 011.84 6.056 4.481 4.481 0 016.316 1.58z"/></symbol><symbol fill="none" viewBox="0 0 34 34" id="sup-1" xmlns="http://www.w3.org/2000/svg"><path d="M33.03 23.256c0-4.118-2.363-7.793-5.902-9.581-.11 7.896-6.51 14.297-14.407 14.407 1.788 3.538 5.463 5.9 9.581 5.9 1.931 0 3.809-.514 5.458-1.49l5.222 1.444-1.444-5.222a10.688 10.688 0 001.491-5.458z" fill="#AA4EF2"/><path d="M25.414 13.675C25.414 6.676 19.72.983 12.72.983 5.723.983.03 6.676.03 13.675c0 2.28.607 4.502 1.76 6.451L.076 26.32l6.194-1.713a12.653 12.653 0 006.451 1.76c6.999 0 12.693-5.693 12.693-12.692zm-14.64-2.954H8.826a3.9 3.9 0 013.895-3.895 3.9 3.9 0 013.896 3.895c0 1.09-.462 2.138-1.267 2.875l-1.655 1.514v1.519h-1.947v-2.377l2.287-2.093a1.95 1.95 0 00-1.314-3.385 1.95 1.95 0 00-1.947 1.947zm.974 7.856h1.947v1.947h-1.947v-1.947z" fill="#333"/></symbol><symbol fill="none" viewBox="0 0 41 40" id="sup-2" xmlns="http://www.w3.org/2000/svg"><path d="M6.849 27.244a.955.955 0 00-1.305-.35L.72 29.678a.957.957 0 00-.35 1.306l4.93 8.538a.956.956 0 001.306.35l4.823-2.785a.955.955 0 00.35-1.305l-4.93-8.538zm27.637-1.704a1.437 1.437 0 00-2.006-.327c-1.954 1.408-5.706 4.11-6.004 4.326a3.72 3.72 0 01-2.42.886h-4.912a1.025 1.025 0 110-2.05h5.253a1.36 1.36 0 001.358-1.417c-.03-.733-.657-1.302-1.39-1.302h-4a6.559 6.559 0 00-4.791-2.066c-2.6 0-5.186 1.638-6.259 3.824l4.195 7.265h7.868a8.832 8.832 0 004.406-1.166c.464-.266.961-.587 1.5-.974 2.257-1.621 6.872-4.99 6.875-4.992a1.437 1.437 0 00.327-2.008z" fill="#333"/><path d="M19.267 19.915c.08.196 1.366.805 2 1.085h.266v-3.619c-3-1.61-3.02-4.082-3.02-4.848 0-3.057 2.12-4.445 3.32-4.713l.6-.14-.066 4.293c-.034.35.3 1.575 1.633 1.575 1.067 0 1.567-.982 1.567-1.575V7.68c.346.056.589.116.666.14 1.234.454 3.115 2.141 3.115 4.86 0 2.72-1.826 4.188-2.948 4.701V21h.2c.56-.056 1.478-.583 1.867-.84.266-.28.533-.116.633 0l.667.7a.3.3 0 00.433 0l1.767-1.89c.106-.083.044-.244 0-.314l-.8-.875a.543.543 0 010-.49c.56-.755.989-2.204 1.133-2.834.08-.308.322-.385.433-.385h.967a.32.32 0 00.3-.314v-2.52c0-.28-.2-.35-.3-.35h-.967c-.32 0-.444-.303-.466-.454-.134-.98-.767-2.228-1.067-2.73a.484.484 0 010-.559l.7-.735c.16-.14.067-.338 0-.42l-1.767-1.854c-.133-.14-.277-.058-.333 0l-.767.805c-.186.168-.433.07-.533 0-1.167-.84-2.267-1.085-2.667-1.19a.47.47 0 01-.366-.49v-.98c-.08-.251-.256-.29-.334-.28H22.8c-.213 0-.289.187-.3.28v.98c-.027.336-.233.467-.333.49-1.04.224-2.256.887-2.734 1.19-.24.168-.5.07-.6 0l-.733-.77c-.107-.112-.244-.047-.3 0l-1.767 1.82c-.106.083-.066.221-.033.28l.8.909c.107.252.044.455 0 .525-.9 1.4-1.1 2.869-1.1 2.904-.08.252-.344.361-.467.385h-.966c-.187 0-.256.116-.267.175v2.589c.027.224.189.303.267.315H15.4c.213.111.267.28.267.35.053.979.822 2.46 1.2 3.078l-.067.385c-.233.257-.707.77-.733.77a.246.246 0 000 .28l1.733 1.82c.187.111.322.022.367-.036l.766-.805a.325.325 0 01.334 0z" fill="#AA4EF2"/></symbol><symbol viewBox="0 0 59.9 49.9" id="tg" xmlns="http://www.w3.org/2000/svg"><path d="M23.5 32.9l-1 13.9c1.4 0 2-.6 2.8-1.3l6.6-6.3 13.8 10.1c2.5 1.4 4.3.7 5-2.3l9-42.3C60.5 1 58.4-.5 55.9.4L2.8 20.6C-.8 22-.8 24 2.2 24.9l13.6 4.2L47.3 9.4c1.5-1 2.8-.4 1.7.5l-25.5 23z" fill="#fff"/></symbol><symbol viewBox="0 0 59.7 41.8" id="yt" xmlns="http://www.w3.org/2000/svg"><path d="M58.5 6.5C57.8 4 55.8 2 53.2 1.3 48.6 0 29.9 0 29.9 0S11.2 0 6.5 1.2C4 1.9 1.9 4 1.2 6.5 0 11.2 0 20.9 0 20.9s0 9.7 1.2 14.4c.7 2.6 2.7 4.6 5.3 5.3 4.7 1.3 23.4 1.3 23.4 1.3s18.7 0 23.4-1.2c2.6-.7 4.6-2.7 5.3-5.3 1.2-4.7 1.2-14.4 1.2-14.4s0-9.8-1.3-14.5zM23.9 29.9V12l15.5 9-15.5 8.9z" fill="#fff"/></symbol></svg>