<?xml version="1.0" encoding="utf-8"?>
<!-- Generator: Adobe Illustrator 25.3.1, SVG Export Plug-In . SVG Version: 6.00 Build 0)  -->
<svg version="1.1" id="Слой_1" xmlns="http://www.w3.org/2000/svg" xmlns:xlink="http://www.w3.org/1999/xlink" x="0px" y="0px"
	 viewBox="0 0 159.8 157.4" style="enable-background:new 0 0 159.8 157.4;" xml:space="preserve">
<style type="text/css">
	.st0{fill:#3F4245;}
</style>
<path class="st0" d="M115.8,150.1l-4.3-8.8l-2,1l3.5,7.1l-4,1.9l-3.5-7.1l-2,1l4.3,8.8L115.8,150.1z"/>
<path class="st0" d="M98.7,146.5c-2.3,0.7-3.4,2.8-2.7,5c0.7,2.2,2.9,3.1,5.1,2.4c2.3-0.7,3.4-2.8,2.7-5
	C103.1,146.7,101,145.7,98.7,146.5z M99.2,148.2c1-0.3,2.1,0.1,2.5,1.4c0.4,1.2-0.1,2.2-1.2,2.6c-1,0.3-2.1-0.1-2.5-1.4
	C97.7,149.5,98.2,148.5,99.2,148.2z"/>
<path class="st0" d="M93.9,155.6l-0.4-3c-0.2-1.4-0.4-2.7,0.7-2.9c0.1,0,0.2,0,0.3,0l-0.2-1.8c-0.4,0-0.8,0-1.1,0
	c-1.8,0.3-1.9,2.3-1.5,4.9l0.2,1.3l-2.3,0.4l-1.1-5.6l-2.1,0.4l1.4,7.4L93.9,155.6z"/>
<path class="st0" d="M79.1,157.3l1.8-5.2l2.4,5l2.2-0.1l-3.7-7.4l0-0.1c0.3-0.7,0.6-1,1.2-1c0.4,0,0.9,0.1,1.3,0.4l0.7-1.6
	c-0.5-0.4-1.4-0.6-2.1-0.6c-1.4,0.1-2.4,0.7-3,2.5l-2.9,8.2L79.1,157.3z"/>
<path class="st0" d="M70.5,156.9l0.2-3.2c0.5-0.2,1.1-0.3,1.6-0.3c0.9,0.1,1.4,0.5,1.3,1.4l-0.1,2.2l2.2,0.1l0.1-2.4
	c0.1-2-0.9-2.9-2.9-3c-0.8-0.1-1.5,0.1-2.1,0.3l0.2-2.8l-2.2-0.1l-0.5,7.5L70.5,156.9z"/>
<path class="st0" d="M67.1,148.9l-2-0.4l-4.4,3.7l0.8-4.4l-2.1-0.4l-1.4,7.4l2,0.4l4.4-3.7l-0.8,4.4l2.1,0.4L67.1,148.9z"/>
<path class="st0" d="M49.7,152l6.9,2.2l0.5-1.7l-2.4-0.8l1.8-5.5l-2.1-0.7l-1.8,5.5l-2.4-0.8L49.7,152z"/>
<path class="st0" d="M44.7,147.1l1.7,0.8l-1,2.2l2,0.9l3.1-6.9l-3.4-1.6c-1.9-0.9-3.4-0.5-4.1,1C42.4,145,42.9,146.3,44.7,147.1z
	 M46.7,144.1l1.3,0.6l-0.9,2l-1.3-0.6c-0.8-0.4-1.1-0.8-0.7-1.5C45.3,143.8,45.9,143.7,46.7,144.1z"/>
<path class="st0" d="M33.9,134.2l-2.1-1.5l0,4.8l-4.3,1.4l1.9,1.4l3.4-1.2l1,0.7l-1.7,2.4l1.8,1.3l4.4-6.1l-1.8-1.3l-1.7,2.3
	l-0.9-0.7L33.9,134.2z"/>
<path class="st0" d="M29,129.6c-1.7-1.6-4.1-1.7-5.7,0c-1.6,1.7-1.4,4,0.4,5.7c1.7,1.6,4.1,1.7,5.7,0
	C30.9,133.7,30.7,131.3,29,129.6z M27.8,130.9c0.8,0.7,0.9,1.9,0,2.8c-0.9,0.9-2,0.9-2.8,0.2c-0.8-0.7-0.9-1.9,0-2.8
	S27,130.2,27.8,130.9z"/>
<path class="st0" d="M25,125.6l-1.4-1.7l-2.2,1.8l-2.1-2.5l2.2-1.8l-1.4-1.7l-5.8,4.8l1.4,1.7l2.3-1.9l2.1,2.5l-2.3,1.9l1.4,1.7
	L25,125.6z"/>
<path class="st0" d="M17.6,115.2c-0.8-1.3-2.1-2-3.4-1.9l0.1,1.9c0.8,0,1.4,0.3,1.8,0.9c0.6,0.9,0.4,2.1-0.7,2.8s-2.2,0.4-2.8-0.6
	c-0.4-0.6-0.4-1.3,0-2l-1.7-1c-0.8,1.1-0.7,2.5,0.2,3.9c1.3,2.1,3.6,2.7,5.5,1.5C18.5,119.6,18.9,117.3,17.6,115.2z"/>
<path class="st0" d="M6,109.1l5.5-0.2L7.8,113l1,2l5.5-6.2l0.1,0c0.7,0,1.1,0.2,1.4,0.7c0.2,0.4,0.2,0.9,0.1,1.3l1.7,0.1
	c0.2-0.6,0.1-1.5-0.3-2.2c-0.6-1.2-1.5-1.9-3.5-1.8l-8.7,0.3L6,109.1z"/>
<path class="st0" d="M4.3,104.6l2.9-0.8c1.4-0.4,2.6-0.7,3,0.3c0,0.1,0.1,0.2,0.1,0.3l1.7-0.4c0-0.4-0.1-0.8-0.2-1.1
	c-0.6-1.8-2.5-1.6-5.1-0.9l-1.3,0.3L4.7,100l5.5-1.8l-0.7-2.1l-7.2,2.3L4.3,104.6z"/>
<path class="st0" d="M3.4,91.1L3.8,93l-2.4,0.4l0.4,2.1l7.4-1.4l-0.7-3.7c-0.4-2.1-1.6-3.1-3.2-2.8C3.8,87.9,3.1,89.1,3.4,91.1z
	 M7.1,90.9l0.3,1.4l-2.1,0.4l-0.2-1.4C4.8,90.5,5,90,5.7,89.8C6.5,89.7,6.9,90.1,7.1,90.9z"/>
<path class="st0" d="M0,79.8l0.5,7.2L2.3,87l-0.2-2.5L7.8,84l-0.1-2.2L2,82.3l-0.2-2.5L0,79.8z"/>
<path class="st0" d="M0.2,74.4c-0.1,1.2,0.2,2.4,0.7,3.3L2.5,77c-0.4-0.6-0.6-1.4-0.6-2.2c0.1-1.2,0.6-1.7,1.6-1.7l-0.1,1.7
	c-0.1,2.3,0.8,3.3,2.1,3.3c1.3,0.1,2.3-0.9,2.4-2.7c0.1-1.1-0.3-1.9-0.9-2.3l0.9,0l0.1-2L3.7,71C1.4,70.8,0.3,72.1,0.2,74.4z
	 M6.4,74.9c0,0.8-0.4,1.2-1,1.2c-0.5,0-0.9-0.4-0.8-1.4l0.1-1.5l0.8,0C6.2,73.5,6.5,74.2,6.4,74.9z"/>
<path class="st0" d="M7.9,61.6l-5.7-1l-0.4,2.2l5.7,1l-0.5,3l-5.7-1L1,67.9l7.4,1.3l1.1-6.4l1.6,0.3l0.4-2l-3.4-0.6L7.9,61.6z"/>
<path class="st0" d="M10.3,60.2l0.6-1.9l-3.2-4.8l4.3,1.4l0.7-2.1l-7.2-2.3l-0.6,1.9L8,57.2l-4.3-1.4l-0.7,2.1L10.3,60.2z"/>
<path class="st0" d="M9.5,41.9c-0.9,1.8-0.5,3.6,0.9,4.8L10,47.6l-2.5-1.2l-0.9,2l6.8,3.3l0.9-2l-2.6-1.3l0.5-0.9
	c1.8,0.4,3.5-0.4,4.4-2.2c1-2.1,0.3-4.3-1.7-5.3C12.7,39,10.5,39.8,9.5,41.9z M14.9,44.5c-0.5,0.9-1.5,1.3-2.7,0.8
	c-1.2-0.6-1.5-1.6-1.1-2.6c0.5-0.9,1.5-1.3,2.7-0.8C15,42.5,15.3,43.5,14.9,44.5z"/>
<path class="st0" d="M45.6,6.5l4.1,8.9l2-0.9l-3.3-7.2l4-1.9l3.3,7.2l2-0.9l-4.1-8.9L45.6,6.5z"/>
<path class="st0" d="M62.6,10.5c2.3-0.7,3.5-2.7,2.8-4.9c-0.7-2.2-2.8-3.2-5.1-2.5c-2.3,0.7-3.5,2.7-2.8,4.9
	C58.2,10.1,60.3,11.2,62.6,10.5z M62.1,8.7c-1,0.3-2.1-0.2-2.5-1.4s0.2-2.2,1.2-2.6c1-0.3,2.1,0.2,2.4,1.4S63.1,8.4,62.1,8.7z"/>
<path class="st0" d="M67.6,1.4l0.4,3c0.2,1.4,0.3,2.7-0.7,2.9c-0.1,0-0.2,0-0.3,0l0.2,1.8c0.4,0,0.8,0,1.1,0c1.8-0.3,2-2.2,1.6-4.9
	l-0.1-1.3l2.3-0.4l0.9,5.7l2.2-0.4L74,0.4L67.6,1.4z"/>
<path class="st0" d="M82.4,0.1l-1.9,5.2l-2.3-5l-2.3,0.1l3.5,7.5l0,0.1c-0.3,0.7-0.6,1-1.2,1c-0.4,0-0.9-0.1-1.2-0.4L76.2,10
	c0.5,0.4,1.4,0.6,2.1,0.6c1.4-0.1,2.4-0.6,3-2.5L84.5,0L82.4,0.1z"/>
<path class="st0" d="M91,0.7l-0.3,3.2C90.2,4,89.7,4.1,89.1,4c-0.9-0.1-1.4-0.5-1.3-1.4L88,0.4l-2.2-0.2l-0.2,2.4
	c-0.2,2,0.8,2.9,2.8,3.1c0.8,0.1,1.5-0.1,2.1-0.3l-0.2,2.8l2.2,0.2l0.6-7.5L91,0.7z"/>
<path class="st0" d="M94.3,8.8l2,0.4l4.5-3.6l-0.9,4.4l2.1,0.5l1.6-7.4l-2-0.4L97,6.2L98,1.9l-2.1-0.5L94.3,8.8z"/>
<path class="st0" d="M111.7,6l-6.9-2.4l-0.6,1.7l2.4,0.8l-1.9,5.4l2.1,0.7l1.9-5.4l2.4,0.8L111.7,6z"/>
<path class="st0" d="M116.6,11l-1.7-0.8l1-2.2l-2-0.9l-3.3,6.8l3.4,1.7c1.9,0.9,3.4,0.6,4.1-0.9C118.9,13.2,118.3,11.9,116.6,11z
	 M114.6,14l-1.3-0.6l0.9-2l1.3,0.6c0.8,0.4,1,0.9,0.7,1.5C115.9,14.3,115.3,14.4,114.6,14z"/>
<path class="st0" d="M127.1,24.1l2.1,1.6l0.1-4.8l4.3-1.3l-1.9-1.4l-3.4,1.1l-0.9-0.7l1.8-2.3l-1.7-1.3l-4.6,6l1.7,1.3l1.7-2.3
	l0.9,0.7L127.1,24.1z"/>
<path class="st0" d="M131.9,28.8c1.7,1.7,4.1,1.7,5.7,0.1c1.6-1.6,1.5-4-0.2-5.7c-1.7-1.7-4.1-1.8-5.7-0.1
	C130.1,24.8,130.2,27.1,131.9,28.8z M133.2,27.5c-0.8-0.8-0.8-1.9,0.1-2.8c0.9-0.9,2.1-0.9,2.8-0.1c0.8,0.8,0.8,1.9-0.1,2.8
	C135.1,28.3,134,28.3,133.2,27.5z"/>
<path class="st0" d="M135.8,32.9l1.3,1.7l2.2-1.7l2,2.6l-2.2,1.7l1.3,1.7l5.9-4.6l-1.3-1.7l-2.3,1.8l-2-2.6l2.3-1.8l-1.3-1.7
	L135.8,32.9z"/>
<path class="st0" d="M143,43.5c0.8,1.4,2,2.1,3.4,1.9l-0.1-1.9c-0.8,0-1.4-0.3-1.8-0.9c-0.6-1-0.3-2.1,0.8-2.8
	c1.1-0.7,2.2-0.3,2.8,0.6c0.4,0.6,0.4,1.3,0,2l1.6,1c0.8-1.1,0.7-2.5-0.1-3.9c-1.3-2.1-3.5-2.8-5.5-1.6
	C142.2,39.1,141.7,41.4,143,43.5z"/>
<path class="st0" d="M154.5,49.8l-5.5,0.1l3.8-4l-0.9-2.1l-5.6,6l-0.1,0c-0.7,0-1.1-0.2-1.4-0.7c-0.2-0.4-0.2-0.9-0.1-1.3l-1.7-0.1
	c-0.2,0.6-0.1,1.5,0.2,2.2c0.5,1.2,1.5,2,3.4,1.9l8.7-0.1L154.5,49.8z"/>
<path class="st0" d="M156,54.4l-2.9,0.8c-1.4,0.3-2.7,0.6-3-0.4c0-0.1,0-0.2-0.1-0.3l-1.7,0.4c0,0.4,0.1,0.8,0.2,1.1
	c0.5,1.8,2.5,1.7,5.1,1l1.3-0.3l0.7,2.3l-5.5,1.6l0.6,2.1l7.2-2.1L156,54.4z"/>
<path class="st0" d="M156.6,67.9l-0.3-1.9l2.4-0.4l-0.4-2.1l-7.4,1.2l0.6,3.7c0.3,2.1,1.5,3.1,3.1,2.9
	C156.2,71.1,156.9,69.9,156.6,67.9z M153,68l-0.2-1.4l2.2-0.4l0.2,1.4c0.1,0.8-0.1,1.3-0.8,1.5C153.6,69.2,153.1,68.8,153,68z"/>
<path class="st0" d="M159.8,79.2l-0.3-7.3l-1.8,0.1l0.1,2.5l-5.7,0.3l0.1,2.2l5.7-0.3l0.1,2.5L159.8,79.2z"/>
<path class="st0" d="M159.5,84.7c0.1-1.2-0.1-2.4-0.7-3.3l-1.6,0.7c0.4,0.6,0.6,1.4,0.5,2.2c-0.1,1.2-0.7,1.7-1.6,1.6l0.1-1.7
	c0.2-2.3-0.7-3.3-2-3.4c-1.3-0.1-2.4,0.9-2.5,2.6c-0.1,1.1,0.2,1.9,0.9,2.4l-0.9-0.1l-0.1,2l4.3,0.3
	C158.2,88.2,159.4,86.9,159.5,84.7z M153.3,84c0.1-0.8,0.5-1.2,1-1.2c0.5,0,0.9,0.4,0.8,1.4l-0.1,1.5l-0.8-0.1
	C153.5,85.4,153.2,84.8,153.3,84z"/>
<path class="st0" d="M151.5,97.3l5.6,1.1l0.4-2.1l-5.6-1.1l0.6-3l5.6,1.1l0.4-2.1l-7.4-1.5l-1.3,6.3l-1.6-0.3l-0.4,2l3.4,0.7
	L151.5,97.3z"/>
<path class="st0" d="M149.1,98.6l-0.7,1.9l3.1,4.9l-4.2-1.4l-0.7,2.1l7.1,2.4l0.6-1.9l-3.1-4.9l4.2,1.4l0.7-2.1L149.1,98.6z"/>
<path class="st0" d="M149.5,117c0.9-1.8,0.6-3.6-0.8-4.8l0.5-0.9l2.5,1.3l1-1.9l-6.7-3.4l-1,1.9l2.6,1.3l-0.5,0.9
	c-1.8-0.5-3.5,0.3-4.4,2.1c-1.1,2.1-0.4,4.3,1.6,5.3C146.2,119.8,148.4,119.1,149.5,117z M144.2,114.3c0.5-0.9,1.5-1.3,2.7-0.7
	c1.2,0.6,1.5,1.7,1,2.6c-0.5,0.9-1.5,1.3-2.7,0.7C144,116.3,143.7,115.2,144.2,114.3z"/>
</svg>
