<svg width="580" height="400" xmlns="http://www.w3.org/2000/svg">
 <!-- Created with SVG Editor - http://github.com/mzalive/SVG Editor/ -->

 <g>
  <title>background</title>
  <rect fill="#fff" id="canvas_background" height="402" width="582" y="-1" x="-1"/>
  <g display="none" overflow="visible" y="0" x="0" height="100%" width="100%" id="canvasGrid">
   <rect fill="url(#gridpattern)" stroke-width="0" y="0" x="0" height="100%" width="100%"/>
  </g>
 </g>
 <g>
  <title>Layer 1</title>
  <style transform="matrix(0.6961837691829978,0,0,0.6961837691829978,0,0) " type="text/css">.st0{fill:#3F4245;}</style>
  <g transform="rotate(-180 290,199.99999999999997) " id="svg_45">
   <path id="svg_5" d="m314.993004,249.707519l-2.99359,-6.126417l-1.392368,0.696184l2.436643,4.942905l-2.784735,1.322749l-2.436643,-4.942905l-1.392368,0.696184l2.99359,6.126417l5.56947,-2.715117z" class="st0"/>
   <path id="svg_6" d="m303.088262,247.201257c-1.601223,0.487329 -2.367025,1.949315 -1.879696,3.480919c0.487329,1.531604 2.018933,2.15817 3.550537,1.670841c1.601223,-0.487329 2.367025,-1.949315 1.879696,-3.480919c-0.487329,-1.531604 -1.949315,-2.227788 -3.550537,-1.670841zm0.348092,1.183512c0.696184,-0.208855 1.461986,0.069618 1.740459,0.974657c0.278474,0.835421 -0.069618,1.531604 -0.835421,1.810078c-0.696184,0.208855 -1.461986,-0.069618 -1.740459,-0.974657c-0.208855,-0.905039 0.139237,-1.601223 0.835421,-1.810078z" class="st0"/>
   <path id="svg_7" d="m299.74658,253.536529l-0.278474,-2.088551c-0.139237,-0.974657 -0.278474,-1.879696 0.487329,-2.018933c0.069618,0 0.139237,0 0.208855,0l-0.139237,-1.253131c-0.278474,0 -0.556947,0 -0.765802,0c-1.253131,0.208855 -1.322749,1.601223 -1.044276,3.4113l0.139237,0.905039l-1.601223,0.278474l-0.765802,-3.898629l-1.461986,0.278474l0.974657,5.15176l4.246721,-0.765802z" class="st0"/>
   <path id="svg_8" d="m289.44306,254.720042l1.253131,-3.620156l1.670841,3.480919l1.531604,-0.069618l-2.57588,-5.15176l0,-0.069618c0.208855,-0.487329 0.41771,-0.696184 0.835421,-0.696184c0.278474,0 0.626565,0.069618 0.905039,0.278474l0.487329,-1.113894c-0.348092,-0.278474 -0.974657,-0.41771 -1.461986,-0.41771c-0.974657,0.069618 -1.670841,0.487329 -2.088551,1.740459l-2.018933,5.708707l1.461986,-0.069618z" class="st0"/>
   <path id="svg_9" d="m283.455879,254.441568l0.139237,-2.227788c0.348092,-0.139237 0.765802,-0.208855 1.113894,-0.208855c0.626565,0.069618 0.974657,0.348092 0.905039,0.974657l-0.069618,1.531604l1.531604,0.069618l0.069618,-1.670841c0.069618,-1.392368 -0.626565,-2.018933 -2.018933,-2.088551c-0.556947,-0.069618 -1.044276,0.069618 -1.461986,0.208855l0.139237,-1.949315l-1.531604,-0.069618l-0.348092,5.221378l1.531604,0.208855z" class="st0"/>
   <path id="svg_10" d="m281.088855,248.872098l-1.392368,-0.278474l-3.063209,2.57588l0.556947,-3.063209l-1.461986,-0.278474l-0.974657,5.15176l1.392368,0.278474l3.063209,-2.57588l-0.556947,3.063209l1.461986,0.278474l0.974657,-5.15176z" class="st0"/>
   <path id="svg_11" d="m268.975257,251.030268l4.803668,1.531604l0.348092,-1.183512l-1.670841,-0.556947l1.253131,-3.829011l-1.461986,-0.487329l-1.253131,3.829011l-1.670841,-0.556947l-0.348092,1.253131z" class="st0"/>
   <path id="svg_12" d="m265.494338,247.618967l1.183512,0.556947l-0.696184,1.531604l1.392368,0.626565l2.15817,-4.803668l-2.367025,-1.113894c-1.322749,-0.626565 -2.367025,-0.348092 -2.854353,0.696184c-0.41771,1.044276 -0.069618,1.949315 1.183512,2.506262zm1.392368,-2.088551l0.905039,0.41771l-0.626565,1.392368l-0.905039,-0.41771c-0.556947,-0.278474 -0.765802,-0.556947 -0.487329,-1.044276c0.139237,-0.556947 0.556947,-0.626565 1.113894,-0.348092z" class="st0"/>
   <path id="svg_13" d="m257.975553,238.638197l-1.461986,-1.044276l0,3.341682l-2.99359,0.974657l1.322749,0.974657l2.367025,-0.835421l0.696184,0.487329l-1.183512,1.670841l1.253131,0.905039l3.063209,-4.246721l-1.253131,-0.905039l-1.183512,1.601223l-0.626565,-0.487329l0,-2.436643z" class="st0"/>
   <path id="svg_14" d="m254.564253,235.435751c-1.183512,-1.113894 -2.854353,-1.183512 -3.968247,0c-1.113894,1.183512 -0.974657,2.784735 0.278474,3.968247c1.183512,1.113894 2.854353,1.183512 3.968247,0c1.044276,-1.113894 0.905039,-2.784735 -0.278474,-3.968247zm-0.835421,0.905039c0.556947,0.487329 0.626565,1.322749 0,1.949315c-0.626565,0.626565 -1.392368,0.626565 -1.949315,0.139237c-0.556947,-0.487329 -0.626565,-1.322749 0,-1.949315s1.392368,-0.626565 1.949315,-0.139237z" class="st0"/>
   <path id="svg_15" d="m251.779518,232.651016l-0.974657,-1.183512l-1.531604,1.253131l-1.461986,-1.740459l1.531604,-1.253131l-0.974657,-1.183512l-4.037866,3.341682l0.974657,1.183512l1.601223,-1.322749l1.461986,1.740459l-1.601223,1.322749l0.974657,1.183512l4.037866,-3.341682z" class="st0"/>
   <path id="svg_16" d="m246.627758,225.410705c-0.556947,-0.905039 -1.461986,-1.392368 -2.367025,-1.322749l0.069618,1.322749c0.556947,0 0.974657,0.208855 1.253131,0.626565c0.41771,0.626565 0.278474,1.461986 -0.487329,1.949315s-1.531604,0.278474 -1.949315,-0.41771c-0.278474,-0.41771 -0.278474,-0.905039 0,-1.392368l-1.183512,-0.696184c-0.556947,0.765802 -0.487329,1.740459 0.139237,2.715117c0.905039,1.461986 2.506262,1.879696 3.829011,1.044276c1.322749,-0.765802 1.601223,-2.367025 0.696184,-3.829011z" class="st0"/>
   <path id="svg_17" d="m238.552026,221.163984l3.829011,-0.139237l-2.57588,2.854353l0.696184,1.392368l3.829011,-4.316339l0.069618,0c0.487329,0 0.765802,0.139237 0.974657,0.487329c0.139237,0.278474 0.139237,0.626565 0.069618,0.905039l1.183512,0.069618c0.139237,-0.41771 0.069618,-1.044276 -0.208855,-1.531604c-0.41771,-0.835421 -1.044276,-1.322749 -2.436643,-1.253131l-6.056799,0.208855l0.626565,1.322749z" class="st0"/>
   <path id="svg_18" d="m237.368514,218.031157l2.018933,-0.556947c0.974657,-0.278474 1.810078,-0.487329 2.088551,0.208855c0,0.069618 0.069618,0.139237 0.069618,0.208855l1.183512,-0.278474c0,-0.278474 -0.069618,-0.556947 -0.139237,-0.765802c-0.41771,-1.253131 -1.740459,-1.113894 -3.550537,-0.626565l-0.905039,0.208855l-0.487329,-1.601223l3.829011,-1.253131l-0.487329,-1.461986l-5.012523,1.601223l1.392368,4.316339z" class="st0"/>
   <path id="svg_19" d="m236.741949,208.632676l0.278474,1.322749l-1.670841,0.278474l0.278474,1.461986l5.15176,-0.974657l-0.487329,-2.57588c-0.278474,-1.461986 -1.113894,-2.15817 -2.227788,-1.949315c-1.044276,0.208855 -1.531604,1.044276 -1.322749,2.436643zm2.57588,-0.139237l0.208855,0.974657l-1.461986,0.278474l-0.139237,-0.974657c-0.208855,-0.556947 -0.069618,-0.905039 0.41771,-1.044276c0.556947,-0.069618 0.835421,0.208855 0.974657,0.765802z" class="st0"/>
   <path id="svg_20" d="m234.374924,200.7658l0.348092,5.012523l1.253131,0l-0.139237,-1.740459l3.968247,-0.348092l-0.069618,-1.531604l-3.968247,0.348092l-0.139237,-1.740459l-1.253131,0z" class="st0"/>
   <path id="svg_21" d="m234.51416,197.006407c-0.069618,0.835421 0.139237,1.670841 0.487329,2.297406l1.113894,-0.487329c-0.278474,-0.41771 -0.41771,-0.974657 -0.41771,-1.531604c0.069618,-0.835421 0.41771,-1.183512 1.113894,-1.183512l-0.069618,1.183512c-0.069618,1.601223 0.556947,2.297406 1.461986,2.297406c0.905039,0.069618 1.601223,-0.626565 1.670841,-1.879696c0.069618,-0.765802 -0.208855,-1.322749 -0.626565,-1.601223l0.626565,0l0.069618,-1.392368l-2.99359,-0.069618c-1.601223,-0.139237 -2.367025,0.765802 -2.436643,2.367025zm4.316339,0.348092c0,0.556947 -0.278474,0.835421 -0.696184,0.835421c-0.348092,0 -0.626565,-0.278474 -0.556947,-0.974657l0.069618,-1.044276l0.556947,0c0.487329,0.208855 0.696184,0.696184 0.626565,1.183512z" class="st0"/>
   <path id="svg_22" d="m239.874775,188.095255l-3.968247,-0.696184l-0.278474,1.531604l3.968247,0.696184l-0.348092,2.088551l-3.968247,-0.696184l-0.208855,1.461986l5.15176,0.905039l0.765802,-4.455576l1.113894,0.208855l0.278474,-1.392368l-2.367025,-0.41771l-0.139237,0.765802z" class="st0"/>
   <path id="svg_23" d="m241.545617,187.120598l0.41771,-1.322749l-2.227788,-3.341682l2.99359,0.974657l0.487329,-1.461986l-5.012523,-1.601223l-0.41771,1.322749l2.15817,3.341682l-2.99359,-0.974657l-0.487329,1.461986l5.082142,1.601223z" class="st0"/>
   <path id="svg_24" d="m240.98867,174.380435c-0.626565,1.253131 -0.348092,2.506262 0.626565,3.341682l-0.278474,0.626565l-1.740459,-0.835421l-0.626565,1.392368l4.73405,2.297406l0.626565,-1.392368l-1.810078,-0.905039l0.348092,-0.626565c1.253131,0.278474 2.436643,-0.278474 3.063209,-1.531604c0.696184,-1.461986 0.208855,-2.99359 -1.183512,-3.689774c-1.531604,-0.696184 -3.063209,-0.139237 -3.759392,1.322749zm3.759392,1.810078c-0.348092,0.626565 -1.044276,0.905039 -1.879696,0.556947c-0.835421,-0.41771 -1.044276,-1.113894 -0.765802,-1.810078c0.348092,-0.626565 1.044276,-0.905039 1.879696,-0.556947c0.835421,0.41771 1.044276,1.113894 0.765802,1.810078z" class="st0"/>
   <path id="svg_25" d="m266.120904,149.735529l2.854353,6.196036l1.392368,-0.626565l-2.297406,-5.012523l2.784735,-1.322749l2.297406,5.012523l1.392368,-0.626565l-2.854353,-6.196036l-5.56947,2.57588z" class="st0"/>
   <path id="svg_26" d="m277.956028,152.520264c1.601223,-0.487329 2.436643,-1.879696 1.949315,-3.4113c-0.487329,-1.531604 -1.949315,-2.227788 -3.550537,-1.740459c-1.601223,0.487329 -2.436643,1.879696 -1.949315,3.4113c0.487329,1.461986 1.949315,2.227788 3.550537,1.740459zm-0.348092,-1.253131c-0.696184,0.208855 -1.461986,-0.139237 -1.740459,-0.974657s0.139237,-1.531604 0.835421,-1.810078c0.696184,-0.208855 1.461986,0.139237 1.670841,0.974657s-0.069618,1.601223 -0.765802,1.810078z" class="st0"/>
   <path id="svg_27" d="m281.436947,146.184992l0.278474,2.088551c0.139237,0.974657 0.208855,1.879696 -0.487329,2.018933c-0.069618,0 -0.139237,0 -0.208855,0l0.139237,1.253131c0.278474,0 0.556947,0 0.765802,0c1.253131,-0.208855 1.392368,-1.531604 1.113894,-3.4113l-0.069618,-0.905039l1.601223,-0.278474l0.626565,3.968247l1.531604,-0.278474l-0.835421,-5.15176l-4.455576,0.696184z" class="st0"/>
   <path id="svg_28" d="m291.740466,145.279953l-1.322749,3.620156l-1.601223,-3.480919l-1.601223,0.069618l2.436643,5.221378l0,0.069618c-0.208855,0.487329 -0.41771,0.696184 -0.835421,0.696184c-0.278474,0 -0.626565,-0.069618 -0.835421,-0.278474l-0.556947,0.974657c0.348092,0.278474 0.974657,0.41771 1.461986,0.41771c0.974657,-0.069618 1.670841,-0.41771 2.088551,-1.740459l2.227788,-5.639089l-1.461986,0.069618z" class="st0"/>
   <path id="svg_29" d="m297.727647,145.697663l-0.208855,2.227788c-0.348092,0.069618 -0.696184,0.139237 -1.113894,0.069618c-0.626565,-0.069618 -0.974657,-0.348092 -0.905039,-0.974657l0.139237,-1.531604l-1.531604,-0.139237l-0.139237,1.670841c-0.139237,1.392368 0.556947,2.018933 1.949315,2.15817c0.556947,0.069618 1.044276,-0.069618 1.461986,-0.208855l-0.139237,1.949315l1.531604,0.139237l0.41771,-5.221378l-1.461986,-0.139237z" class="st0"/>
   <path id="svg_30" d="m300.025053,151.336752l1.392368,0.278474l3.132827,-2.506262l-0.626565,3.063209l1.461986,0.348092l1.113894,-5.15176l-1.392368,-0.278474l-3.202445,2.436643l0.696184,-2.99359l-1.461986,-0.348092l-1.113894,5.15176z" class="st0"/>
   <path id="svg_31" d="m312.138651,149.387437l-4.803668,-1.670841l-0.41771,1.183512l1.670841,0.556947l-1.322749,3.759392l1.461986,0.487329l1.322749,-3.759392l1.670841,0.556947l0.41771,-1.113894z" class="st0"/>
   <path id="svg_32" d="m315.549951,152.868356l-1.183512,-0.556947l0.696184,-1.531604l-1.392368,-0.626565l-2.297406,4.73405l2.367025,1.183512c1.322749,0.626565 2.367025,0.41771 2.854353,-0.626565c0.556947,-1.044276 0.139237,-1.949315 -1.044276,-2.57588zm-1.392368,2.088551l-0.905039,-0.41771l0.626565,-1.392368l0.905039,0.41771c0.556947,0.278474 0.696184,0.626565 0.487329,1.044276c-0.208855,0.556947 -0.626565,0.626565 -1.113894,0.348092z" class="st0"/>
   <path id="svg_33" d="m322.859881,161.988364l1.461986,1.113894l0.069618,-3.341682l2.99359,-0.905039l-1.322749,-0.974657l-2.367025,0.765802l-0.626565,-0.487329l1.253131,-1.601223l-1.183512,-0.905039l-3.202445,4.177103l1.183512,0.905039l1.183512,-1.601223l0.626565,0.487329l-0.069618,2.367025z" class="st0"/>
   <path id="svg_34" d="m326.201563,165.260427c1.183512,1.183512 2.854353,1.183512 3.968247,0.069618c1.113894,-1.113894 1.044276,-2.784735 -0.139237,-3.968247c-1.183512,-1.183512 -2.854353,-1.253131 -3.968247,-0.069618c-1.113894,1.183512 -1.044276,2.784735 0.139237,3.968247zm0.905039,-0.905039c-0.556947,-0.556947 -0.556947,-1.322749 0.069618,-1.949315c0.626565,-0.626565 1.461986,-0.626565 1.949315,-0.069618c0.556947,0.556947 0.556947,1.322749 -0.069618,1.949315c-0.626565,0.626565 -1.392368,0.626565 -1.949315,0.069618z" class="st0"/>
   <path id="svg_35" d="m328.91668,168.114781l0.905039,1.183512l1.531604,-1.183512l1.392368,1.810078l-1.531604,1.183512l0.905039,1.183512l4.107484,-3.202445l-0.905039,-1.183512l-1.601223,1.253131l-1.392368,-1.810078l1.601223,-1.253131l-0.905039,-1.183512l-4.107484,3.202445z" class="st0"/>
   <path id="svg_36" d="m333.929203,175.494329c0.556947,0.974657 1.392368,1.461986 2.367025,1.322749l-0.069618,-1.322749c-0.556947,0 -0.974657,-0.208855 -1.253131,-0.626565c-0.41771,-0.696184 -0.208855,-1.461986 0.556947,-1.949315c0.765802,-0.487329 1.531604,-0.208855 1.949315,0.41771c0.278474,0.41771 0.278474,0.905039 0,1.392368l1.113894,0.696184c0.556947,-0.765802 0.487329,-1.740459 -0.069618,-2.715117c-0.905039,-1.461986 -2.436643,-1.949315 -3.829011,-1.113894c-1.322749,0.835421 -1.670841,2.436643 -0.765802,3.898629z" class="st0"/>
   <path id="svg_37" d="m341.935316,179.880286l-3.829011,0.069618l2.645498,-2.784735l-0.626565,-1.461986l-3.898629,4.177103l-0.069618,0c-0.487329,0 -0.765802,-0.139237 -0.974657,-0.487329c-0.139237,-0.278474 -0.139237,-0.626565 -0.069618,-0.905039l-1.183512,-0.069618c-0.139237,0.41771 -0.069618,1.044276 0.139237,1.531604c0.348092,0.835421 1.044276,1.392368 2.367025,1.322749l6.056799,-0.069618l-0.556947,-1.322749z" class="st0"/>
   <path id="svg_38" d="m342.979592,183.082732l-2.018933,0.556947c-0.974657,0.208855 -1.879696,0.41771 -2.088551,-0.278474c0,-0.069618 0,-0.139237 -0.069618,-0.208855l-1.183512,0.278474c0,0.278474 0.069618,0.556947 0.139237,0.765802c0.348092,1.253131 1.740459,1.183512 3.550537,0.696184l0.905039,-0.208855l0.487329,1.601223l-3.829011,1.113894l0.41771,1.461986l5.012523,-1.461986l-1.322749,-4.316339z" class="st0"/>
   <path id="svg_39" d="m343.397302,192.481213l-0.208855,-1.322749l1.670841,-0.278474l-0.278474,-1.461986l-5.15176,0.835421l0.41771,2.57588c0.208855,1.461986 1.044276,2.15817 2.15817,2.018933c1.113894,-0.139237 1.601223,-0.974657 1.392368,-2.367025zm-2.506262,0.069618l-0.139237,-0.974657l1.531604,-0.278474l0.139237,0.974657c0.069618,0.556947 -0.069618,0.905039 -0.556947,1.044276c-0.556947,0.069618 -0.905039,-0.208855 -0.974657,-0.765802z" class="st0"/>
   <path id="svg_40" d="m345.62509,200.348089l-0.208855,-5.082142l-1.253131,0.069618l0.069618,1.740459l-3.968247,0.208855l0.069618,1.531604l3.968247,-0.208855l0.069618,1.740459l1.253131,0z" class="st0"/>
   <path id="svg_41" d="m345.416235,204.1771c0.069618,-0.835421 -0.069618,-1.670841 -0.487329,-2.297406l-1.113894,0.487329c0.278474,0.41771 0.41771,0.974657 0.348092,1.531604c-0.069618,0.835421 -0.487329,1.183512 -1.113894,1.113894l0.069618,-1.183512c0.139237,-1.601223 -0.487329,-2.297406 -1.392368,-2.367025c-0.905039,-0.069618 -1.670841,0.626565 -1.740459,1.810078c-0.069618,0.765802 0.139237,1.322749 0.626565,1.670841l-0.626565,-0.069618l-0.069618,1.392368l2.99359,0.208855c1.601223,0.139237 2.436643,-0.765802 2.506262,-2.297406zm-4.316339,-0.487329c0.069618,-0.556947 0.348092,-0.835421 0.696184,-0.835421c0.348092,0 0.626565,0.278474 0.556947,0.974657l-0.069618,1.044276l-0.556947,-0.069618c-0.487329,-0.139237 -0.696184,-0.556947 -0.626565,-1.113894z" class="st0"/>
   <path id="svg_42" d="m339.846765,212.949016l3.898629,0.765802l0.278474,-1.461986l-3.898629,-0.765802l0.41771,-2.088551l3.898629,0.765802l0.278474,-1.461986l-5.15176,-1.044276l-0.905039,4.385958l-1.113894,-0.208855l-0.278474,1.392368l2.367025,0.487329l0.208855,-0.765802z" class="st0"/>
   <path id="svg_43" d="m338.175924,213.854054l-0.487329,1.322749l2.15817,3.4113l-2.923972,-0.974657l-0.487329,1.461986l4.942905,1.670841l0.41771,-1.322749l-2.15817,-3.4113l2.923972,0.974657l0.487329,-1.461986l-4.873286,-1.670841z" class="st0"/>
   <path id="svg_44" d="m338.454397,226.663836c0.626565,-1.253131 0.41771,-2.506262 -0.556947,-3.341682l0.348092,-0.626565l1.740459,0.905039l0.696184,-1.322749l-4.664431,-2.367025l-0.696184,1.322749l1.810078,0.905039l-0.348092,0.626565c-1.253131,-0.348092 -2.436643,0.208855 -3.063209,1.461986c-0.765802,1.461986 -0.278474,2.99359 1.113894,3.689774c1.322749,0.696184 2.854353,0.208855 3.620156,-1.253131zm-3.689774,-1.879696c0.348092,-0.626565 1.044276,-0.905039 1.879696,-0.487329c0.835421,0.41771 1.044276,1.183512 0.696184,1.810078c-0.348092,0.626565 -1.044276,0.905039 -1.879696,0.487329c-0.835421,-0.41771 -1.044276,-1.183512 -0.696184,-1.810078z" class="st0"/>
  </g>
 </g>
</svg>