<svg width="32" height="32" viewBox="0 0 32 32" fill="none" xmlns="http://www.w3.org/2000/svg">
<path d="M24.5756 21.0121L31.9998 28.4363L28.4362 31.9999L21.012 24.5757C21.6982 24.0936 22.3446 23.5501 22.9473 22.9475C23.5499 22.3448 24.0934 21.6983 24.5756 21.0121Z" fill="#333333"/>
<path d="M12.7663 11.699L8.96466 7.89739C10.0793 7.02483 11.4265 6.58826 12.7739 6.58826C14.1179 6.58826 15.4617 7.02253 16.5747 7.89061L12.7663 11.699Z" fill="#FFBF1C"/>
<path d="M13.5188 13.075L17.6406 8.95312C19.546 11.3784 19.3819 14.9105 17.1477 17.1447C16.1312 18.1612 14.8461 18.7492 13.5188 18.9089V13.075Z" fill="#FFBF1C"/>
<path d="M7.8998 8.96118L12.0137 13.075V18.9069C10.6918 18.7446 9.41257 18.1573 8.4 17.1448C7.23169 15.9765 6.58832 14.4232 6.58832 12.771C6.58832 11.3723 7.04953 10.0445 7.8998 8.96118Z" fill="#FFBF1C"/>
<path d="M3.70977 3.70995C6.183 1.23665 9.42466 0 12.6663 0C15.908 0 19.1496 1.23665 21.6228 3.70995C26.5694 8.65648 26.5694 16.6765 21.6228 21.6231C19.1495 24.0964 15.9079 25.333 12.6663 25.333C9.4246 25.333 6.183 24.0964 3.70971 21.6231C-1.23682 16.6765 -1.23682 8.65648 3.70977 3.70995ZM12.6666 22.2329C15.1176 22.2329 17.5686 21.3 19.4345 19.434C23.1663 15.7022 23.1663 9.63007 19.4345 5.89821C15.7027 2.16635 9.63052 2.16635 5.89866 5.89821C4.09089 7.70598 3.09532 10.1095 3.09532 12.6661C3.09532 15.2227 4.09089 17.6263 5.89866 19.434C7.76462 21.3 10.2156 22.2329 12.6666 22.2329Z" fill="#333333"/>
</svg>
