<svg width="36" height="36" viewBox="0 0 36 36" fill="none" xmlns="http://www.w3.org/2000/svg">
<g clip-path="url(#clip0)">
<path d="M21.7077 18.1469C26.4819 18.1469 30.3654 14.2627 30.3654 9.48848C30.3654 4.71426 26.4819 0.830078 21.7077 0.830078C16.9335 0.830078 13.0493 4.71426 13.0493 9.48848C13.0493 14.2627 16.9335 18.1469 21.7077 18.1469ZM20.6823 4.39912V4.16397C20.6823 3.59727 21.141 3.13857 21.7077 3.13857C22.2737 3.13857 22.7331 3.59727 22.7331 4.16397V4.40049C23.9533 4.66231 24.8714 5.74922 24.8714 7.04668C24.8714 7.6127 24.412 8.07207 23.846 8.07207C23.2793 8.07207 22.8206 7.6127 22.8206 7.04668C22.8206 6.68506 22.526 6.39043 22.1644 6.39043H21.2449C20.8833 6.39043 20.5887 6.68506 20.5887 7.04668C20.5887 7.25381 20.6878 7.45068 20.8546 7.57373L21.7077 8.20537L23.7804 9.73936C24.4612 10.2432 24.8714 11.0491 24.8769 11.8968V11.9063C24.8816 12.6296 24.6048 13.3118 24.0962 13.8266C23.7188 14.2087 23.2472 14.465 22.7331 14.573V14.813C22.7331 15.3797 22.2737 15.8384 21.7077 15.8384C21.141 15.8384 20.6823 15.3797 20.6823 14.813V14.5765C20.1819 14.4698 19.7219 14.2237 19.35 13.856C18.8353 13.348 18.5495 12.6699 18.5454 11.9467C18.542 11.3807 18.998 10.9186 19.564 10.9151H19.5708C20.1341 10.9151 20.5928 11.3704 20.5962 11.9344C20.5976 12.2883 20.8823 12.5865 21.2559 12.5865C21.8224 12.5831 21.6114 12.5843 22.1739 12.5811C22.5379 12.5782 22.8289 12.2828 22.8261 11.92V11.9104C22.8247 11.7054 22.7256 11.5099 22.5602 11.3875L21.7077 10.7565L19.6344 9.22256C18.948 8.71397 18.5379 7.90049 18.5379 7.04668C18.5379 5.74649 19.4587 4.65889 20.6823 4.39912Z" fill="#FF4D4D"/>
<path d="M7.67899 23.0736C7.41615 22.6179 6.83229 22.4594 6.37381 22.7239L1.5505 25.5081C1.0938 25.7725 0.937116 26.3566 1.20078 26.8139L6.13045 35.3522C6.39431 35.8087 6.9781 35.9656 7.43563 35.7019L12.2589 32.9169C12.7163 32.6532 12.8724 32.0691 12.6087 31.6117L7.67899 23.0736Z" fill="#333333"/>
<path d="M35.3161 21.3693C34.852 20.7247 33.9537 20.5791 33.3098 21.0433C31.3561 22.4508 27.6045 25.1537 27.3064 25.369C27.169 25.4859 27.0248 25.5919 26.8744 25.6855C26.2845 26.0567 25.6002 26.255 24.8858 26.255H19.9742C19.4082 26.255 18.9488 25.7963 18.9488 25.2296C18.9488 24.6622 19.4089 24.2042 19.9742 24.2042H25.227C25.9987 24.2042 26.6167 23.5616 26.5846 22.7885C26.5545 22.055 25.9283 21.4862 25.1941 21.4862H21.1958C20.9251 21.1998 20.6284 20.9373 20.3105 20.7028C19.2175 19.8969 17.8667 19.4204 16.4045 19.4204C13.8048 19.4204 11.2181 21.0583 10.1455 23.2444L14.34 30.509H22.2082C23.7531 30.509 25.2748 30.1139 26.614 29.3435C27.0781 29.0769 27.5751 28.7562 28.1138 28.3693C30.371 26.7479 34.9859 23.3791 34.9894 23.377C35.6347 22.9136 35.781 22.014 35.3161 21.3693Z" fill="#333333"/>
</g>
<defs>
<clipPath id="clip0">
<rect width="35" height="35" fill="white" transform="translate(0.830078 0.830078)"/>
</clipPath>
</defs>
</svg>
