<svg width="34" height="22" viewBox="0 0 34 22" fill="none" xmlns="http://www.w3.org/2000/svg">
<path d="M28.055 16.1699C26.5083 16.1699 25.25 17.4286 25.25 18.9749C25.25 20.5216 26.5083 21.7799 28.055 21.7799C29.6014 21.7799 30.86 20.5216 30.86 18.9749C30.86 17.4286 29.6014 16.1699 28.055 16.1699ZM28.055 19.7999C27.6 19.7999 27.23 19.43 27.23 18.9749C27.23 18.5199 27.6 18.1499 28.055 18.1499C28.51 18.1499 28.88 18.5199 28.88 18.9749C28.88 19.43 28.51 19.7999 28.055 19.7999Z" fill="#FF4D4D"/>
<path d="M27.7866 4.51001H22.9403C22.5756 4.51001 22.2803 4.80572 22.2803 5.17001V18.04C22.2803 18.4043 22.5756 18.7 22.9403 18.7H23.6402C23.9669 18.7 24.2563 18.4647 24.2986 18.1407C24.5576 16.156 26.1406 14.9252 28.0556 14.9252C29.9706 14.9252 31.5536 16.1561 31.8126 18.1407C31.8549 18.4647 32.1439 18.7 32.471 18.7H33.1702C33.5345 18.7 33.8302 18.4043 33.8302 18.04V11.605C33.8302 11.4499 33.7758 11.3001 33.6764 11.1816L28.2928 4.74662C28.1675 4.59682 27.982 4.51001 27.7866 4.51001ZM23.6003 9.79001V6.49001C23.6003 6.12572 23.8956 5.83001 24.2603 5.83001H27.1676C27.3632 5.83001 27.5491 5.91715 27.6744 6.06759L30.4243 9.36759C30.7824 9.79756 30.4768 10.45 29.9171 10.45H24.2603C23.8956 10.45 23.6003 10.1547 23.6003 9.79001Z" fill="#333333"/>
<path d="M1.49008 18.7004H3.18003C3.50674 18.7004 3.79614 18.4651 3.83836 18.141C4.0974 16.1564 5.68043 14.9255 7.5954 14.9255C9.51037 14.9255 11.0934 16.1565 11.3524 18.141C11.3947 18.4651 11.6837 18.7004 12.0108 18.7004H20.3001C20.6644 18.7004 20.9601 18.4047 20.9601 18.0404V1.54037C20.9601 1.17608 20.6644 0.880371 20.3001 0.880371H1.49008C1.12541 0.880371 0.830078 1.17608 0.830078 1.54037V18.0404C0.830078 18.4047 1.12541 18.7004 1.49008 18.7004Z" fill="#333333"/>
<path d="M7.59504 16.1699C6.04835 16.1699 4.79004 17.4286 4.79004 18.9749C4.79004 20.5216 6.04835 21.7799 7.59504 21.7799C9.1414 21.7799 10.4 20.5216 10.4 18.9749C10.4 17.4286 9.1414 16.1699 7.59504 16.1699ZM7.59504 19.7999C7.13999 19.7999 6.77004 19.43 6.77004 18.9749C6.77004 18.5199 7.13999 18.1499 7.59504 18.1499C8.05008 18.1499 8.42004 18.5199 8.42004 18.9749C8.42004 19.43 8.05008 19.7999 7.59504 19.7999Z" fill="#FF4D4D"/>
</svg>
