<svg width="510" height="546" viewBox="0 0 510 546" fill="none" xmlns="http://www.w3.org/2000/svg">
<path d="M227 451C227 462.598 189.434 472 138 472C86.5663 472 49 462.598 49 451C49 439.402 86.5663 430 138 430C189.434 430 227 439.402 227 451Z" fill="#DDDDDD"/>
<path d="M295.957 460.308C270.787 448.728 253.439 427.614 248.447 419.123L243.95 419.101L224.216 422.223L223.686 423.505C222.758 432.513 225.288 438.135 226.027 443.604C230.102 451.588 237.498 457.008 242.151 457.796L241.061 454.099L243.241 456.847C248.307 466.437 273.311 475.019 284.715 472.807C293.796 471.045 296.328 468.049 297.669 466.119L295.957 460.308Z" fill="#15161A"/>
<path d="M249.401 432.914C249.72 432.952 253.677 430.264 255 429.038C264.751 442.09 285.205 455.954 292.937 459.265L293.764 460.048C269.96 457.99 249.083 432.876 249.401 432.914Z" fill="#474747"/>
<ellipse cx="31.0393" cy="476.808" rx="12.8933" ry="13.3708" fill="#2F2F2F"/>
<path d="M28.6519 468.269C46.1184 433.846 88.1162 422.054 106.932 420.46H110.659L116.517 422.054L113.322 431.615C63.2655 432.678 42.4973 468.269 40.8997 469.862C39.3022 471.456 28.6519 471.987 28.6519 468.269Z" fill="#4D4D4D"/>
<ellipse cx="36.7697" cy="479.674" rx="12.8933" ry="13.3708" fill="#393939"/>
<path d="M25.333 483.971C22.9502 474.421 29.6358 469.486 33.2762 468.213L37.2473 468.69C27.8155 472.007 27.4845 481.902 28.8083 485.404C28.1464 485.245 25.73 484.353 25.333 483.971Z" fill="#777777"/>
<path d="M19.1309 478.719C18.2164 471.325 23.8764 465.825 26.5517 464.95L28.98 465.348C22.5781 468.213 20.1157 474.421 21.1006 479.674C20.5366 479.488 19.4482 479.084 19.1309 478.719Z" fill="#666666"/>
<ellipse cx="60.9281" cy="405.658" rx="11.0125" ry="11.4204" transform="rotate(129.45 60.9281 405.658)" fill="#2F2F2F"/>
<path d="M66.5079 396.654C62.3797 393.789 57.5231 395.103 55.6108 396.119C64.6553 395.006 67.8298 400.841 68.2865 403.898L71.0605 403.658C71.263 402.517 70.6361 399.519 66.5079 396.654Z" fill="#666666"/>
<path d="M61.1238 396.584C98.8101 388.234 131.019 413.94 144.193 427.469L146.559 430.349L149.045 435.888L139.628 439.487C107.037 401.48 62.5561 404.224 59.2135 404.224C55.8709 404.224 53.4832 398.276 61.1238 396.584Z" fill="#4D4D4D"/>
<path d="M61.1238 397.591C91.8131 392.069 120.741 404.339 135.911 414.479C135.748 415.172 134.592 417.109 133.711 416.376C113.464 402.632 97.2114 399.766 87.9652 398.185C78.7189 396.605 70.2066 396.453 61.1238 397.591Z" fill="white"/>
<ellipse cx="55.9286" cy="407.883" rx="11.0125" ry="11.4204" transform="rotate(129.45 55.9286 407.883)" fill="#393939"/>
<path d="M56.826 397.539C51.8597 396.775 48.0713 400.085 46.7979 401.836C54.4383 396.87 59.8503 400.722 61.6012 403.269L63.9889 401.836C63.6705 400.722 61.7923 398.303 56.826 397.539Z" fill="#777777"/>
<path d="M37.2471 456.275C57.3033 432.398 87.3876 423.325 105.534 421.415C105.852 422.052 106.202 424.28 105.056 424.28C80.7022 426.668 66.3763 434.861 58.2583 439.561C50.1403 444.261 43.5001 449.589 37.2471 456.275Z" fill="white"/>
<path d="M280.025 489.675C261.804 468.803 254.624 442.437 253.547 432.645L249.454 430.784L230.171 425.551L229.163 426.504C224.628 434.341 224.633 440.507 223.068 445.799C223.516 454.752 228.044 462.725 231.966 465.349L232.486 461.53L233.349 464.93C234.044 475.754 253.341 493.822 264.65 496.473C273.657 498.585 277.194 496.889 279.208 495.677L280.025 489.675Z" fill="#15161A"/>
<path d="M241.392 438.401C241.392 438.401 250.996 437.968 253.389 437.202C255.189 446.799 257.588 452.198 261.187 459.996L250.39 460.596C239.592 442.6 241.392 438.401 241.392 438.401Z" fill="#5A5A5A"/>
<path d="M3.29037 148.675C1.50879 133.176 13.1965 119.396 28.7791 118.625L155.673 112.345C170.479 111.612 183.106 122.953 183.963 137.752L191.671 270.976C192.402 283.604 184.267 295.047 172.099 298.506L55.8854 331.543C39.8644 336.097 23.5811 325.202 21.6791 308.655L3.29037 148.675Z" fill="#527A9F"/>
<path d="M21.5266 301.269C21.5134 301.204 21.5008 301.141 21.4888 301.078C21.5014 301.141 21.514 301.204 21.5266 301.269C22.914 308.018 30.958 321.332 52.5281 322.089C60.6461 322.089 76.7229 315.881 85.4776 313.494L99.8035 308.718L101.714 317.791L52.5281 331.64C42.0225 333.072 31.8989 328.201 27.6966 322.089C23.542 316.046 22.6236 306.86 21.5266 301.269Z" fill="#426687"/>
<path d="M40.1124 336.893L111.742 315.881L161.882 304.421L274.101 375.095L121.77 423.803C104.738 410.75 59.0225 376.527 48.7078 368.887C38.3932 361.247 38.2022 342.464 40.1124 336.893Z" fill="#426687"/>
<path d="M46.7979 356.949C42.0225 350.741 40.2717 341.668 40.1125 338.803C38.6799 345.488 40.1126 356.471 45.3653 364.589C50.6181 372.707 106.394 411.196 107.922 412.342C109.45 413.488 107.126 406.134 106.489 402.791C106.489 402.791 51.5733 363.157 46.7979 356.949Z" fill="#345473"/>
<path d="M237.504 464.736C240.477 474.408 245.573 480.947 252.652 487.594L255.369 489.992L259.444 493.59C248.238 486.486 241.716 480.526 236.623 471.21C233.897 466.223 235.425 460.411 235.896 457.923L237.504 464.736Z" fill="#474747"/>
<path d="M181.734 513.685L182.515 507.95L182.606 507.283L160.878 500.848L160.318 508.161C160.318 508.161 162.898 511.555 169.61 513.338C176.322 515.122 181.734 513.685 181.734 513.685Z" fill="#E49072"/>
<path d="M212.023 260.011C197.634 250.301 168.568 179.786 168.568 179.786C168.568 179.786 187.613 141.454 191.7 144.145C195.787 146.836 208.202 176.443 213.933 191.247C219.663 206.05 229.692 234.701 229.692 234.701L268.849 258.101C268.849 258.101 284.226 274.827 291.518 274.32C298.809 273.813 300.843 276.724 300.843 276.724C300.843 276.724 272.669 283.41 253.568 276.724C234.467 270.039 228.697 271.262 212.023 260.011Z" fill="#BED4E1"/>
<path d="M217.275 254.758L235.422 270.516C235.422 270.516 218.23 265.698 208.68 255.713C199.13 245.728 190.534 226.583 189.101 216.078C187.669 205.572 181.938 200.319 181.938 200.319L178.596 193.156L194.832 172.623C194.832 172.623 197.22 203.184 201.04 220.853C204.86 238.522 217.275 254.758 217.275 254.758Z" fill="#A8C1D0"/>
<path d="M176.028 505.525V499.737V499.064L153.632 495.619L154.062 502.94C154.062 502.94 157.077 505.955 163.969 506.817C170.86 507.678 176.028 505.525 176.028 505.525Z" fill="#D47C5C"/>
<path d="M79.2698 321.612H136.573L167.135 396.106L184.804 492.567H164.13C155.674 492.567 132.469 451.583 131.32 434.786C111.938 386.117 92.9706 384.645 85.0002 358.859C77.0298 333.072 79.2698 321.612 79.2698 321.612Z" fill="#2A3958"/>
<path d="M248.793 405.657L241.213 380.825C241.213 380.825 238.766 373.701 225.871 352.651C212.976 331.601 168.236 308.305 168.236 308.305L131.263 327.834L164.748 352.651L188.147 380.825L211.068 422.37L241.213 469.168C247.096 475.907 261.835 480.184 268.469 475.75L248.793 405.657Z" fill="#2A3958"/>
<path d="M161.485 382.742L143.541 296.199L164.283 380.161L164.166 382.742L164.067 384.893C160.813 388.194 161.355 390.806 162.033 391.699L164.046 394.809L163.459 398.231C157.933 421.089 156.41 477.13 158.368 500.357C151.908 437.906 159.136 407.951 161.485 394.261L159.08 390.271L159.66 387.083L161.485 382.742Z" fill="#62718F"/>
<path d="M95.4874 285.006L87.3041 287.59C87.3041 287.59 93.7646 315.371 101.517 337.552C109.27 359.733 121.76 383.637 121.76 383.637C121.76 383.637 109.27 350.904 104.101 329.369C98.933 307.833 95.4874 285.006 95.4874 285.006Z" fill="#212D46"/>
<path d="M188.95 334.281L187.658 323.885H170C171.722 334.281 179.829 346.257 190.673 346.771L188.95 334.281Z" fill="#212D46"/>
<path d="M82.6125 346.921C80.2249 336.415 79.7377 326.528 79.7377 326.528H115.474C119.464 355.165 102.63 365.678 89.1301 367.014C89.1301 367.014 85.0002 357.426 82.6125 346.921Z" fill="#212D46"/>
<path d="M78.5579 314.472H190.601V323.886L144.157 326.098L78.5579 327.821V314.472Z" fill="#1C1E20"/>
<path d="M156.328 315.988C156.328 315.298 155.768 314.738 155.078 314.738H135.222C134.531 314.738 133.972 315.298 133.972 315.988V325.316C133.972 326.024 134.559 326.591 135.267 326.565L155.123 325.848C155.796 325.824 156.328 325.272 156.328 324.599V315.988Z" stroke="#C6C6C6" stroke-width="1.5"/>
<path d="M156.215 321.147C156.207 320.595 155.753 320.145 155.201 320.153L144.572 320.305C144.02 320.312 143.579 320.775 143.587 321.327C143.594 321.88 144.049 322.329 144.601 322.322L155.23 322.17C155.782 322.162 156.223 321.699 156.215 321.147Z" fill="#C4C4C4"/>
<path d="M154.868 312.643C153.763 312.643 152.868 313.538 152.868 314.643L152.868 324.529C152.868 325.633 153.763 326.529 154.868 326.529L155.078 326.529C156.182 326.529 157.078 325.633 157.078 324.529L157.078 314.643C157.078 313.538 156.182 312.643 155.078 312.643L154.868 312.643Z" fill="#F3F3F3"/>
<path d="M191.964 143.91L172.948 133.911L164.169 127.781L152.654 144.888L125.241 144.972L113.146 124.529L61.2844 153.515L69.5085 186.648L74.3825 222.298L78.2589 269.676V318.345H142.864C169.137 318.345 192.711 316.689 192.711 316.689C192.711 306.592 191.419 281.305 191.964 264.938C192.51 248.571 196.702 221.437 196.702 196.456C196.702 196.456 196.917 189.134 195.84 174.49C194.763 159.846 191.964 143.91 191.964 143.91Z" fill="#CADFEC"/>
<path d="M158.801 132.712L157.107 123.437L102.191 125.347L109.832 132.712L116.04 134.898L158.801 132.712Z" fill="#728E9F"/>
<path d="M150.874 106.8L111.896 93.8303L111.197 130.789C111.197 130.789 124.359 145.326 137.383 145.601C150.407 145.876 150.407 128.947 150.407 128.947L150.874 106.8Z" fill="#EDA58B"/>
<path d="M154.719 114.842C154.719 114.842 150.753 120.729 136.868 120.436C122.984 120.143 111.27 98.2212 111.27 98.2212L113.277 106.111C113.277 106.111 120.795 126.128 135.839 127.738C150.883 129.348 153.287 118.662 153.287 118.662L154.719 114.842Z" fill="#D57C5C"/>
<path d="M146.556 318.125L148.994 318.037L143.688 159.865L140.894 159.198L144.063 318.214L146.556 318.125Z" fill="#BED4E1"/>
<path d="M163.143 284.93L144.679 155.78L144.637 154.197L138.72 154.352L146.781 285.357C146.781 285.357 154.235 297.785 156.152 297.735C158.069 297.685 163.143 284.93 163.143 284.93Z" fill="#0085FF"/>
<path d="M138.006 143.498L138.436 143.404L145.758 143.498L148.989 148.648L144.691 160.689L138.988 160.277L131.798 147.796L138.006 143.498Z" fill="#0085FF"/>
<path d="M140.21 159.189L143.247 158.962L144.765 158.848L145.271 158.81L145.532 161.236C145.532 161.236 144.571 161.999 142.546 162.15C140.521 162.302 139.163 161.881 139.163 161.881L138.968 159.282L140.21 159.189Z" fill="#1677D1"/>
<path d="M139.916 147.796L140.394 144.931L140.394 143.498L138.484 143.498L136.573 143.498L133.708 150.661L138.484 159.256L139.439 150.661L139.916 147.796Z" fill="#1677D1"/>
<path d="M154.166 158.554L142.855 143.54L156.63 123.437L165.177 127.881L171.254 130.946L154.166 158.554Z" fill="#B6CEDC"/>
<path d="M128.043 162.187L137.088 143.667L102.201 125.147L94.8788 131.607L90.5718 135.484L128.043 162.187Z" fill="#B6CEDC"/>
<path d="M99.3261 42.7346C98.8407 35.8174 101.713 24.5889 105.056 27.9313L108.164 52.1967C109.499 59.8928 111.784 71.6166 110.309 80.4597C109.32 86.3895 104.387 90.066 99.3261 86.6676C94.9526 83.7309 94.073 77.5945 94.073 77.5945C94.073 77.5945 98.1704 80.2851 100.281 74.7293C102.155 69.795 100.225 55.5379 99.3261 42.7346Z" fill="#723E28"/>
<path d="M177.298 71.8659L179.285 64.701L181.939 57.5758C183.358 54.1338 182.423 51.2157 181.18 43.943C180.001 37.0414 171.088 31.7096 168.253 32.4428C154.512 30.9098 126.491 27.7748 124.333 27.4997C113.068 25.538 106.73 31.1668 104.969 34.2264C104.815 39.0234 104.929 49.1071 105.525 51.3746C107.148 57.5536 105.955 59.3114 106.037 58.6652C104.528 53.47 98.1235 52.6202 97.4917 57.5757C96.8599 62.5311 99.3885 77.9977 105.913 76.6586C104.987 83.9218 106.043 89.2665 110.663 100.71C121.77 116.752 128.356 122.431 143.736 124.392C159.117 126.353 170.545 97.0588 172.388 93.3529C173.863 90.3881 175.731 83.3248 175.731 83.3248L176.907 77.4605L177.298 71.8659Z" fill="#FFB499"/>
<ellipse cx="136.377" cy="66.1901" rx="4.5" ry="5.5" transform="rotate(9.87312 136.377 66.1901)" fill="#2F1E14"/>
<ellipse cx="164.902" cy="72.6771" rx="4.5" ry="5.5" transform="rotate(9.87312 164.902 72.6771)" fill="#2F1E14"/>
<ellipse rx="1.68468" ry="1.962" transform="matrix(0.973074 0.230494 -0.235689 0.971828 135.102 64.295)" fill="white"/>
<ellipse rx="1.68468" ry="1.962" transform="matrix(0.973074 0.230494 -0.235689 0.971828 164.102 70.295)" fill="white"/>
<path d="M110.787 13.1282C106.441 15.9588 103.146 19.8134 101.714 25.0664C100.696 27.0027 100.067 31.2832 99.8036 35.5721C99.5833 39.1628 101.002 42.6162 101.714 46.0774C103.37 54.1258 108.877 63.7459 110.787 67.5661C113.175 65.656 115.085 62.4724 116.04 58.0155C116.741 54.743 116.517 51.3301 116.517 47.9874C116.517 44.6447 117.472 42.7346 118.427 40.8245C119.383 38.9144 121.292 36.5275 123.68 35.572C126.068 34.6166 127.966 34.6427 130.843 34.6166C130.366 42.7346 136.586 44.4248 140.267 45.857C135.974 37.8317 141.37 35.4807 144.604 35.3084C157.49 37.247 163.505 40.1182 167.613 41.7798C171.006 43.1525 175.008 43.9508 178.596 47.9874C181.567 51.3301 180.872 56.1054 180.029 59.6147C178.632 65.427 176.686 72.5521 176.686 77.5942L182.416 68.9987C190.534 58.0152 196.433 48.1615 195 41.7798C193.567 35.3981 183.849 25.0662 164.748 14.5611C140.528 1.24075 129.411 3.09997 123.68 14.5608C121.042 11.1299 113.684 11.2411 110.787 13.1282Z" fill="#723E28"/>
<path d="M103.967 71.5234C105.998 70.3958 105.633 61.5811 103.889 58.8163C102.537 56.6735 99.942 56.6426 100.059 62.7048C100.141 66.9276 102.613 72.2752 103.967 71.5234Z" fill="#B75532"/>
<path d="M146.381 107.256C154.846 108.335 160.834 101.832 161.637 97.0147C161.637 97.0147 156.819 97.2191 147.987 96.0147C139.155 94.8103 129.33 91 129.33 91C130.935 97.022 137.916 106.176 146.381 107.256Z" fill="white" stroke="#D2765C" stroke-width="2"/>
<path d="M139.051 56.0606C132.843 55.1055 129.978 57.0158 126.94 57.608C124.869 56.7905 129.492 54.4546 130.455 54.1504C132.843 53.1954 135.231 52.3114 140.006 52.7179C144.781 53.1243 146.214 54.6279 147.169 55.1055C147.79 55.4161 150.159 58.1827 148.124 59.4033C145.737 60.8358 145.259 57.0156 139.051 56.0606Z" fill="#77432D"/>
<path d="M167.5 63.5C169.803 64.602 173.599 64.9737 175.713 65.503C177.014 66.7046 174.306 67.2421 173.471 67.3251C170.487 67.3445 169 67.3251 165.5 66.5C162 65.6749 161 65 160 64C159.833 63.4019 158.886 61.2327 160.443 60.3664C162 59.5 164.622 62.1225 167.5 63.5Z" fill="#77432D"/>
<path d="M156.538 84.85C157.61 90.0354 154.453 90.2287 152.317 89.9563L145.481 89.0848C140.781 88.4856 142.383 83.7063 144.166 82.8629C146.354 81.8282 148.213 79.4379 149.135 77.5849C150.056 75.7319 151.277 64.7216 151.359 64.0751C152.702 62.1445 153.717 63.5 154.057 64.4191L154.496 72.8666C154.914 76.3935 155.194 78.3575 156.538 84.85Z" fill="#E98F6F"/>
<path d="M79.1207 269.675C76.1058 234.788 76.1058 227.036 73.5216 217.991L71.7987 211.961V204.209H75.2444L76.5367 207.223C76.5367 207.223 81.4331 226.174 82.9972 236.081C84.5613 245.987 87.7349 260.631 92.4727 275.705C97.2104 290.78 110.103 310.592 116.995 317.914H79.1207V269.675Z" fill="#A8C1D0"/>
<path d="M178.614 221.994C186.771 221.205 189.726 219.774 189.726 219.774L189.355 189.62L157.891 191.863L161.814 222.3C161.814 222.3 170.457 222.783 178.614 221.994Z" fill="#A8C1D0"/>
<path d="M433.475 299.168H112.697V545.281C112.697 545.281 291.04 553.608 365.309 481.238C439.579 408.868 433.475 299.168 433.475 299.168Z" fill="#8FA1B0"/>
<path d="M431.079 297.489H112.813V369.723C112.813 369.723 175.252 369.723 265.028 352.175C354.803 334.626 431.079 300.125 431.079 300.125V297.489Z" fill="#748494"/>
<path d="M112.855 290.574H99.3253V498.192L112.855 544.872V290.574Z" fill="#687A8B"/>
<path d="M413.062 281.501L55.8701 285.798L73.2388 306.332L510 298.692L413.062 281.501Z" fill="#DFBF6E"/>
<path d="M151.376 292.005C160.545 292.769 162.837 280.862 162.837 274.814L155.674 275.291C150.421 280.544 142.208 291.241 151.376 292.005Z" fill="#677278"/>
<path d="M79.2702 272.426C69.1044 266.188 24.8319 173.1 61.6015 153.521C82.6127 165.46 84.0453 195.067 88.343 209.392L102.669 252.37L139.916 266.218L162.838 274.814C162.838 274.814 159.495 275.291 154.72 281.022C149.944 286.752 151.265 292.134 151.265 292.134C118.427 283.887 100.282 285.32 79.2702 272.426Z" fill="#B6CEDC"/>
<path d="M60.6465 217.033L73.5398 250.46C73.5398 250.46 79.2701 263.831 85.0002 269.083C90.7303 274.336 106.011 282.454 106.011 282.454C106.011 282.454 85.9552 278.634 78.3147 270.516C70.6741 262.398 64.7924 247.906 59.6914 234.701C55.2313 223.156 52.8715 213.481 50.618 206.527C45.8425 186.471 49.1851 170.713 49.1851 170.713C50.618 177.875 56.3487 203.662 60.6465 217.033Z" fill="#A8C1D0"/>
<path d="M164.19 290.572C162.759 290.572 161.805 290.231 161.327 289.89C160.85 289.549 160.45 288.176 160.45 288.176V285.797H356.237C356.237 285.972 354.787 288.659 354.787 288.659C354.787 288.659 355.559 289.719 354.825 290.105C354.09 290.492 352.993 290.427 351.466 290.427C342.915 290.427 165.621 290.572 164.19 290.572Z" fill="#828D98"/>
<path d="M164.197 291.527C162.763 291.527 161.807 291.254 161.329 290.981C160.851 290.708 160.45 289.611 160.45 289.611V287.707H356.237C356.058 288.525 355.485 289.889 355.485 289.889C355.485 289.889 355.264 290.671 354.528 290.98C353.793 291.29 352.413 291.411 350.883 291.411C342.316 291.411 165.632 291.527 164.197 291.527Z" fill="#1C1E20"/>
<path d="M246.404 213.69C245.448 216.031 225.393 269.561 225.393 269.561L218.23 287.707L355.949 288.391L381.067 219.42C381.067 219.42 382.141 216.555 381.544 214.167C380.947 211.78 378.074 211.399 375.633 211.399C373.191 211.399 255.954 209.394 252.612 209.394C249.269 209.394 247.359 211.349 246.404 213.69Z" fill="#1C1E20"/>
<path d="M252.135 209.87C248.697 210.252 247.201 212.894 246.882 214.167L233.989 248.072L218.708 287.707H220.618L234.466 251.415L248.315 214.167C248.697 212.639 251.021 210.666 252.135 209.87Z" fill="#5A5F64"/>
<path d="M164.249 276.528L169.788 274.659H172.866C171.635 276.113 168.52 280.374 164.249 284.002C160.45 287.229 157.584 286.752 155.197 286.752H153.287H151.854C151.854 286.752 151.854 284.364 155.197 280.544C158.539 276.724 161.405 275.291 161.405 275.291L164.249 276.528Z" fill="#FCA282"/>
<path d="M181.883 272.896L172.586 277.901C171.481 280.684 176.842 279.865 179.66 279.108L183.628 277.582C184.627 278.032 187.625 279.391 190.741 281.361C193.857 283.33 196.452 280.368 195.12 279.232C193.482 277.834 188.477 274.452 186.08 273.372C183.682 272.292 182.283 272.605 181.883 272.896Z" fill="#FCA282"/>
<path d="M187.669 278.156C186.236 276.724 183.076 274.779 182.704 274.628C181.998 274.179 183.165 275.179 182.416 275.769C181.755 276.289 184.326 276.724 183.848 277.201C183.848 277.201 184.326 278.156 184.803 278.156C185.281 278.156 185.91 278.471 187.191 279.111C188.146 279.589 190.345 281.151 190.345 281.151C190.345 281.151 189.102 279.589 187.669 278.156Z" fill="#C37F67"/>
<path d="M175.606 272.126L166.494 275.924C164.775 278.863 170.553 279.108 173.656 278.863L178.119 277.994C179.074 278.728 181.939 280.943 184.804 283.882C187.669 286.821 190.983 284.006 189.818 282.413C188.385 280.453 183.827 275.483 181.535 273.72C179.243 271.956 177.115 271.35 175.606 272.126Z" fill="#FCA282"/>
<path d="M182.416 279.589C181.461 278.156 179.922 277.352 179.55 277.201C178.844 276.752 175.047 277.048 174.298 277.637C173.637 278.157 177.163 279.589 176.685 280.066C176.685 280.066 179.073 279.111 179.551 279.111C180.028 279.111 180.223 279.383 180.983 280.066C182.384 281.326 184.326 283.409 184.326 283.409C184.326 283.409 183.37 281.021 182.416 279.589Z" fill="#C37F67"/>
<path d="M172.091 276.669L162.636 279.63C161.123 281.998 166.208 282.195 168.939 281.997L173.706 281.897C174.546 282.489 176.227 283.674 178.749 286.042C181.27 288.41 184.186 286.142 183.161 284.858C181.9 283.279 177.89 279.274 175.873 277.854C173.856 276.433 172.511 276.472 172.091 276.669Z" fill="#FCA282"/>
<path d="M172.971 278.961C171.642 278.115 168.241 279.613 168.09 280.066C168.09 280.066 171.538 279.993 172.865 281.021C174.192 282.05 178.596 285.797 178.596 285.797L175.73 281.499C174.298 279.589 173.343 279.111 172.971 278.961Z" fill="#C37F67"/>
<path d="M169.133 279.538L156.629 282.932C155.131 285.389 159.972 286.752 163.792 286.274C167.612 285.797 169.523 284.364 169.523 284.364C170.355 284.979 173.503 286.911 176.625 289.368C178.693 290.997 180.371 288.754 179.122 287.525C177.873 285.887 175.501 282.242 173.503 280.767C171.505 279.293 169.549 279.334 169.133 279.538Z" fill="#FCA282"/>
<path d="M170 283.409C168.472 283.027 167.613 284.842 167.613 285.319C167.613 285.319 169.523 283.887 170.478 284.842C171.433 285.797 176.208 288.662 176.208 288.662L172.388 285.319C171.433 284.364 170.382 283.409 170 283.409Z" fill="#C37F67"/>
<path d="M178.118 286.752L176.686 287.707L177.641 288.662C178.023 289.044 179.551 288.662 179.073 287.707L178.118 286.752Z" fill="#EB8561"/>
<path d="M180.983 282.932L178.596 283.887C178.841 284.108 179.551 284.842 180.506 285.319C181.216 285.674 183.152 285.695 182.416 284.364L180.983 282.932Z" fill="#EB8561"/>
<path d="M187.764 280.066L185.281 281.397C185.527 281.619 186.512 282.454 186.989 282.932C187.55 283.493 189.635 282.728 188.899 281.397L187.764 280.066Z" fill="#EB8561"/>
<path d="M193.494 278.156L191.012 279.487C191.257 279.709 193.399 280.544 193.399 280.544C193.399 280.544 195.568 280.442 194.832 279.111L193.494 278.156Z" fill="#EB8561"/>
<path d="M166.18 284.364C160.45 284.842 158.38 283.568 155.197 282.932L153.764 282.454C153.764 282.454 153.618 282.273 152.809 283.887C152 285.5 151.8 286.752 151.8 286.752H153.764C162.36 287.229 168.408 286.274 169.523 283.887L166.18 284.364Z" fill="#C47F67"/>
</svg>
