<svg width="40" height="24" viewBox="0 0 40 24" fill="none" xmlns="http://www.w3.org/2000/svg">
<path d="M4.49438 1.64213V17.995V18.1319H35.3341V1.77898C35.2191 0.410533 34.0881 0.0228074 33.5369 0H6.21968C5.06948 0.109476 4.59023 1.14037 4.49438 1.64213Z" fill="#333333"/>
<path d="M38.8983 19.5267H0.619894C0.247957 19.5267 0.0516578 19.8011 0 19.9382V20.7614C0.681883 23.121 2.76369 23.711 3.71936 23.711H36.1863C38.17 23.711 39.3374 21.9275 39.6732 21.0358V20.2126C39.6112 19.6639 39.1308 19.5267 38.8983 19.5267Z" fill="#333333"/>
<path d="M26.6869 20.1465H12.9305C12.7969 20.1465 12.7263 20.2583 12.7078 20.3142V20.6496C12.9528 21.6109 13.701 21.8513 14.0444 21.8513H25.7122C26.4251 21.8513 26.8447 21.1247 26.9653 20.7614V20.426C26.943 20.2024 26.7704 20.1465 26.6869 20.1465Z" fill="#4BC357"/>
</svg>
