<svg width="30" height="26" viewBox="0 0 30 26" fill="none" xmlns="http://www.w3.org/2000/svg">
<path d="M24.9663 1.49928C24.9663 2.49011 24.0971 2.91165 23.6626 2.99856H3.84598C3.58524 3.06375 3.06375 3.3636 3.06375 4.04154C3.06375 4.71947 3.58524 5.06279 3.84598 5.1497H26.9871C28.6037 5.30615 29.0947 6.69244 29.1382 7.36603V10.3646H23.1411C21.6635 10.5819 18.7084 11.916 18.7084 15.5143C18.7084 19.1126 21.6635 20.5336 23.1411 20.7944H29.1382V23.5322C28.9296 25.2531 27.6172 25.8572 26.9871 25.9441H3.71561C0.951717 25.4226 0.0869148 23.2497 0 22.2285V3.65042C0.365042 0.886531 2.41189 0.0651861 3.38968 0H23.6626C24.0971 0.0869148 24.9663 0.508452 24.9663 1.49928Z" fill="#333333"/>
<path d="M29.0728 18.672V12.4141C27.1824 12.3924 23.3886 12.362 23.3364 12.4141C22.8801 12.4141 20.729 13.1963 20.729 15.543C20.729 17.4204 22.4673 18.4112 23.3364 18.672H29.0728Z" fill="#4BC357"/>
</svg>
