<svg width="37" height="22" viewBox="0 0 37 22" fill="none" xmlns="http://www.w3.org/2000/svg">
<path d="M9.00391 15.0879V21.9018H27.2554V15.0879C26.6065 12.557 24.7137 11.9243 23.8485 11.9243H12.3297C10.1233 12.1839 9.19318 14.1415 9.00391 15.0879Z" fill="#333333"/>
<path d="M0 15.8179V21.9018H6.48942V14.9256C6.61921 13.8224 7.13836 13.1681 7.3006 12.9788H2.92024C0.843624 13.4331 0.108157 15.0608 0 15.8179Z" fill="#4BC357"/>
<path d="M36.3408 15.8179V21.9018H29.8514V14.9256C29.7216 13.8224 29.2025 13.1681 29.0402 12.9788H33.4206C35.4972 13.4331 36.2327 15.0608 36.3408 15.8179Z" fill="#4BC357"/>
<path d="M3.96776 7.79327C4.23645 10.8487 6.79081 11.658 8.03441 11.6808C9.23079 10.1449 11.1018 9.57332 11.8878 9.47951C12.5885 6.65272 12.2097 5.18544 10.4476 3.93627C9.03796 2.93693 7.26889 3.25617 6.56056 3.5407C5.60792 3.87486 3.75566 5.1932 3.96776 7.79327Z" fill="#333333"/>
<path d="M32.4133 7.85834C32.0888 10.9084 29.5201 11.6709 28.2763 11.6709C27.1081 10.1134 25.2479 9.50774 24.4637 9.39958C23.8148 6.56046 24.2204 5.10034 26.005 3.88358C27.4327 2.91016 29.1956 3.26167 29.8986 3.55911C30.845 3.91062 32.6728 5.26258 32.4133 7.85834Z" fill="#333333"/>
<circle cx="18.1706" cy="4.70483" r="4.70483" fill="#333333"/>
</svg>
