<svg width="33" height="30" viewBox="0 0 33 30" fill="none" xmlns="http://www.w3.org/2000/svg">
<path d="M31.0664 0H1.93359C0.867539 0 0 0.867539 0 1.93359V21.1406C0 22.2067 0.867539 23.0742 1.93359 23.0742H31.0664C32.1325 23.0742 33 22.2067 33 21.1406V1.93359C33 0.867539 32.1325 0 31.0664 0Z" fill="#333333"/>
<path d="M28.418 3H4.58203C3.7098 3 3 3.63916 3 4.42458V18.5754C3 19.3608 3.7098 20 4.58203 20H28.418C29.2902 20 30 19.3608 30 18.5754V4.42458C30 3.63916 29.2902 3 28.418 3Z" fill="#F0F0F0"/>
<path d="M26.8125 27.8438H21.5918V25.0078H11.4082V27.8438H6.1875C5.65383 27.8438 5.2207 28.2769 5.2207 28.8105C5.2207 29.3442 5.65383 29.7773 6.1875 29.7773H26.8125C27.3462 29.7773 27.7793 29.3442 27.7793 28.8105C27.7793 28.2769 27.3462 27.8438 26.8125 27.8438Z" fill="#333333"/>
<path d="M12.5223 10.5167H9.87118C9.62782 10.5167 9.43106 10.7134 9.42847 10.9594V17.5871C9.42847 17.833 9.62782 18.0298 9.87118 18.0298H12.5223C12.7682 18.0298 12.965 17.8304 12.965 17.5871V10.9594C12.965 10.7134 12.7656 10.5167 12.5223 10.5167Z" fill="#0085FF"/>
<path d="M17.8255 5.65717H15.1744C14.931 5.65717 14.7317 5.85393 14.7317 6.09729V17.587C14.7317 17.833 14.931 18.0298 15.1744 18.0298H17.8255C18.0714 18.0298 18.2682 17.8304 18.2682 17.587V6.09988C18.2682 5.85393 18.0688 5.65717 17.8255 5.65717Z" fill="#0085FF"/>
<path d="M23.1287 9.19104H20.4776C20.2317 9.19104 20.0349 9.3878 20.0349 9.63375V17.587C20.0349 17.833 20.2343 18.0297 20.4776 18.0297H23.1287C23.3747 18.0297 23.5714 17.8304 23.5714 17.587V9.63375C23.5714 9.3878 23.3721 9.19104 23.1287 9.19104Z" fill="#0085FF"/>
</svg>
