<svg width="41" height="40" viewBox="0 0 41 40" fill="none" xmlns="http://www.w3.org/2000/svg">
<path d="M6.84891 27.2435C6.58607 26.7878 6.00221 26.6293 5.54373 26.8938L0.720427 29.6781C0.263718 29.9424 0.107038 30.5265 0.3707 30.9839L5.30037 39.5221C5.56424 39.9787 6.14803 40.1355 6.60555 39.8718L11.4289 37.0868C11.8862 36.8231 12.0423 36.239 11.7786 35.7817L6.84891 27.2435Z" fill="#333333"/>
<path d="M34.486 25.5393C34.0219 24.8946 33.1236 24.749 32.4797 25.2132C30.526 26.6207 26.7744 29.3236 26.4764 29.539C26.339 29.6559 26.1947 29.7618 26.0443 29.8555C25.4544 30.2267 24.7701 30.4249 24.0558 30.4249H19.1441C18.5781 30.4249 18.1187 29.9662 18.1187 29.3995C18.1187 28.8321 18.5788 28.3741 19.1441 28.3741H24.3969C25.1687 28.3741 25.7866 27.7315 25.7545 26.9584C25.7244 26.2249 25.0982 25.6562 24.3641 25.6562H20.3657C20.095 25.3697 19.7983 25.1072 19.4805 24.8728C18.3874 24.0668 17.0366 23.5903 15.5744 23.5903C12.9747 23.5903 10.388 25.2282 9.31543 27.4144L13.51 34.6789H21.3781C22.923 34.6789 24.4447 34.2838 25.7839 33.5134C26.248 33.2468 26.745 32.9262 27.2837 32.5393C29.5409 30.9178 34.1559 27.549 34.1593 27.547C34.8046 27.0835 34.9509 26.1839 34.486 25.5393Z" fill="#333333"/>
<path d="M19.2667 19.9154C19.3467 20.1113 20.6333 20.7201 21.2667 21L21.5333 21V17.3814C18.5333 15.7719 18.5139 13.2988 18.5139 12.533C18.5139 9.47633 20.6333 8.08776 21.8333 7.81952L22.4333 7.67957L22.3667 11.9732C22.3333 12.3231 22.6667 13.5477 24 13.5477C25.0667 13.5477 25.5667 12.5662 25.5667 11.9732V7.67957C25.9133 7.73555 26.1556 7.7962 26.2333 7.81952C27.4667 8.27436 29.3476 9.96104 29.3476 12.6805C29.3476 15.3999 27.5222 16.8682 26.4 17.3814V21L26.6 21C27.16 20.944 28.0778 20.4169 28.4667 20.1603C28.7333 19.8804 29 20.0437 29.1 20.1603L29.7667 20.8601C29.9533 21.028 30.1333 20.93 30.2 20.8601L31.9667 18.9707C32.0733 18.8868 32.0111 18.7258 31.9667 18.6558L31.1667 17.7812C31.06 17.5852 31.1222 17.373 31.1667 17.2913C31.7267 16.5356 32.1556 15.0871 32.3 14.4573C32.38 14.1495 32.6222 14.0725 32.7333 14.0725H33.7C33.94 14.0445 34 13.8509 34 13.7576V11.2385C34 10.9586 33.8 10.8886 33.7 10.8886H32.7333C32.4133 10.8886 32.2889 10.5854 32.2667 10.4338C32.1333 9.45414 31.5 8.20625 31.2 7.70477C31.04 7.45286 31.1333 7.2266 31.2 7.14497L31.9 6.41023C32.06 6.27028 31.9667 6.07202 31.9 5.99038L30.1333 4.13605C30 3.9961 29.8556 4.07773 29.8 4.13605L29.0333 4.94076C28.8467 5.1087 28.6 5.01073 28.5 4.94076C27.3333 4.10106 26.2333 3.85615 25.8333 3.75117C25.5133 3.66719 25.4556 3.38963 25.4667 3.26135V2.2817C25.3867 2.02979 25.2111 1.99014 25.1333 2.0018H25.0667H22.8C22.5867 2.0018 22.5111 2.1884 22.5 2.2817V3.26135C22.4733 3.59723 22.2667 3.72785 22.1667 3.75117C21.1267 3.97509 19.9111 4.63752 19.4333 4.94075C19.1933 5.10869 18.9333 5.01072 18.8333 4.94075L18.1 4.17103C17.9933 4.05907 17.8556 4.12438 17.8 4.17103L16.0333 5.99038C15.9267 6.07435 15.9667 6.21197 16 6.27028L16.8 7.17995C16.9067 7.43186 16.8444 7.63479 16.8 7.70476C15.9 9.10426 15.7 10.5737 15.7 10.6087C15.62 10.8606 15.3556 10.9703 15.2333 10.9936H14.2667C14.08 10.9936 14.0111 11.1102 14 11.1685V13.7576C14.0267 13.9815 14.1889 14.0608 14.2667 14.0725H15.4C15.6133 14.1844 15.6667 14.3524 15.6667 14.4224C15.72 15.402 16.4889 16.8831 16.8667 17.5013L16.8 17.8861C16.5667 18.1427 16.0933 18.6558 16.0667 18.6558C15.9867 18.7678 16.0333 18.8891 16.0667 18.9357L17.8 20.7551C17.9867 20.867 18.1222 20.7784 18.1667 20.7201L18.9333 19.9154C19.0667 19.8314 19.2111 19.8804 19.2667 19.9154Z" fill="#AA4EF2"/>
</svg>
