<?xml version="1.0" encoding="utf-8"?>
<!-- Generator: Adobe Illustrator 25.3.1, SVG Export Plug-In . SVG Version: 6.00 Build 0)  -->
<svg version="1.1" id="Слой_1" xmlns="http://www.w3.org/2000/svg" xmlns:xlink="http://www.w3.org/1999/xlink" x="0px" y="0px"
	 viewBox="0 0 642.4 655.8" style="enable-background:new 0 0 642.4 655.8;" xml:space="preserve">
<style type="text/css">
	.st0{fill:none;stroke:#BBBCBD;stroke-opacity:0.3;}
	.st1{fill:none;stroke:#BBBCBD;stroke-width:2;}
	.st2{fill:none;stroke:#F0F0F0;stroke-width:4;}
	.st3{fill:none;stroke:#F0F0F0;stroke-width:9;}
	.st4{fill:#BBBCBD;}
	.st5{fill:none;stroke:#BBBCBD;}
	.st6{fill:none;stroke:#F0F0F0;stroke-width:8;}
</style>
<circle class="st0" cx="321.2" cy="334.6" r="320.7"/>
<path class="st1" d="M125.2,80.3c54.2-41.6,122-66.4,195.5-66.4c73.6,0,141.4,24.7,195.5,66.4"/>
<path class="st2" d="M334.6,14.8c-9.5-0.5-19-0.5-28.6,0"/>
<path class="st3" d="M346.9,15c-9.5-0.3-45.6-0.7-55.1-0.1"/>
<path class="st3" d="M635.2,265c-2.5-9.2-13.1-43.7-16.6-52.5"/>
<path class="st3" d="M493.5,605.9c7.8-5.5,36.6-27.2,43.8-33.5"/>
<circle class="st4" cx="320.3" cy="14.7" r="8"/>
<circle class="st1" cx="320.3" cy="14.7" r="13.7"/>
<path class="st2" d="M24.6,212.9c-3.2,9-14.2,43.3-16.5,52.6"/>
<circle class="st5" cx="15.3" cy="239.1" r="14.2"/>
<path class="st2" d="M505.5,598.7c7.2-6.2,14.1-12.8,20.6-19.8"/>
<path class="st6" d="M104.6,570.8c7.3,6.1,35.6,28.5,43.5,33.8"/>
<ellipse transform="matrix(0.9239 -0.3827 0.3827 0.9239 -186.0705 242.219)" class="st5" cx="515.8" cy="588.8" rx="14.2" ry="14.2"/>
<circle class="st5" cx="125.3" cy="588.8" r="14.2"/>
<path class="st2" d="M631,252.8c-2.3-9.2-5-18.4-8.2-27.3"/>
<circle class="st5" cx="626.8" cy="239.1" r="14.2"/>
</svg>
