<svg width="699" height="674" fill="none" xmlns="http://www.w3.org/2000/svg"><circle cx="334.373" cy="352.234" r="320.68" stroke="#3F4245" stroke-opacity=".3"/><path d="M524.259 93.834c55.06 40.413 97.715 98.632 118.219 169.296 20.504 70.664 15.636 142.673-9.242 206.281" stroke="#0085FF" stroke-width="2"/><path d="M347.798 32.362a273.987 273.987 0 00-28.551-.018" stroke="#F0F0F0" stroke-width="4"/><path d="M360.074 32.56c-9.517-.342-45.594-.708-55.095-.058m343.367 250.101c-2.55-9.175-13.11-43.675-16.602-52.535M506.679 623.517c7.764-5.514 36.629-27.16 43.776-33.452" stroke="#F0F0F0" stroke-width="9"/><circle cx="333.532" cy="32.316" r="14.233" stroke="#BBBCBD"/><path d="M37.794 230.442c-3.16 8.983-14.246 43.318-16.454 52.581" stroke="#F0F0F0" stroke-width="4"/><circle cx="28.526" cy="256.696" r="14.233" stroke="#BBBCBD"/><path d="M518.707 616.332a274.197 274.197 0 0020.602-19.765" stroke="#F0F0F0" stroke-width="4"/><path d="M117.836 588.379c7.306 6.108 35.575 28.526 43.477 33.841" stroke="#F0F0F0" stroke-width="8"/><circle cx="529.017" cy="606.412" r="14.233" stroke="#BBBCBD"/><circle cx="138.467" cy="606.412" r="14.233" stroke="#BBBCBD"/><path d="M644.168 270.371a273.965 273.965 0 00-8.25-27.332" stroke="#F0F0F0" stroke-width="4"/><path d="M640 243.157c7.732 0 14 6.268 14 14s-6.268 14-14 14-14-6.268-14-14 6.268-14 14-14z" stroke="#0085FF" stroke-width="2"/><circle cx="639.998" cy="257.155" r="7.998" fill="#0085FF"/></svg>