<svg width="419" height="619" fill="none" xmlns="http://www.w3.org/2000/svg"><path d="M141 560.033l239.5 8.5 8-29.5s-15 1-95 0-152.5 21-152.5 21z" fill="#DDD"/><path d="M76.366 350.588h305.249l-.267 193.024s-158.636 9.05-229.311-56.683c-70.674-65.732-75.671-136.341-75.671-136.341z" fill="#9A7E72"/><path d="M78.277 348.942H379.34v68.743s-58.707 1.928-141.5-11.039c-82.792-12.968-159.563-55.195-159.563-55.195v-2.509z" fill="#8C7165"/><path d="M377.333 345.429h12.876v189.403l-12.876 44.424V345.429z" fill="#81665A"/><path d="M109.79 313.699h309.181l.029 36.889H11.263l98.527-36.889z" fill="#E7C593"/><path d="M233.866 347.156c-1.164-.214-1.746-.428-2.327-1.499-.582-1.071-.291-1.928-.291-1.928l21.816-29.982h130.901c.872 1.285 22.398 30.625 22.398 30.625s-.173 1.412-.873 1.927c-.699.515-1.745.429-3.199.429-8.145 0-167.262.642-168.425.428z" fill="#3A3A3A"/><path d="M247.921 321.127s-16.554 22.054-16.554 22.919c0 .865.581 1.298 1.161 1.73.581.432 172.218-.216 172.218-.216l1.742-.865-9.293-12.541-13.069-18.379H253.148l-5.227 7.352z" fill="#B6CCD7"/><path d="M300.135 338.397h30.518l1.761 4.401h-34.333l2.054-4.401z" fill="#242960"/><path d="M253.001 244.61c0 2.403.129 52.813.129 52.813v16.781l130.934-.279-.871-64.568v-4.731c0-3.329-2.614-3.062-4.937-3.062H256.607c-2.256 0-3.606.644-3.606 3.046z" fill="#3A3A3A"/><path d="M256.571 246.017h122.556l1.161 64.569H256.571v-64.569z" fill="#808C92"/><path d="M247.421 333.995h5.763l-1.281 2.641h-5.762l1.28-2.641zm3.361-3.521h5.042l-1.121 1.76h-5.042l1.121-1.76zm1.921-4.402h5.762l-1.28 2.641h-5.762l1.28-2.641zm2.481-3.522h5.042l-1.121 1.761h-5.042l1.121-1.761zm1.761-3.521h5.042l-1.12 1.761h-5.042l1.12-1.761zm36.975 11.445h5.041l-1.12 1.76h-5.042l1.121-1.76zm1.76-4.402h5.042l-1.12 2.641h-5.042l1.12-2.641zm2.641-3.522h5.042l-1.121 1.761H297.2l1.121-1.761zm1.761-3.521h5.042l-1.121 1.761h-5.042l1.121-1.761zm90.035 14.966h-5.762l1.28 2.641h5.762l-1.28-2.641zm-2.482-3.521h-5.042l1.121 1.76h5.042l-1.121-1.76zm-112.203 3.521h5.042l-1.12 2.641h-5.042l1.12-2.641zm2.802-3.521h5.762l-1.281 1.76h-5.762l1.281-1.76zm2.48-4.402h5.042l-1.121 2.641h-5.041l1.12-2.641zm2.641-3.522h5.042l-1.121 1.761h-5.042l1.121-1.761zm1.761-3.521h5.042l-1.121 1.761h-5.042l1.121-1.761zm36.094 11.445h5.042l-1.121 1.76h-5.042l1.121-1.76zm2.641-4.402h5.042l-1.12 2.641h-5.042l1.12-2.641zm1.92-3.522h5.763l-1.281 1.761h-5.762l1.28-1.761zm1.761-3.521h5.763l-1.281 1.761h-5.762l1.28-1.761zm34.574 14.966h-5.042l1.12 2.641h5.042l-1.12-2.641zm-2.642-3.521h-5.042l1.121 1.76h5.042l-1.121-1.76zm5.123-4.402h-5.763l1.281 2.641h5.762l-1.28-2.641zm-2.481-3.522h-5.042l1.12 1.761h5.042l-1.12-1.761zm-2.641-3.521h-5.042l1.12 1.761h5.042l-1.12-1.761zm-11.445 3.521h-5.042l1.121 1.761h5.042l-1.121-1.761zm-1.92-3.521h-5.762l1.28 1.761h5.763l-1.281-1.761zm-84.593 14.966h5.762l-1.28 2.641h-5.763l1.281-2.641zm3.361-3.521h5.041l-1.12 1.76h-5.042l1.121-1.76zm1.761-4.402h5.042l-1.12 2.641h-5.042l1.12-2.641zm2.641-3.522h5.042l-1.121 1.761h-5.042l1.121-1.761zm1.761-3.521h5.042l-1.121 1.761h-5.042l1.121-1.761zm36.253 11.445h5.763l-1.281 1.76h-5.762l1.28-1.76zm2.482-4.402h5.042l-1.121 2.641h-5.042l1.121-2.641zm2.64-3.522h5.042l-1.12 1.761h-5.042l1.12-1.761zm1.762-3.521h5.042l-1.121 1.761h-5.042l1.121-1.761zm62.023 14.966h-5.042l1.121 2.641h5.042l-1.121-2.641zm-2.641-3.521h-5.041l1.12 1.76h5.042l-1.121-1.76zm5.122-4.402h-5.762l1.28 2.641h5.763l-1.281-2.641zm-2.481-3.522h-5.042l1.12 1.761h5.042l-1.12-1.761zm-2.641-3.521h-5.041l1.12 1.761h5.042l-1.121-1.761zm-83.105 14.966h47.845l1.167 2.641h-50.179l1.167-2.641zm-35.981 0h5.762l-1.281 2.641h-5.762l1.281-2.641zm3.361-3.521h5.042l-1.12 1.76h-5.042l1.12-1.76zm1.921-4.402h5.763l-1.281 2.641h-5.762l1.28-2.641zm2.481-3.522h5.042l-1.121 1.761h-5.042l1.121-1.761zm1.76-3.521h5.042l-1.12 1.761h-5.042l1.12-1.761zm36.254 11.445h5.763l-1.281 1.76h-5.762l1.28-1.76zm2.482-4.402h5.042l-1.121 2.641h-5.041l1.12-2.641zm2.641-3.522h5.042l-1.121 1.761h-5.042l1.121-1.761zm1.761-3.521h5.042l-1.121 1.761h-5.042l1.121-1.761zm76.109 14.966h-5.042l1.121 2.641h5.041l-1.12-2.641zm-2.642-3.521h-5.042l1.121 1.76h5.042l-1.121-1.76zm4.403-4.402h-5.042l1.12 2.641h5.042l-1.12-2.641zm-2.642-3.522h-5.042l1.12 1.761h5.042l-1.12-1.761zm-2.64-3.521h-5.042l1.12 1.761h5.042l-1.12-1.761zm-97.238 14.966h5.042l-1.12 2.641h-5.042l1.12-2.641zm2.801-3.521h5.762l-1.28 1.76h-5.763l1.281-1.76zm2.481-4.402h5.042l-1.12 2.641h-5.042l1.12-2.641zm2.641-3.522h5.041l-1.12 1.761h-5.042l1.121-1.761zm1.761-3.521h5.042l-1.121 1.761h-5.042l1.121-1.761zm36.093 11.445h5.042l-1.12 1.76h-5.042l1.12-1.76zm2.642-4.402h5.042l-1.121 2.641h-5.042l1.121-2.641zm24.169 7.923h-5.042l1.121 2.641h5.042l-1.121-2.641zm-2.641-3.521h-5.042l1.121 1.76h5.041l-1.12-1.76zm5.122-4.402h-5.762l1.28 2.641h5.763l-1.281-2.641zm-2.482-3.522h-5.042l1.121 1.761h5.042l-1.121-1.761zm-2.64-3.521h-5.042l1.121 1.761h5.042l-1.121-1.761zm-11.445 3.521h-5.042l1.12 1.761h5.042l-1.12-1.761zm7.043 11.445h-5.042l1.121 2.641h5.042l-1.121-2.641zm-1.92-3.521h-5.763l1.281 1.76h5.762l-1.28-1.76zm3.628-4.402h-11.151l1.174 2.641h11.151l-1.174-2.641zm-81.338 7.923h5.042l-1.121 2.641h-5.041l1.12-2.641zm2.8-3.521h5.763l-1.281 1.76h-5.762l1.28-1.76zm2.481-4.402h5.042l-1.12 2.641h-5.042l1.12-2.641zm2.641-3.522h5.042l-1.12 1.761h-5.042l1.12-1.761zm1.762-3.521h5.042l-1.121 1.761h-5.042l1.121-1.761zm36.253 11.445h5.762l-1.281 1.76h-5.762l1.281-1.76zm2.481-4.402h5.042l-1.12 2.641h-5.042l1.12-2.641zm2.641-3.522h5.042l-1.121 1.761h-5.042l1.121-1.761zm1.761-3.521h5.042l-1.12 1.761h-5.042l1.12-1.761zm47.939 14.966h-5.042l1.12 2.641h5.042l-1.12-2.641zm-2.642-3.521h-5.042l1.12 1.76h5.042l-1.12-1.76zm5.122-4.402h-5.762l1.28 2.641h5.763l-1.281-2.641zm-2.48-3.522h-5.042l1.12 1.761h5.042l-1.12-1.761zm-2.642-3.521h-5.042l1.121 1.761h5.042l-1.121-1.761z" fill="#242960"/><path d="M189 587.5c0 8.56-28.702 15.5-68 15.5s-68-6.94-68-15.5c0-8.56 28.702-15.5 68-15.5s68 6.94 68 15.5z" fill="#DDD"/><path d="M88.087 579.961c23.953-11.02 40.463-31.113 45.213-39.194l4.28-.021 18.78 2.971.504 1.22c.884 8.572-1.524 13.923-2.227 19.128-3.879 7.598-10.917 12.756-15.345 13.506l1.037-3.519-2.074 2.615c-4.822 9.127-28.617 17.294-39.47 15.189-8.642-1.677-11.052-4.528-12.328-6.365l1.63-5.53z" fill="#15161A"/><path d="M132.392 553.891c-.303.036-4.069-2.522-5.328-3.689-9.28 12.422-28.745 25.615-36.103 28.767l-.787.745c22.653-1.959 42.521-25.859 42.218-25.823z" fill="#474747"/><path d="M103.248 607.909c17.34-19.863 24.174-44.955 25.198-54.273l3.896-1.771 18.351-4.98.959.907c4.316 7.458 4.311 13.326 5.8 18.362-.427 8.52-4.735 16.108-8.468 18.606l-.494-3.635-.822 3.235c-.661 10.301-19.026 27.497-29.788 30.019-8.572 2.01-11.938.396-13.854-.758l-.778-5.712z" fill="#15161A"/><path d="M140.014 559.114s-9.139-.412-11.417-1.142c-1.713 9.134-3.996 14.272-7.421 21.693l10.275.571c10.275-17.126 8.563-21.122 8.563-21.122z" fill="#5A5A5A"/><path d="M143.714 584.176c-2.829 9.205-7.678 15.427-14.416 21.753l-2.585 2.283-3.879 3.424c10.665-6.761 16.872-12.433 21.719-21.299 2.594-4.745 1.14-10.276.692-12.644l-1.531 6.483z" fill="#474747"/><path d="M100.012 100.969L88.945 90.312c1.252-1.59 6.149-11.067 6.149-11.067l.41-1.64 4.508 7.788s1.23 4.51 2.459 4.92c1.23.409 10.657-4.51 12.297-4.1 1.639.41 4.227-2.084 6.558-2.459 2.387-.384 3.679-.44 4.509 2.05l-4.099 1.639-3.279 2.46c-1.23.819-2.87 1.639-4.919 2.459-2.211.884-6.148.41-9.427 3.279-3.279 2.869-3.291 4.904-4.099 5.328z" fill="#FCA282"/><path d="M107.32 89.95c-4.576-.434-7.453 1.627-8.32 2.712 1.5.838 3 2.838 3.5 4.338 2.08-3.037 6.8-3.738 9.5-4.338 4.495-1 7.765-3.79 9.673-5.417l.007-.006L125 86l-.52-.93c-2.912-.434-5.373 1.265-6.24 2.169-1.733 1.084-6.344 3.145-10.92 2.711z" fill="#C37F67"/><rect x="132.858" y="53.937" width="22.271" height="43.775" rx="2" transform="rotate(65.374 132.858 53.937)" fill="#2F1E14"/><path d="M129.774 56.726a2 2 0 012.622.9l7.128 13.877a2 2 0 01-.943 2.73L106.33 89.07a2 2 0 01-2.65-.973L97.166 74.09a2 2 0 01.97-2.657l31.638-14.708z" fill="#464443"/><path d="M102.412 68.033s-.327-1.546-1.062-2.088c-2.122-1.565-4.246 0-3.715 2.089.53 2.088 1.882 2.408 3.185 2.087 2.123-.522 1.592-2.088 1.592-2.088zm6.548-2.005s-.381-1.803-1.238-2.436c-2.477-1.827-4.954 0-4.335 2.436.619 2.436 2.196 2.81 3.716 2.436 2.477-.61 1.857-2.436 1.857-2.436zm5.738-2.459s-.381-1.804-1.238-2.436c-2.477-1.827-4.954 0-4.335 2.436.619 2.436 2.196 2.81 3.716 2.435 2.477-.609 1.857-2.436 1.857-2.436zm4.929-2.914s-.327-1.546-1.062-2.088c-2.122-1.566-4.246 0-3.715 2.088.531 2.088 1.882 2.408 3.185 2.088 2.123-.522 1.592-2.088 1.592-2.088z" fill="#FCA282"/><path d="M94.273 74.737c-1.23-2.46 0-2.87.41-3.28l9.428 20.085c-1.64.82-2.46-.547-2.87-1.64-1.912-3.962-5.715-12.66-6.968-15.165z" fill="#444240"/><path d="M129.831 554.689l-.743-5.458-.087-.634 20.677-6.124.534 6.96s-2.456 3.23-8.844 4.926c-6.387 1.697-11.537.33-11.537.33z" fill="#E49072"/><path d="M75.394 201.154c16.318-2.572 58.211-14.099 58.211-14.099s-5.528-25.277-13.004-56.688l-50.963 35.769 33.698-65.492s-.003-5.969-6.085-9.344c-6.082-3.376-9.008-1.685-9.008-1.685S33.1 174.034 28.547 189.406c-4.554 15.372 27.938 14.729 46.847 11.748z" fill="#BED4E1"/><path d="M62.336 193.737l-25.452 6.926s21.452 1.961 32.656.887c11.203-1.074 38.976-8.311 45.318-9.984a436.306 436.306 0 0111.541-2.876l3.941-1.127-5.357-20.211s-14.973 7.27-29.384 13.525c-14.41 6.255-33.263 12.86-33.263 12.86z" fill="#A8C1D0"/><path d="M135.261 546.924v-6.149l21.314-3.279-.41 6.968s-2.869 2.869-9.427 3.689c-6.558.82-11.477-1.229-11.477-1.229z" fill="#D47C5C"/><circle cx="103.701" cy="79.655" r="2.049" fill="#706C6A"/><path d="M228.304 301.812h-73.369l-14.756 87.306-2.049 154.526h19.674c23.282-51.154 31.288-95.913 32.381-111.899 18.445-46.316 28.283-78.287 35.66-102.061l2.459-27.872z" fill="#2A3958"/><path d="M108.209 443.632l-1.64-15.575s5.329-31.971 7.788-55.335c2.459-23.363 8.198-72.549 8.198-72.549l39.758 1.639 3.689 33.611-3.689 24.593-11.067 74.189 2.05 111.078c-2.295 8.198-17.898 8.061-25.413 6.968l-19.674-108.619z" fill="#2A3958"/><path d="M149.101 430.074l17.076-82.36-19.74 79.904.112 2.456.094 2.048c3.097 3.141 2.581 5.626 1.936 6.476l-1.916 2.96.559 3.257c5.259 21.753 6.709 75.085 4.844 97.189 6.149-59.433-.73-87.94-2.965-100.968l2.289-3.797-.553-3.034-1.736-4.131z" fill="#62718F"/><path d="M211.909 337.062l7.788 2.46s-6.149 26.437-13.526 47.546c-7.378 21.109-19.265 43.858-19.265 43.858s11.887-31.151 16.805-51.646c4.919-20.494 8.198-42.218 8.198-42.218zm-88.945-25.823l1.23-9.893h16.805c-1.639 9.893-9.355 21.291-19.674 21.78l1.639-11.887z" fill="#212D46"/><path d="M226.85 317.943l1.865-14.081h-34.008c-3.798 27.252 14.04 37.256 26.887 38.529l5.256-24.448z" fill="#212D46"/><path d="M228.021 292.388H121.394v8.959l44.199 2.105 62.428 1.639v-12.703z" fill="#1C1E20"/><path d="M154.046 293.927c0-.69.56-1.25 1.25-1.25h18.703c.69 0 1.25.56 1.25 1.25v8.681a1.25 1.25 0 01-1.295 1.249l-18.703-.676a1.25 1.25 0 01-1.205-1.249v-8.005z" stroke="#C6C6C6" stroke-width="1.5"/><path d="M154.116 298.74a.961.961 0 01.974-.946l10.098.144a.96.96 0 01-.027 1.92l-10.099-.144a.961.961 0 01-.946-.974z" fill="#C4C4C4"/><path d="M155.299 290.647c1.105 0 2.003.896 2.003 2v9.215a2.003 2.003 0 01-4.006 0v-9.215c0-1.104.898-2 2.003-2z" fill="#F3F3F3"/><path d="M120.096 130.071l18.097-9.516 8.355-5.834 10.958 16.28 26.088.08 11.51-19.455 49.355 27.585-7.827 31.532-4.638 33.927-3.689 45.087v46.317h-61.483c-25.003 0-47.437-1.576-47.437-1.576 0-9.609 1.23-33.674.711-49.25-.52-15.575-4.509-41.398-4.509-65.171 0 0-.205-6.968.82-20.904s3.689-29.102 3.689-29.102z" fill="#CADFEC"/><path d="M151.656 119.414v-8.198l51.236-.82-7.788 4.509-2.869 3.279-40.579 1.23z" fill="#728E9F"/><path d="M155.608 95.658l41.152-11.477v31.544s-12.9 14.436-27.134 14.436c-14.235 0-14.018-13.421-14.018-13.421V95.658z" fill="#EDA58B"/><path d="M154.526 102.199s1.949 4.918 15.166 4.918c13.216 0 26.642-19.674 26.642-19.674L194.285 94s-9.415 18.855-23.761 20.084c-14.346 1.23-14.768-8.607-14.768-8.607l-1.23-3.279z" fill="#D57C5C"/><path d="M163.31 295.864l-2.321-.083 5.049-150.527 2.66-.635-3.016 151.33-2.372-.085z" fill="#BED4E1"/><path d="M156.634 268.266l8.461-126.899.04-1.506 5.631.146 1.438 128.665s-7.093 11.828-8.917 11.78c-1.824-.048-6.653-12.186-6.653-12.186z" fill="#FFBF1C"/><path d="M171.331 128.431l-.41.82-6.968-.82-3.689 9.018 4.944 8.197h5.303l5.738-11.066-4.918-6.149z" fill="#FFBF1C"/><path d="M169.555 144.827h-4.782v2.623s.956.656 2.869.656c1.913 0 2.869-.656 2.869-.656v-2.623h-.956zm-3.553-11.067l1.23-3.279.41-1.23-2.05-.409-.41-.001-5.328 7.788 2.869 4.509 1.64-3.689 1.639-3.689z" fill="#DCA61B"/><path d="M156.067 144.007l10.765-16.106-15.273-16.685-7.788 4.509-8.51 4.735 20.806 23.547zm22.133 1.64l-8.608-17.626 33.201-17.625 6.968 6.149 4.099 3.689-35.66 25.413z" fill="#B6CEDC"/><path d="M209.86 66.129c2.874-5.94 3.689-23.773 4.919-31.151l-12.297 11.476c-2.186 7.105-10.575 18.527-10.247 27.053.22 5.717 9.569 10.796 14.756 8.197 4.482-2.245 6.148-6.968 6.148-6.968s-9.427 4.1-3.279-8.607z" fill="#723E28"/><path d="M134.851 56.701l.819-3.884-1.123-8.681-.005-.017c-.925-3.417-2.04-7.54.005-14.245 1.943-6.373 10.999-10.334 13.587-9.3 13.156.206 39.986.62 42.057.62 10.87-.496 16.175 5.58 17.47 8.68-.432 4.547-1.753 14.053-2.589 16.122-2.276 5.638-1.361 7.44-1.361 6.82 2.05-4.722 8.198-4.754 8.198 0 0 4.755-4.248 19.051-10.247 17.002 0 6.968-1.64 11.886-7.378 22.133-9.835 12.897-17.215 18.445-31.971 18.445s-23.299-29.89-24.593-33.61c-1.035-2.977-2.869-10.657-2.869-10.657l-.304-4.1.304-5.328z" fill="#FFB499"/><ellipse rx="4.5" ry="5.5" transform="scale(-1 1) rotate(-4.04 731.933 2507.793)" fill="#2F1E14"/><ellipse rx="4.5" ry="5.5" transform="scale(-1 1) rotate(-4.04 746.433 2096.714)" fill="#2F1E14"/><ellipse rx="1.685" ry="1.962" transform="matrix(-.99995 -.01025 -.0049 .99999 173.445 56.417)" fill="#fff"/><ellipse rx="1.685" ry="1.962" transform="matrix(-.99995 -.01025 -.0049 .99999 144.445 56.417)" fill="#fff"/><path d="M129.683 23.033c-2.588 7.44 3.011 28.897 5.168 35.718 1.229-2.87 2.049-7.788 1.639-11.887-1.639-13.936 2.81-22.185 7.987-23.011-1.553 6.448 5.392 9.714 9.058 10.54-5.176-6.944-.431-9.92 2.588-10.54 22.646 0 28.306-3.082 36.521 2.107 7.788 4.919 5.739 26.233 2.05 34.02l10.247-7.377c14.882-14.882 13.291-32.48 10.012-36.99-2.007-2.76-5.394-6.436-13.633-9.088-5.222-1.682-11.396-3.805-19.996-5-32.72-4.544-38.275 1.892-39.095 8.45-.518-.992-5.739-.957-8.198 1.23-3.689 3.279-4.132 6.66-4.348 11.828z" fill="#723E28"/><path d="M204.118 65.205c-1.781-1.31-.376-9.587 1.604-11.987 1.534-1.86 3.987-1.577 3.147 4.132-.585 3.977-3.563 8.727-4.751 7.855z" fill="#B75532"/><path d="M148.3 82.855h27.96c-1.676 2.925-6.688 10.165-15.681 10.165-8.994 0-11.609-7.91-12.279-10.165z" fill="#fff" stroke="#D2765C" stroke-width="2"/><path d="M174.673 45.769c2.992.815 8.957 1.584 11.565 1.866 1.857 1.02-1.137 1.835-2.083 2.006-3.463.343-7.999-.25-10.52-.293-1.157-.02-5.159-.763-7.029-1.273-.508-.568-1.136-2.112.414-3.749 1.939-2.046 3.913.423 7.653 1.443zm-28.138.595c-2.306.763-7.001 1.444-9.061 1.69-1.373.977 1.119 1.81 1.897 1.99 2.815.377 6.385-.15 8.401-.163.925-.005 4.05-.685 5.491-1.162.344-.55.673-2.055-.755-3.677-1.786-2.027-3.09.368-5.973 1.322z" fill="#77432D"/><path d="M152.887 71.458c-1.637 4.766 1.32 5.328 3.37 5.328h6.558c4.509 0 3.572-4.704 1.99-5.715-1.941-1.24-3.408-3.72-4.055-5.58-.647-1.861-.474-12.402-.474-13.022-1.036-1.984-2.157-.827-2.588 0l-1.431 7.922c-.82 3.279-1.321 5.1-3.37 11.067z" fill="#E98F6F"/><path d="M227.485 249.757c2.869-33.201 2.869-40.579 5.328-49.186l1.64-5.739v-7.378h-3.279l-1.23 2.869s-4.66 18.035-6.149 27.463c-1.488 9.427-4.508 23.363-9.017 37.709-4.509 14.346-15.985 33.201-22.544 40.169h35.251v-45.907zm-37.3-44.268c-7.788-.41-10.657-1.646-10.657-1.646l-.906-28.685 30.008.82-2.46 29.102s-8.197.819-15.985.409z" fill="#A8C1D0"/><path d="M211.702 312.174l13.935 9.709c.004 2.964-9.314 18.868-9.314 18.868l-2.713-1.072-2.706-.948-3.093-1.669-2.87-2.049-2.261-1.933-2.657-2.986-2.521-4.548s5.054-4.243 6.21-5.289c2.968-2.687 7.446-6.863 7.99-8.083z" fill="#FCA282"/><path d="M213.5 339.5c3.6-8 6.167-15.667 7-18.5v-.5l4 3v.5c-.4 2.4-5.833 12-8.5 16.5l-2.5-1z" fill="#C37F67"/><path d="M101.07 68.546s.838-.95 0-1.509c-1.662.641-2.257.984-2.64 1.132 0 0 0 .377.377.754s1.509 0 1.509 0c.306-.118.754-.377.754-.377zm6.522-1.999s1.08-1.224 0-1.943c-2.141.826-2.908 1.267-3.402 1.458 0 0 0 .486.486.972.486.485 1.944 0 1.944 0 .395-.153.972-.487.972-.487zm5.732-2.459s1.08-1.225 0-1.944c-2.141.826-2.908 1.267-3.402 1.458 0 0 0 .486.486.972s1.944 0 1.944 0c.395-.153.972-.486.972-.486zm4.93-3.258s.828-.94-.001-1.492c-1.642.633-2.23.972-2.609 1.118 0 0 0 .373.373.746.372.373 1.491 0 1.491 0 .303-.117.746-.373.746-.373z" fill="#EB8561"/><path d="M271.341 250.577c4.216-10.539-17.445-100.559-26.884-111.265-14.924 22.73-16.916 54.5-14.514 65.358l12.707 43.447-15.576 32.791-16.805 31.561 16.395 11.887c22.134-33.611 37.3-55.334 44.677-73.779z" fill="#BED4E1"/><path d="M260.275 214.917l11.067 31.561s-2.05-25.413-8.608-49.596c-6.558-24.183-4.58-18.553-9.017-32.79-5.329-19.265-9.428-24.184-9.428-24.184-1.23 2.87-5.329 8.198-3.689 19.265l19.675 55.744zm-181.987-70.5l-9.018 21.314s11.067-20.904 14.756-28.282l8.198-16.395c8.607-16.396 10.657-20.495 10.657-20.495-.001-1.23-1.23-4.918-2.869-6.558l-21.724 50.416z" fill="#A8C1D0"/></svg>