<svg width="510" height="546" fill="none" xmlns="http://www.w3.org/2000/svg"><path d="M295.956 460.308c-25.17-11.58-42.518-32.694-47.509-41.185l-4.497-.022-19.735 3.122-.529 1.282c-.928 9.008 1.601 14.63 2.341 20.099 4.075 7.984 11.471 13.404 16.123 14.192l-1.089-3.697 2.18 2.748c5.066 9.59 30.07 18.172 41.473 15.96 9.082-1.762 11.614-4.758 12.955-6.688l-1.713-5.811z" fill="#15161A"/><path d="M249.401 432.914c.319.038 4.276-2.65 5.599-3.876 9.751 13.052 30.205 26.916 37.937 30.227l.827.783c-23.804-2.058-44.681-27.172-44.363-27.134z" fill="#474747"/><ellipse cx="31.039" cy="476.808" rx="12.893" ry="13.371" fill="#2F2F2F"/><path d="M28.652 468.269c17.466-34.423 59.464-46.215 78.28-47.809h3.727l5.858 1.594-3.195 9.561c-50.057 1.063-70.825 36.654-72.422 38.247-1.598 1.594-12.248 2.125-12.248-1.593z" fill="#4D4D4D"/><ellipse cx="36.77" cy="479.674" rx="12.893" ry="13.371" fill="#393939"/><path d="M25.333 483.971c-2.383-9.55 4.303-14.485 7.943-15.758l3.971.477c-9.431 3.317-9.762 13.212-8.439 16.714-.662-.159-3.078-1.051-3.475-1.433z" fill="#777"/><path d="M19.13 478.719c-.914-7.394 4.746-12.894 7.422-13.769l2.428.398c-6.402 2.865-8.864 9.073-7.88 14.326-.563-.186-1.652-.59-1.97-.955z" fill="#666"/><ellipse cx="60.928" cy="405.659" rx="11.012" ry="11.42" transform="rotate(129.45 60.928 405.659)" fill="#2F2F2F"/><path d="M66.508 396.654c-4.128-2.865-8.985-1.55-10.897-.535 9.044-1.113 12.219 4.722 12.676 7.779l2.773-.24c.203-1.141-.424-4.139-4.552-7.004z" fill="#666"/><path d="M61.123 396.584c37.687-8.35 69.896 17.356 83.07 30.885l2.366 2.88 2.486 5.539-9.417 3.599c-32.592-38.008-77.072-35.263-80.415-35.263-3.342 0-5.73-5.948 1.91-7.64z" fill="#4D4D4D"/><path d="M61.124 397.591c30.69-5.522 59.617 6.748 74.787 16.888-.163.693-1.319 2.63-2.2 1.897-20.247-13.744-36.5-16.61-45.746-18.191-9.246-1.58-17.758-1.732-26.841-.594z" fill="#fff"/><ellipse cx="55.929" cy="407.883" rx="11.012" ry="11.42" transform="rotate(129.45 55.929 407.883)" fill="#393939"/><path d="M56.826 397.539c-4.966-.764-8.755 2.546-10.028 4.297 7.64-4.966 13.052-1.114 14.803 1.433l2.388-1.433c-.319-1.114-2.197-3.533-7.163-4.297z" fill="#777"/><path d="M37.247 456.275c20.056-23.877 50.14-32.95 68.287-34.86.318.637.668 2.865-.478 2.865-24.354 2.388-38.68 10.581-46.797 15.281-8.118 4.7-14.759 10.028-21.012 16.714z" fill="#fff"/><path d="M280.025 489.675c-18.221-20.872-25.401-47.238-26.478-57.03l-4.093-1.861-19.283-5.233-1.008.953c-4.535 7.837-4.53 14.003-6.095 19.295.449 8.953 4.976 16.926 8.898 19.55l.52-3.819.864 3.4c.694 10.824 19.991 28.893 31.301 31.544 9.006 2.111 12.543.415 14.557-.797l.817-6.002z" fill="#15161A"/><path d="M241.392 438.401s9.604-.433 11.997-1.199c1.8 9.598 4.199 14.996 7.798 22.794l-10.797.6c-10.798-17.996-8.998-22.195-8.998-22.195z" fill="#5A5A5A"/><path d="M3.29 148.675c-1.781-15.499 9.907-29.279 25.49-30.05l126.893-6.28c14.806-.733 27.433 10.608 28.29 25.407l7.708 133.224c.731 12.628-7.404 24.071-19.572 27.53L55.885 331.543c-16.02 4.555-32.304-6.341-34.206-22.888L3.29 148.675z" fill="#527A9F"/><path d="M21.527 301.269c1.387 6.749 9.431 20.063 31.001 20.82 8.118 0 24.195-6.208 32.95-8.595l14.326-4.776 1.91 9.073-49.186 13.849c-10.505 1.432-20.63-3.438-24.831-9.551-4.155-6.043-5.073-15.229-6.17-20.82zm18.586 35.624l71.629-21.012 50.14-11.46 112.22 70.674-152.332 48.708c-17.032-13.053-62.747-47.275-73.062-54.916-10.314-7.64-10.505-26.423-8.595-31.994z" fill="#426687"/><path d="M46.798 356.949c-4.776-6.208-6.526-15.281-6.686-18.146-1.432 6.685 0 17.668 5.253 25.786 5.253 8.118 61.028 46.607 62.556 47.753 1.528 1.146-.796-6.208-1.432-9.551 0 0-54.916-39.634-59.691-45.842z" fill="#345473"/><path d="M237.504 464.736c2.973 9.672 8.069 16.211 15.148 22.858l2.717 2.399 4.075 3.598c-11.206-7.105-17.728-13.065-22.821-22.381-2.726-4.986-1.198-10.799-.727-13.287l1.608 6.813z" fill="#474747"/><path d="M181.734 513.685l.781-5.735.091-.667-21.728-6.435-.56 7.313s2.58 3.394 9.292 5.178c6.712 1.783 12.124.346 12.124.346z" fill="#E49072"/><path d="M212.023 260.011c-14.389-9.709-43.455-80.225-43.455-80.225s19.045-38.332 23.132-35.641c4.087 2.691 16.502 32.298 22.233 47.102 5.73 14.803 15.759 43.454 15.759 43.454l39.157 23.4s15.377 16.726 22.669 16.219c7.291-.507 9.325 2.404 9.325 2.404s-28.174 6.686-47.275 0c-19.101-6.685-24.871-5.462-41.545-16.713z" fill="#BED4E1"/><path d="M217.275 254.758l18.147 15.758s-17.192-4.818-26.742-14.803c-9.55-9.985-18.146-29.13-19.579-39.635-1.432-10.506-7.163-15.759-7.163-15.759l-3.342-7.163 16.236-20.533s2.388 30.562 6.208 48.23c3.82 17.669 16.235 33.905 16.235 33.905z" fill="#A8C1D0"/><path d="M176.028 505.525v-6.461l-22.396-3.445.43 7.322s3.015 3.015 9.906 3.876c6.892.861 12.06-1.292 12.06-1.292z" fill="#D47C5C"/><path d="M79.27 321.612h57.303l30.562 74.494 17.669 96.461H164.13c-8.456 0-31.661-40.984-32.81-57.781-19.382-48.669-38.35-50.141-46.32-75.927-7.97-25.787-5.73-37.247-5.73-37.247z" fill="#2A3958"/><path d="M248.793 405.657l-7.58-24.832s-2.447-7.124-15.342-28.174-57.635-44.346-57.635-44.346l-36.973 19.529 33.485 24.817 23.399 28.174 22.921 41.545 30.145 46.798c5.883 6.739 20.622 11.016 27.256 6.582l-19.676-70.093z" fill="#2A3958"/><path d="M161.485 382.742l-17.944-86.543 20.742 83.962-.117 2.581-.099 2.152c-3.254 3.3-2.712 5.912-2.034 6.805l2.013 3.11-.587 3.423c-5.526 22.857-7.049 78.898-5.091 102.126-6.46-62.452.768-92.407 3.117-106.097l-2.405-3.99.58-3.188 1.825-4.341z" fill="#62718F"/><path d="M95.487 285.006l-8.183 2.584s6.46 27.781 14.213 49.962c7.753 22.181 20.243 46.085 20.243 46.085s-12.49-32.733-17.659-54.268c-5.168-21.536-8.614-44.363-8.614-44.363zm93.463 49.275l-1.292-10.396h-17.659c1.723 10.396 9.83 22.372 20.674 22.886l-1.723-12.49z" fill="#212D46"/><path d="M82.612 346.921c-2.387-10.506-2.874-20.392-2.874-20.392h35.736c3.99 28.636-12.844 39.149-26.344 40.486 0 0-4.13-9.589-6.517-20.094z" fill="#212D46"/><path d="M78.558 314.472H190.6v9.414l-46.444 2.212-65.6 1.723v-13.349z" fill="#1C1E20"/><path d="M156.328 315.988c0-.69-.56-1.25-1.25-1.25h-19.856c-.691 0-1.25.56-1.25 1.25v9.328a1.25 1.25 0 001.295 1.25l19.856-.717a1.25 1.25 0 001.205-1.25v-8.611z" stroke="#C6C6C6" stroke-width="1.5"/><path d="M156.215 321.147a1.007 1.007 0 00-1.014-.994l-10.629.151a1.009 1.009 0 00.029 2.018l10.629-.152c.552-.008.993-.471.985-1.023z" fill="#C4C4C4"/><path d="M154.867 312.643a2 2 0 00-2 2v9.886a2 2 0 002 2h.21a2 2 0 002-2v-9.886a2 2 0 00-2-2h-.21z" fill="#F3F3F3"/><path d="M191.964 143.911l-19.017-10-8.778-6.13-11.515 17.107-27.413.084-12.095-20.443-51.862 28.986 8.224 33.133 4.874 35.65 3.877 47.378v48.669h64.605c26.273 0 49.847-1.656 49.847-1.656 0-10.097-1.293-35.384-.747-51.751.546-16.367 4.737-43.501 4.737-68.482 0 0 .216-7.322-.861-21.966-1.077-14.643-3.876-30.579-3.876-30.579z" fill="#CADFEC"/><path d="M158.8 132.712l-1.693-9.275-54.916 1.91 7.641 7.365 6.207 2.186 42.761-2.186z" fill="#728E9F"/><path d="M150.874 106.8l-38.978-12.97-.7 36.959s13.162 14.537 26.187 14.812c13.024.275 13.024-16.654 13.024-16.654l.467-22.147z" fill="#EDA58B"/><path d="M154.719 114.842s-3.966 5.887-17.851 5.594c-13.884-.293-25.598-22.215-25.598-22.215l2.007 7.89s7.518 20.017 22.562 21.627c15.044 1.61 17.448-9.076 17.448-9.076l1.432-3.82z" fill="#D57C5C"/><path d="M146.556 318.125l2.438-.088-5.306-158.172-2.794-.667 3.169 159.016 2.493-.089z" fill="#BED4E1"/><path d="M163.143 284.93l-18.464-129.15-.042-1.582-5.917.154 8.061 131.005s7.454 12.428 9.371 12.378c1.917-.05 6.991-12.805 6.991-12.805z" fill="#0085FF"/><path d="M138.006 143.498l.431-.094 7.321.094 3.231 5.15-4.298 12.041-5.702-.412-7.191-12.481 6.208-4.298z" fill="#0085FF"/><path d="M140.21 159.19l3.037-.228 1.518-.114.506-.037.261 2.425s-.961.763-2.986.914c-2.025.152-3.383-.269-3.383-.269l-.195-2.599 1.242-.092zm-.294-11.394l.478-2.865v-1.433h-3.821l-2.865 7.163 4.776 8.596.955-8.596.477-2.865z" fill="#1677D1"/><path d="M154.166 158.554l-11.311-15.014 13.774-20.103 8.548 4.444 6.077 3.065-17.088 27.608zm-26.123 3.633l9.045-18.52-34.887-18.52-7.322 6.46-4.307 3.877 37.471 26.703z" fill="#B6CEDC"/><path d="M99.326 42.735c-.485-6.917 2.388-18.146 5.731-14.804l3.107 24.266c1.335 7.696 3.62 19.42 2.145 28.263-.989 5.93-5.921 9.606-10.983 6.208-4.373-2.937-5.253-9.073-5.253-9.073s4.098 2.69 6.208-2.866c1.874-4.934-.056-19.191-.955-31.994z" fill="#723E28"/><path d="M177.297 71.866l1.987-7.165 2.655-7.125c1.419-3.442.483-6.36-.759-13.633-1.179-6.901-10.092-12.233-12.927-11.5-13.741-1.533-41.762-4.668-43.921-4.943-11.264-1.962-17.602 3.667-19.363 6.727-.155 4.797-.04 14.88.555 17.148 1.623 6.179.43 7.937.513 7.29-1.509-5.195-7.914-6.045-8.546-1.09-.631 4.956 1.897 20.423 8.422 19.084-.926 7.263.13 12.608 4.749 24.051 11.108 16.042 17.693 21.721 33.074 23.682 15.381 1.961 26.808-27.333 28.652-31.04 1.474-2.964 3.342-10.027 3.342-10.027l1.176-5.864.391-5.595z" fill="#FFB499"/><ellipse cx="136.377" cy="66.19" rx="4.5" ry="5.5" transform="rotate(9.873 136.377 66.19)" fill="#2F1E14"/><ellipse cx="164.903" cy="72.677" rx="4.5" ry="5.5" transform="rotate(9.873 164.903 72.677)" fill="#2F1E14"/><ellipse rx="1.685" ry="1.962" transform="matrix(.97307 .2305 -.23569 .97183 135.102 64.295)" fill="#fff"/><ellipse rx="1.685" ry="1.962" transform="matrix(.97307 .2305 -.23569 .97183 164.102 70.295)" fill="#fff"/><path d="M110.787 13.128c-4.346 2.83-7.641 6.685-9.073 11.939-1.018 1.936-1.647 6.216-1.91 10.505-.22 3.59 1.198 7.044 1.91 10.505 1.656 8.049 7.163 17.669 9.073 21.49 2.388-1.911 4.298-5.094 5.253-9.551.701-3.273.477-6.686.477-10.029 0-3.342.955-5.252 1.91-7.163.956-1.91 2.865-4.56 5.253-5.515 2.388-.956 5.82-1.809 12.32-1.809-.478 8.118 5.586 10.925 9.267 12.357-4.293-8.025 1.103-10.376 4.337-10.548C152 35.309 159 37.968 167.5 43s10.5 4 13 6.5 1.233 8.608 0 12c-2 5.5-3.814 11.052-3.814 16.094l5.73-8.595c8.118-10.984 12.416-21.793 10.983-28.174-1.432-6.382-9.55-15.759-28.651-26.264-24.22-13.32-35.337-11.461-41.068 0-2.638-3.431-9.996-3.32-12.893-1.433z" fill="#723E28"/><path d="M103.967 71.523c2.031-1.127 1.666-9.942-.078-12.707-1.352-2.142-3.947-2.173-3.83 3.889.081 4.223 2.554 9.57 3.908 8.819z" fill="#B75532"/><path d="M146.381 107.256c8.465 1.079 14.453-5.424 15.256-10.241 0 0-4.818.204-13.65-1C139.155 94.81 129.33 91 129.33 91c1.605 6.022 8.586 15.176 17.051 16.256z" fill="#fff" stroke="#D2765C" stroke-width="2"/><path d="M139.051 56.06c-6.208-.955-9.073.956-12.112 1.548-2.07-.817 2.552-3.153 3.516-3.457 2.388-.956 4.776-1.84 9.551-1.433 4.775.406 6.208 1.91 7.163 2.387.621.311 2.989 3.078.955 4.298-2.388 1.433-2.865-2.387-9.073-3.342zM167.5 63.5c2.303 1.102 6.099 1.474 8.213 2.003 1.301 1.202-1.407 1.74-2.242 1.822-2.984.02-4.471 0-7.971-.825S161 65 160 64c-.167-.598-1.114-2.767.443-3.634 1.557-.866 4.179 1.757 7.057 3.134z" fill="#77432D"/><path d="M156.537 84.85c1.073 5.186-2.084 5.379-4.221 5.106l-6.835-.871c-4.7-.6-3.099-5.379-1.315-6.222 2.188-1.035 4.047-3.425 4.968-5.278.922-1.853 2.143-12.863 2.225-13.51 1.343-1.93 2.358-.575 2.698.344l.438 8.448c.419 3.526.699 5.49 2.042 11.983z" fill="#E98F6F"/><path d="M79.12 269.675c-3.014-34.887-3.014-42.639-5.598-51.684l-1.723-6.03v-7.752h3.445l1.293 3.015s4.896 18.95 6.46 28.857c1.564 9.906 4.738 24.55 9.476 39.624 4.737 15.075 17.63 34.887 24.522 42.209H79.121v-48.239zm99.494-47.681c8.156-.789 11.111-2.219 11.111-2.219l-.371-30.155-31.463 2.243 3.923 30.437s8.643.483 16.8-.306z" fill="#A8C1D0"/><path d="M433.475 299.168H112.697v246.113s178.343 8.327 252.612-64.043c74.27-72.37 68.166-182.07 68.166-182.07z" fill="#8FA1B0"/><path d="M431.078 297.489H112.813v72.235s62.439 0 152.215-17.549c89.775-17.549 166.05-52.05 166.05-52.05v-2.636z" fill="#748494"/><path d="M112.855 290.574h-13.53v207.618l13.53 46.68V290.574z" fill="#687A8B"/><path d="M413.062 281.501L55.87 285.798l17.369 20.534L510 298.692l-96.938-17.191z" fill="#DFBF6E"/><path d="M151.377 292.005c9.168.764 11.46-11.143 11.46-17.191l-7.163.477c-5.252 5.253-13.466 15.95-4.297 16.714z" fill="#677278"/><path d="M79.27 272.426c-10.166-6.238-54.438-99.326-17.668-118.905 21.01 11.939 22.443 41.546 26.741 55.871l14.326 42.978 37.247 13.848 22.922 8.596s-3.343.477-8.118 6.208c-4.776 5.73-3.455 11.112-3.455 11.112-32.838-8.247-50.983-6.814-71.995-19.708z" fill="#B6CEDC"/><path d="M60.647 217.033L73.54 250.46s5.73 13.371 11.46 18.624c5.73 5.252 21.011 13.37 21.011 13.37s-20.056-3.82-27.696-11.938c-7.64-8.118-13.523-22.61-18.624-35.814-4.46-11.546-6.82-21.221-9.073-28.175-4.776-20.056-1.433-35.814-1.433-35.814 1.433 7.162 7.164 32.949 11.462 46.32z" fill="#A8C1D0"/><path d="M164.19 290.572c-1.431 0-2.386-.341-2.863-.682-.477-.341-.878-1.714-.878-1.714v-2.379h195.787c0 .175-1.449 2.862-1.449 2.862s.772 1.06.038 1.446c-.735.387-1.833.322-3.36.322-8.55 0-185.844.145-187.275.145z" fill="#828D98"/><path d="M164.197 291.527c-1.434 0-2.39-.273-2.868-.546-.478-.272-.88-1.37-.88-1.37v-1.904h195.787c-.179.818-.752 2.182-.752 2.182s-.22.782-.956 1.091c-.736.31-2.115.431-3.645.431-8.568 0-185.252.116-186.686.116z" fill="#1C1E20"/><path d="M246.404 213.69c-.956 2.341-21.011 55.871-21.011 55.871l-7.163 18.146 137.719.684 25.118-68.971s1.074-2.865.477-5.253c-.597-2.387-3.47-2.768-5.911-2.768-2.442 0-119.679-2.005-123.021-2.005-3.343 0-5.253 1.955-6.208 4.296z" fill="#1C1E20"/><path d="M252.135 209.87c-3.438.382-4.934 3.024-5.253 4.297l-12.893 33.905-15.281 39.635h1.91l13.848-36.292 13.849-37.248c.382-1.528 2.706-3.501 3.82-4.297z" fill="#5A5F64"/><path d="M164.249 276.528l5.539-1.869h3.078c-1.231 1.454-4.346 5.715-8.617 9.343-3.799 3.227-6.665 2.75-9.052 2.75h-3.343s0-2.388 3.343-6.208c3.342-3.82 6.208-5.253 6.208-5.253l2.844 1.237zm17.634-3.632l-9.297 5.005c-1.105 2.783 4.255 1.964 7.074 1.207l3.968-1.526c.999.45 3.997 1.809 7.113 3.779 3.116 1.969 5.71-.993 4.378-2.129-1.637-1.398-6.642-4.78-9.04-5.86-2.397-1.08-3.796-.767-4.196-.476z" fill="#FCA282"/><path d="M187.669 278.156c-1.433-1.432-4.593-3.377-4.965-3.528-.706-.449.461.551-.288 1.141-.661.52 1.91.955 1.432 1.432 0 0 .478.955.955.955.478 0 1.107.315 2.388.955.955.478 3.154 2.04 3.154 2.04s-1.243-1.562-2.676-2.995z" fill="#C37F67"/><path d="M175.605 272.126l-9.111 3.798c-1.72 2.939 4.058 3.184 7.162 2.939l4.463-.869c.955.734 3.819 2.949 6.684 5.888 2.866 2.939 6.18.124 5.014-1.469-1.432-1.96-5.99-6.93-8.282-8.693-2.292-1.764-4.42-2.37-5.93-1.594z" fill="#FCA282"/><path d="M182.416 279.589c-.955-1.433-2.494-2.237-2.866-2.388-.706-.449-4.503-.153-5.252.436-.661.52 2.865 1.952 2.387 2.429 0 0 2.388-.955 2.866-.955.477 0 .672.272 1.432.955 1.401 1.26 3.343 3.343 3.343 3.343s-.956-2.388-1.91-3.82z" fill="#C37F67"/><path d="M172.09 276.67l-9.454 2.96c-1.513 2.368 3.571 2.565 6.303 2.368l4.767-.1c.84.592 2.521 1.776 5.042 4.144 2.522 2.368 5.438.1 4.413-1.184-1.261-1.579-5.272-5.584-7.289-7.004-2.017-1.421-3.361-1.382-3.782-1.184z" fill="#FCA282"/><path d="M172.971 278.961c-1.329-.846-4.73.652-4.881 1.105 0 0 3.448-.073 4.775.956 1.327 1.028 5.731 4.775 5.731 4.775l-2.866-4.298c-1.432-1.91-2.387-2.388-2.759-2.538z" fill="#C37F67"/><path d="M169.133 279.538l-12.504 3.394c-1.498 2.457 3.343 3.82 7.163 3.342 3.82-.477 5.731-1.91 5.731-1.91.832.615 3.98 2.547 7.102 5.004 2.068 1.629 3.746-.614 2.497-1.843-1.249-1.638-3.621-5.283-5.619-6.758-1.998-1.474-3.954-1.433-4.37-1.229z" fill="#FCA282"/><path d="M170 283.409c-1.528-.382-2.387 1.433-2.387 1.91 0 0 1.91-1.432 2.865-.477.955.955 5.73 3.82 5.73 3.82l-3.82-3.343c-.955-.955-2.006-1.91-2.388-1.91z" fill="#C37F67"/><path d="M178.118 286.752l-1.432.955.955.955c.382.382 1.91 0 1.432-.955l-.955-.955zm2.865-3.82l-2.387.955c.245.221.955.955 1.91 1.432.71.355 2.646.376 1.91-.955l-1.433-1.432zm6.78-2.866l-2.482 1.331c.245.222 1.23 1.057 1.708 1.535.561.561 2.645-.204 1.91-1.535l-1.136-1.331zm5.731-1.91l-2.483 1.331c.246.222 2.388 1.057 2.388 1.057s2.169-.102 1.433-1.433l-1.338-.955z" fill="#EB8561"/><path d="M166.18 284.364c-5.73.478-7.8-.796-10.983-1.432l-1.433-.478-.955 1.433-1.433 2.865h2.388c8.596.477 14.644-.478 15.759-2.865l-3.343.477z" fill="#C47F67"/></svg>