<svg width="442" height="629" fill="none" xmlns="http://www.w3.org/2000/svg"><ellipse cx="141" cy="608.5" rx="100" ry="6.5" fill="#DDD"/><path d="M100 592v-7h19v7h-19zm61.179-1.758l.472-6.584.047-.658 18.739.955-.519 7.242-18.739-.955z" fill="#E49072"/><path d="M156.496 599.167l2.978-9.846h9.026s8.339-.59 11.814-2.231C188 593.5 206.253 598.031 218 599.398v2.231l-2.5 2.461h-37l-4.661-2.461-.489 2.461H156v-2.461l.496-2.462z" fill="#15161A"/><path d="M178 590.775l4.404-1.685c3.524 3.369 13.866 6.895 18.596 7.737l-1.957 1.263c-6.656 0-16.802-5.21-21.043-7.315z" fill="#474747"/><path d="M89 604.958L98.306 591h21.714c0 .443 0 3.323 1.551 6.647 1.551 3.323 3.102 5.76 5.429 7.975v6.647c-1.551.665-5.739 2.127-16.286 2.659-10.547.531-19.388-1.994-21.714-3.324v-6.646z" fill="#15161A"/><path d="M111.267 597.647L96.254 597 91 605.417s2.252.648 9.007 1.295c6.756.648 11.26 0 11.26 0 3.002-3.885 1.501-7.122 0-9.065z" fill="#474747"/><path d="M96.5 460.5s-8.5-68.379-9-91.5c-.5-23.121-.45-40.057-.45-40.057L202.004 326l-.501 31.108L205 457.796 181.013 586l-21.491-1.261s3.998-51.911 3.998-73.35C163.52 489.949 170 466 170 466s-7.5-33-10-42-7.999-33.637-7.999-33.637-4.5-1.261-5 0-10.972 76.522-10.972 76.522L120.037 586H98.046C91.049 461.987 93.5 481 96.5 460.5z" fill="#2A3958"/><path d="M178.5 464L168 383.5l-2.5-3.5-13 5.5 19.5 81c-6 17.2-7.5 42.833-7.5 53.5l14-56zM87.422 344c0-7 .944-13 .944-13l34.056-1c-4.808 17.647-19.975 26.265-35 27v-13zm114.139-5.154L201.7 327l-21.278 1c1.5 9.5 7.692 20.353 21 21l.139-10.154z" fill="#212D46"/><path d="M85.421 316.969h117.624v10.134l-47.001 2.382-70.623 1.855v-14.371z" fill="#1C1E20"/><path d="M167.205 317.447c0-.69-.56-1.25-1.25-1.25h-21.683c-.691 0-1.25.56-1.25 1.25v10.355a1.25 1.25 0 001.295 1.249l21.683-.783a1.25 1.25 0 001.205-1.249v-9.572z" stroke="#C6C6C6" stroke-width="1.5"/><path d="M167.026 323.069a1 1 0 00-1.014-.986l-11.596.166a1 1 0 00-.986 1.014l.003.172a1 1 0 001.014.985l11.596-.165a1 1 0 00.985-1.014l-.002-.172z" fill="#C4C4C4"/><path d="M165.423 314a2 2 0 00-2 2v10.949a2 2 0 002 2h.532a2 2 0 002-2V316a2 2 0 00-2-2h-.532z" fill="#F3F3F3"/><path d="M187.997 258.203c-3.785-2.318 3.99-97.803 17.504-114.703 0 0 6.499 22.5 11.499 63 1.975 16 2.447 26.467 2.423 31.5l29.5 10.5 21.494 6.368 15.68 6.035L284.923 281c-47.256-1.99-77.763-11.058-96.926-22.797z" fill="#BED4E1"/><path d="M205.521 143.145l-22.473-11.766-10.451-5.599-11.397 14.417-29.513.09-13.021-16.008-45.833 22.205 7.854 33.672V220l5.42 54.542-1.184 44.396h65.737c28.285 0 53.033-1.438 53.033-1.438 0-10.87-1.781-34.88-1.193-52.5.587-17.62 4.5-29.5 6.5-54.5 0 0 .804-22.067 0-33s-3.479-34.355-3.479-34.355z" fill="#CADFEC"/><path d="M164.816 128.089l1-8.274-48.961 1.073 7.811 5.1 3.245 3.71 36.905-1.609z" fill="#728E9F"/><path d="M125.092 102.83h35.99v26.852s-3.856 12.211-17.995 12.211c-14.139 0-17.995-17.211-17.995-17.211V102.83z" fill="#EDA58B"/><path d="M124.966 107.449s4.817 7.296 17.995 7.296 17.995-5.97 17.995-5.97v.627s-3.856 12.211-17.995 12.211c-14.139 0-17.995-13.537-17.995-13.537v-.627z" fill="#D57C5C"/><path d="M97.788 53.284c4.113-2.057 6.855 2.57 7.712 5.141l1.928-8.997c1.071-3.214 3.471-11.44 4.499-18.638 1.028-7.198 6.427-6.856 8.998-5.784 13.068.214 39.718.642 41.774.642 10.797-.514 16.067 5.784 17.353 8.998-.429 4.713-1.741 14.565-2.571 16.71-2.261 5.843 3.214 3.856 3.214 3.213 5.141-5.141 9.64-3.213 6.426 7.712-2.57 8.74-6.641 10.926-8.355 10.926-2.056 13.882-9.854 26.35-13.496 30.849-9.769 13.368-19.081 14.139-21.851 14.139-20.445-.798-32.777-30.206-34.063-34.062-1.028-3.085-1.714-8.57-1.928-10.926-.643.428-2.699.643-5.784-1.928-6.17-6.17-5.142-14.567-3.856-17.995z" fill="#FFB499"/><ellipse cx="127.721" cy="63.091" rx="4.5" ry="5.5" fill="#2F1E14"/><ellipse cx="159.721" cy="63.091" rx="4.5" ry="5.5" fill="#2F1E14"/><ellipse rx="1.685" ry="1.962" transform="matrix(.99818 .06023 -.06556 .99785 127.699 60.628)" fill="#fff"/><ellipse rx="1.685" ry="1.962" transform="matrix(.99818 .06023 -.06556 .99785 159.699 60.628)" fill="#fff"/><path d="M102.598 27.555c-2.571 7.712 1.071 23.78 3.214 30.849 4.498-2.571 6.427-10.283 5.784-10.926-2.571-13.882 7.069-19.067 12.211-19.923-1.543 6.684 5.356 10.068 8.998 10.925-5.142-7.198-.429-10.283 2.57-10.925 22.494 0 31.492 1.285 32.135 1.928 12.853 2.57 10.497 19.79 7.712 28.359l7.712-4.499c14.782-15.424 12.64-33.286 9.64-37.357-6.212-3.856-24.036-12.34-45.63-15.424-21.595-3.085-26.993 7.284-26.993 12.854-.514-1.029-2.785-1.286-3.856-1.286-10.283-.514-13.283 10.069-13.497 15.425z" fill="#723E28"/><path d="M105.811 70.695c1.928-1.285-1.071-10.497-3.213-12.853-1.929-1.286-3.213 0-1.929 5.141.948 3.793 3.857 8.57 5.142 7.712zm75.171-2.107c-1.928-1.285 1.071-10.497 3.213-12.853 1.928-1.286 3.213 0 1.928 5.141-.947 3.793-3.856 8.57-5.141 7.712z" fill="#B75532"/><path d="M159.797 86.763l-30.206-.643c.643 3.642 4.627 11.054 15.424 11.568 10.797.514 14.354-7.07 14.782-10.925z" fill="#fff" stroke="#D2765C" stroke-width="2"/><path d="M158.176 49.128c3.027.593 8.994.89 11.599.963 1.92.9-.979 1.991-1.902 2.247-3.401.644-7.939.41-10.439.574-1.147.076-5.169-.358-7.061-.728-.548-.544-1.294-2.087.111-3.908 1.756-2.276 3.908.11 7.692.852zm-29.77 1.495c-3.007.686-8.963 1.165-11.564 1.318-1.891.959 1.04 1.96 1.97 2.188 3.419.539 7.948.166 10.452.254 1.148.04 5.155-.516 7.035-.945.531-.56 1.229-2.126-.23-3.902-1.825-2.22-3.903.23-7.663 1.087z" fill="#77432D"/><path d="M98.5 257c2.421 26-6.079 62-6.079 62H85s1.873-54.162 0-65.5c-3.358-20.329-4.5-41.5-4.5-41.5l5-14.5s10.578 33.5 13 59.5z" fill="#9BB2C0"/><path d="M138.943 75.045c-3.085 4.113 1.714 4.713 4.499 4.499h2.571c6.427 0 5.784-3.856 3.856-5.142-1.928-1.285-2.571-3.856-3.214-5.784-.642-1.928-1.285-12.854-1.285-13.496-1.028-2.057-2.142-.857-2.571 0l-.642 12.853c.214.643-.129 2.957-3.214 7.07z" fill="#E98F6F"/><path d="M154.633 318.701l2.624-.094-5.711-162.286-3.009-.719 3.412 163.195 2.684-.096z" fill="#BED4E1"/><path d="M162.185 295.481l-9.572-143.557-.045-1.704-6.37.166-1.627 145.554s8.025 13.38 10.088 13.326c2.063-.054 7.526-13.785 7.526-13.785z" fill="#4BC357"/><path d="M144.312 137.29l2 .21 7.594-.21 5.173 7.201-6.593 12.273h-5.999l-6.492-12.519 4.317-6.955z" fill="#4BC357"/><path d="M147.569 155.837h5.41v2.968s-1.082.742-3.246.742c-2.164 0-3.246-.742-3.246-.742v-2.968h1.082zm4.019-13.519l-1.392-2.709-.463-1.392 2.318-.463h.464l6.028 7.81-3.246 5.1-1.855-4.173-1.854-4.173z" fill="#3FA949"/><path d="M164.826 152.909l-14.177-16.22 15.278-16.875 6.81 4.101 7.626 4.357-15.537 24.637zm-27.038 3.856l9.738-19.939-30.559-15.938-9.883 5.955-5.637 3.173 36.341 26.749z" fill="#B6CEDC"/><path d="M185.482 220.879c8.305-.43 11.365-1.73 11.365-1.73l.965-30.149-32 .861 2.623 30.588s8.742.861 17.047.43z" fill="#A8C1D0"/><path d="M36.812 258c-3.27-3 19.5-97.5 36-111.5 15.818 9.518 14.03 40.486 12.536 66.359l-.037.641c-3.5 10-9.324 24.064-10.311 29l22.5 10 21.312 10 12 5-5 19.5c-46-11-72.439-13.809-89-29z" fill="#BED4E1"/><path d="M74 242.5l15.813 7.5s-19.109-4.2-20.479-8.246c-1.37-4.046 1.32-19.433 3.395-31.872 3.72-22.304 11.103-45.2 11.103-45.2.805 6.029 4.148 31.318.668 49.818l-10.5 28z" fill="#A8C1D0"/><path d="M199.246 392.026L145 391.987l.041-56.64c.002-3.59 3.993-6.778 8.38-5.179 10.366 5.591 13.956 5.195 15.552 5.196 12.366-1.586 15.962-10.359 15.967-17.14.004-5.424-3.715-10.24-5.576-11.97-4.783-3.992-7.176-4.393-11.165-4.395-3.988-.003-11.57 3.581-14.761 4.775-6.703 1.591-8.375-2.798-8.373-5.191l.04-55.443 56.241.04 8.775.007 4.786.003 1.197.001 1.994.001 2.393.002 2.792.002 5.585.004 4.786.004 57.437.041-.04 56.64c.395 5.185 5.979 5.588 7.575 5.19 9.177-4.78 13.565-5.175 16.756-5.173 17.548 3.204 17.138 18.36 13.943 23.543-3.194 5.183-8.78 7.972-13.567 8.367-4.787.395-11.167-2.401-15.154-4.399-7.019-2.238-9.575 3.318-9.976 6.375l-.04 55.443c-18.614-.146-55.886-.04-56.524-.04-5.105-.961-5.846-6.121-5.179-8.38 1.597-3.456 5.033-10.527 4.4-17.548-.633-7.02-6.905-12.236-9.564-13.169-2.791-.933-9.405-2.39-16.355 2.381-6.385 4.383-7.456 14.088-6.395 17.945.878 3.192 3.424 8.937 4.38 11.171 1.991 4.655-2.798 7.577-6.105 7.575z" fill="#6A70FF"/><path d="M285.121 263.708c-1.406-1.406-.586-2.93 0-3.516h9.378c1.501.308 1.363 4.102-.587 4.102l-8.791-.586zm-.948 10.971c-1.494-1.313-.773-2.887-.226-3.509l9.358-.603c1.695.933 1.695 3.433-.321 4.132l-8.811-.02zm1.033 5.283c-1.286-1.13-.665-2.484-.195-3.02l8.054-.519c1.435.577 1.435 3.077-.277 3.556l-7.582-.017zM282.94 268.9c-1.702-1.608-.709-3.35 0-4.019h11.348c1.712 1.119 1.634 4.049-.788 4.619l-10.56-.6z" fill="#FCA282"/><path d="M287.845 263.064l-.123-2.79-2.158.327c-.493.924-.345 2.347.437 2.304l1.844.159zm-.995 10.797l-.303-2.776-2.132.465c-.433.953-.193 2.364.584 2.27l1.851.041zm.169 5.578l-.187-1.724-1.324.289c-.269.592-.121 1.468.362 1.41l1.149.025zm-.783-10.832l-.149-3.376-2.611.395c-.597 1.118-.417 2.841.529 2.788l2.231.193z" fill="#EB8561"/><path d="M305 576.792L304.125 629h-53.59c-3.396 0-6.415-3.774-4.906-7.926 5.284-9.814 4.906-13.211 4.906-14.721-1.509-11.701-9.812-15.098-16.228-15.098-5.132 0-9.686 3.523-11.321 5.284-3.774 4.53-4.151 6.795-4.151 10.569 0 3.775 3.396 10.946 4.528 13.966 1.51 6.341-2.642 7.926-4.906 7.926H166V490.854h53.589c4.906-.377 5.284-5.662 4.906-7.171-4.528-8.682-4.906-12.834-4.906-15.853 3.019-16.608 17.36-16.23 22.266-13.211 4.906 3.02 7.548 8.304 7.925 12.833.378 4.53-2.264 10.569-4.151 14.343-2.113 6.644 3.145 9.059 6.038 9.437h52.458c-.126 17.614 0 52.884 0 53.488-.906 4.831-5.787 5.536-7.926 4.907-3.27-1.51-9.963-4.756-16.605-4.152-6.642.604-11.573 6.542-12.454 9.058-.88 2.642-2.254 8.902 2.265 15.476 4.151 6.039 14.21 6.17 17.858 5.163 3.019-.833 8.453-3.246 10.567-4.152 4.402-1.887 7.17 2.642 7.17 5.772z" fill="#58CD64"/><path d="M388.32 491H442v53.541c0 3.393-3.773 6.41-7.922 4.902-9.809-5.279-13.204-4.902-14.713-4.902-11.695 1.508-15.091 9.803-15.091 16.213 0 5.128 3.521 9.678 5.282 11.312 4.527 3.77 6.791 4.147 10.563 4.147 3.773 0 10.941-3.393 13.959-4.524 6.338-1.509 7.922 2.639 7.922 4.901V629H303.924c0-17.47-.109-51.506-.109-52.411 0-4.901-4.905-5.885-6.791-4.901-8.677 4.524-13.472 4.901-16.49 4.901-16.599-3.016-15.844-18.474-12.826-23.376 3.018-4.902 8.299-7.541 12.826-7.918 4.527-.377 9.809 2.262 13.582 4.148 6.639 2.111 9.32-2.389 9.698-5.28L303.547 491c17.605.126 53.612 0 54.215 0 4.829.905 5.911 6.158 5.282 8.294-1.509 3.268-5.131 9.577-4.527 16.213.604 6.637 6.162 12.317 8.677 13.197 2.641.88 8.142 2.253 14.713-2.262 6.036-4.148 6.665-12.945 5.659-16.59-.833-3.017-2.867-8.446-3.773-10.558-1.886-4.399 1.4-8.294 4.527-8.294z" fill="#9E62EA"/><path d="M304 404.161V353h53.541c3.393 0 6.41 3.762 4.902 7.9-5.279 9.78-4.902 13.166-4.902 14.671 1.508 11.661 9.803 15.047 16.213 15.047 5.128 0 9.678-3.511 11.312-5.266 3.77-4.515 4.147-6.772 4.147-10.534 0-3.761-3.393-10.909-4.524-13.918-1.509-6.32 2.639-7.9 4.901-7.9H442v138.682h-53.541c-4.902.376-5.279 4.643-4.902 6.148 4.525 8.652 4.902 15.161 4.902 18.17-3.016 16.552-17.557 15.509-22.459 12.5-4.902-3.009-7.328-9.98-7.705-14.495-.377-4.514 2.262-10.533 4.148-14.295 1.557-6.71-3.142-8.276-6.033-8.652H304c.126-17.555.377-53.568.377-54.17.905-4.815 5.404-4.765 7.541-4.138 3.268 1.505 11.462 4.364 18.098 3.762 6.636-.602 10.055-5.768 10.935-8.276.88-2.633 1.659-9.63-2.262-16.552-3.922-6.922-12.192-6.646-15.837-5.643-2.513 1.004-8.068 3.236-10.18 4.138-6.938 2.107-8.672-3.134-8.672-6.018z" fill="#FAD142"/><path d="M144.535 265.793l-12.613 3.966-1.722-.577-4.2 16.439 3.452.793h10.353L161.089 288c1.892-.634 1.314-2.379.788-3.172l-12.612-3.173c-.631-.634-.263-.793 0-.793l14.333.793c1.892-1.269 1.19-3.126.402-3.655l-13.947-1.5c-.631-.634-.263-.736 0-1l16.554-.983c2.523-1.269.893-3.965-.107-4.017l-16.447.052v-.793c3.941-.265 12.297-.952 14.189-1.587 1.892-.634.608-3.172 0-3.172h-11.824l-7.883.793z" fill="#FCA282"/><path d="M130.5 281.5l-2.5-1-1.5 5c.833.333 2.7.5 3.5.5h9.5c2 0 9 1 17.5 1.5-.8-.4-12.5-3-17.5-4l-9-2z" fill="#C37F67"/><path d="M162.479 267.926l-.339-2.358 1.86-.068c.56.696.661 1.913-.001 2l-1.52.426zm2.081 5.708v-2.168h1.875c.449.774.363 1.993-.306 1.979l-1.569.189zm-2.849 7.047l.221-2.257 1.836.383c.281.849 0 1.874-.671 1.874h-1.386zm-3.037 6.93l.487-2.215 1.777.598c.178.876-.222 1.861-.888 1.781l-1.376-.164z" fill="#EB8561"/></svg>