<svg width="702" height="674" fill="none" xmlns="http://www.w3.org/2000/svg"><circle cx="365.237" cy="352.234" r="320.68" stroke="#3F4245" stroke-opacity=".3"/><path d="M65.651 468.131c-24.606-63.712-29.168-135.741-8.363-206.317C78.092 191.238 120.995 133.2 176.227 93.023" stroke="#AA4EF2" stroke-width="2"/><path d="M378.662 32.362a273.987 273.987 0 00-28.551-.018" stroke="#F0F0F0" stroke-width="4"/><path d="M390.938 32.56c-9.517-.342-45.595-.708-55.095-.058M679.21 282.603c-2.551-9.175-13.111-43.675-16.602-52.535M537.542 623.517c7.764-5.514 36.629-27.16 43.777-33.452" stroke="#F0F0F0" stroke-width="9"/><circle cx="364.396" cy="32.316" r="14.233" stroke="#BBBCBD"/><path d="M68.864 230c-7 12-14.5 33.5-17 53" stroke="#F0F0F0" stroke-width="6"/><path d="M549.571 616.332a274.197 274.197 0 0020.602-19.765" stroke="#F0F0F0" stroke-width="4"/><path d="M148.699 588.379c7.306 6.108 35.576 28.526 43.478 33.841" stroke="#F0F0F0" stroke-width="8"/><circle cx="670.597" cy="256.89" r="14.233" stroke="#BBBCBD"/><circle cx="560.595" cy="606.733" r="14.233" stroke="#BBBCBD"/><circle cx="58.597" cy="256.733" r="7.998" fill="#AA4EF2"/><circle cx="58.597" cy="256.733" r="13.733" stroke="#AA4EF2" stroke-width="2"/><circle cx="169.597" cy="606.733" r="14.233" stroke="#BBBCBD"/></svg>