<svg width="442" height="629" viewBox="0 0 442 629" fill="none" xmlns="http://www.w3.org/2000/svg">
<ellipse cx="141" cy="608.5" rx="100" ry="6.5" fill="#DDDDDD"/>
<path d="M100 592V585.636V585H119V592H100Z" fill="#E49072"/>
<path d="M161.179 590.242L161.651 583.658L161.698 583L180.437 583.955L179.918 591.197L161.179 590.242Z" fill="#E49072"/>
<path d="M156.496 599.167L159.474 589.321H168.5C168.5 589.321 176.839 588.731 180.314 587.09C188 593.5 206.253 598.031 218 599.398V601.629L215.5 604.09H178.5L173.839 601.629L173.35 604.09H156V601.629L156.496 599.167Z" fill="#15161A"/>
<path d="M178 590.775L182.404 589.09C185.928 592.459 196.27 595.985 201 596.827L199.043 598.09C192.387 598.09 182.241 592.88 178 590.775Z" fill="#474747"/>
<path d="M89 604.958L98.3061 591H120.02C120.02 591.443 120.02 594.323 121.571 597.647C123.122 600.97 124.673 603.407 127 605.622V612.269C125.449 612.934 121.261 614.396 110.714 614.928C100.167 615.459 91.3265 612.934 89 611.604V604.958Z" fill="#15161A"/>
<path d="M111.267 597.647L96.2543 597L91 605.417C91 605.417 93.2518 606.065 100.007 606.712C106.763 607.36 111.267 606.712 111.267 606.712C114.269 602.827 112.768 599.59 111.267 597.647Z" fill="#474747"/>
<path d="M96.5 460.5C96.5 460.5 88.0002 392.121 87.5004 369C87.0006 345.879 87.0491 328.943 87.0491 328.943L202.005 326L201.504 357.108L205.001 457.796L181.013 586L159.522 584.739C159.522 584.739 163.52 532.828 163.52 511.389C163.52 489.949 170 466 170 466C170 466 162.5 433 160 424C157.5 415 152.001 390.363 152.001 390.363C152.001 390.363 147.501 389.102 147.001 390.363C146.501 391.624 136.029 466.885 136.029 466.885L120.037 586H98.0457C91.0489 461.987 93.5 481 96.5 460.5Z" fill="#2A3958"/>
<path d="M178.5 464L168 383.5L165.5 380L152.5 385.5L172 466.5C166 483.7 164.5 509.333 164.5 520L178.5 464Z" fill="#212D46"/>
<path d="M87.4219 344C87.4219 337 88.3663 331 88.3663 331L122.422 330C117.614 347.647 102.447 356.265 87.4219 357V344Z" fill="#212D46"/>
<path d="M201.561 338.846L201.7 327L180.422 328C181.922 337.5 188.114 348.353 201.422 349L201.561 338.846Z" fill="#212D46"/>
<path d="M85.4215 316.969H203.045V327.103L156.044 329.485L85.4215 331.34V316.969Z" fill="#1C1E20"/>
<path d="M167.205 317.447C167.205 316.757 166.645 316.197 165.955 316.197H144.272C143.581 316.197 143.022 316.757 143.022 317.447V327.802C143.022 328.51 143.609 329.077 144.317 329.051L166 328.268C166.673 328.244 167.205 327.692 167.205 327.019V317.447Z" stroke="#C6C6C6" stroke-width="1.5"/>
<path d="M167.026 323.069C167.018 322.517 166.564 322.075 166.012 322.083L154.416 322.249C153.864 322.257 153.422 322.711 153.43 323.263L153.433 323.435C153.441 323.987 153.895 324.428 154.447 324.42L166.043 324.255C166.595 324.247 167.036 323.793 167.028 323.241L167.026 323.069Z" fill="#C4C4C4"/>
<path d="M165.423 314C164.318 314 163.423 314.895 163.423 316L163.423 326.949C163.423 328.054 164.318 328.949 165.423 328.949L165.955 328.949C167.06 328.949 167.955 328.054 167.955 326.949L167.955 316C167.955 314.895 167.06 314 165.955 314L165.423 314Z" fill="#F3F3F3"/>
<path d="M187.997 258.203C184.212 255.885 191.987 160.4 205.501 143.5C205.501 143.5 212 166 217 206.5C218.975 222.5 219.447 232.967 219.423 238L248.923 248.5L270.417 254.868L286.097 260.903L284.923 281C237.667 279.01 207.16 269.942 187.997 258.203Z" fill="#BED4E1"/>
<path d="M205.521 143.145L183.048 131.379L172.597 125.78L161.2 140.197L131.687 140.287L118.666 124.279L72.8328 146.484L80.6867 180.156V220L86.1072 274.542L84.923 318.938H150.66C178.945 318.938 203.693 317.5 203.693 317.5C203.693 306.63 201.912 282.62 202.5 265C203.087 247.38 207 235.5 209 210.5C209 210.5 209.804 188.433 209 177.5C208.196 166.567 205.521 143.145 205.521 143.145Z" fill="#CADFEC"/>
<path d="M164.816 128.089L165.816 119.815L116.855 120.888L124.666 125.988L127.911 129.698L164.816 128.089Z" fill="#728E9F"/>
<path d="M125.092 102.83H161.082V129.682C161.082 129.682 157.226 141.893 143.087 141.893C128.948 141.893 125.092 124.682 125.092 124.682V102.83Z" fill="#EDA58B"/>
<path d="M124.966 107.449C124.966 107.449 129.783 114.745 142.961 114.745C156.139 114.745 160.956 108.775 160.956 108.775V109.402C160.956 109.402 157.1 121.613 142.961 121.613C128.822 121.613 124.966 108.076 124.966 108.076V107.449Z" fill="#D57C5C"/>
<path d="M97.7876 53.2838C101.901 51.2272 104.643 55.8546 105.5 58.4253L107.428 49.4278C108.499 46.2143 110.899 37.9878 111.927 30.7897C112.955 23.5916 118.354 23.9344 120.925 25.0055C133.993 25.2197 160.643 25.6481 162.699 25.6481C173.496 25.1339 178.766 31.4323 180.052 34.6457C179.623 39.3588 178.311 49.2111 177.481 51.3556C175.22 57.1991 180.695 55.2117 180.695 54.5691C185.836 49.4276 190.335 51.3557 187.121 62.2814C184.551 71.0219 180.48 73.2071 178.766 73.2071C176.71 87.0891 168.912 99.5573 165.27 104.056C155.501 117.424 146.189 118.195 143.419 118.195C122.974 117.397 110.642 87.9889 109.356 84.1328C108.328 81.0479 107.642 75.5636 107.428 73.2071C106.785 73.6355 104.729 73.8498 101.644 71.279C95.4739 65.1092 96.5022 56.7115 97.7876 53.2838Z" fill="#FFB499"/>
<ellipse cx="127.721" cy="63.0906" rx="4.5" ry="5.5" fill="#2F1E14"/>
<ellipse cx="159.721" cy="63.0906" rx="4.5" ry="5.5" fill="#2F1E14"/>
<ellipse rx="1.68468" ry="1.962" transform="matrix(0.998184 0.0602308 -0.0655622 0.997848 127.699 60.628)" fill="white"/>
<ellipse rx="1.68468" ry="1.962" transform="matrix(0.998184 0.0602308 -0.0655622 0.997848 159.699 60.628)" fill="white"/>
<path d="M102.598 27.5546C100.027 35.2669 103.669 51.3341 105.812 58.4036C110.31 55.8329 112.239 48.1206 111.596 47.4779C109.025 33.5959 118.665 28.4115 123.807 27.5546C122.264 34.2386 129.163 37.6234 132.805 38.4803C127.663 31.2822 132.376 28.1973 135.375 27.5546C157.869 27.5546 166.867 28.84 167.51 29.4827C180.363 32.0534 178.007 49.2727 175.222 57.8419L182.934 53.3431C197.716 37.9186 195.574 20.0566 192.574 15.9862C186.362 12.1301 168.538 3.64675 146.944 0.561853C125.349 -2.52305 119.951 7.84565 119.951 13.4156C119.437 12.3873 117.166 12.1302 116.095 12.1301C105.812 11.616 102.812 22.1989 102.598 27.5546Z" fill="#723E28"/>
<path d="M105.811 70.6954C107.739 69.4103 104.74 60.1983 102.598 57.8418C100.669 56.5564 99.3847 57.8417 100.669 62.9834C101.617 66.7761 104.526 71.5523 105.811 70.6954Z" fill="#B75532"/>
<path d="M180.982 68.5884C179.054 67.3032 182.053 58.0913 184.195 55.7347C186.123 54.4494 187.408 55.7346 186.123 60.8763C185.176 64.669 182.267 69.4452 180.982 68.5884Z" fill="#B75532"/>
<path d="M159.797 86.7627L129.591 86.12C130.234 89.7619 134.218 97.1742 145.015 97.6884C155.812 98.2025 159.369 90.6188 159.797 86.7627Z" fill="white" stroke="#D2765C" stroke-width="2"/>
<path d="M158.176 49.1282C161.203 49.7214 167.17 50.0174 169.775 50.0913C171.695 50.9913 168.796 52.0824 167.873 52.3381C164.472 52.9816 159.934 52.7472 157.434 52.9124C156.287 52.9882 152.265 52.5545 150.373 52.1838C149.825 51.6397 149.079 50.0965 150.484 48.276C152.24 46.0004 154.392 48.3868 158.176 49.1282Z" fill="#77432D"/>
<path d="M128.406 50.6233C125.399 51.309 119.443 51.7877 116.842 51.9413C114.951 52.8997 117.882 53.9015 118.812 54.1288C122.231 54.6678 126.76 54.2945 129.264 54.383C130.412 54.4236 134.419 53.8669 136.299 53.4383C136.83 52.8777 137.528 51.3124 136.069 49.5358C134.244 47.3151 132.166 49.7663 128.406 50.6233Z" fill="#77432D"/>
<path d="M98.4998 257C100.921 283 92.4215 319 92.4215 319L84.9999 319C84.9999 319 86.8733 264.838 85 253.5C81.6421 233.171 80.5 212 80.5 212L85.5 197.5C85.5 197.5 96.0782 231 98.4998 257Z" fill="#9BB2C0"/>
<path d="M138.943 75.0448C135.858 79.158 140.657 79.7579 143.442 79.5437H146.013C152.44 79.5437 151.797 75.6877 149.869 74.4023C147.941 73.1169 147.298 70.5462 146.655 68.6181C146.013 66.69 145.37 55.7643 145.37 55.1215C144.342 53.0649 143.228 54.2646 142.799 55.1215L142.157 67.9753C142.371 68.618 142.028 70.9316 138.943 75.0448Z" fill="#E98F6F"/>
<path d="M154.633 318.701L157.257 318.607L151.546 156.321L148.537 155.602L151.949 318.797L154.633 318.701Z" fill="#BED4E1"/>
<path d="M162.185 295.481L152.613 151.924L152.568 150.22L146.198 150.386L144.571 295.94C144.571 295.94 152.596 309.32 154.659 309.266C156.722 309.212 162.185 295.481 162.185 295.481Z" fill="#4BC357"/>
<path d="M144.312 137.29L146.312 137.5L153.906 137.29L159.079 144.491L152.486 156.764H146.487L139.995 144.245L144.312 137.29Z" fill="#4BC357"/>
<path d="M147.569 155.837H150.815H152.438H152.979V158.805C152.979 158.805 151.897 159.547 149.733 159.547C147.569 159.547 146.487 158.805 146.487 158.805V155.837H147.569Z" fill="#3FA949"/>
<path d="M151.588 142.318L150.196 139.609L149.733 138.217L152.051 137.754L152.515 137.754L158.543 145.564L155.297 150.664L153.442 146.491L151.588 142.318Z" fill="#3FA949"/>
<path d="M164.826 152.909L150.649 136.689L165.927 119.814L172.737 123.915L180.363 128.272L164.826 152.909Z" fill="#B6CEDC"/>
<path d="M137.788 156.765L147.526 136.826L116.967 120.888L107.084 126.843L101.447 130.016L137.788 156.765Z" fill="#B6CEDC"/>
<path d="M185.482 220.879C193.787 220.449 196.847 219.149 196.847 219.149L197.812 189L165.812 189.861L168.435 220.449C168.435 220.449 177.177 221.31 185.482 220.879Z" fill="#A8C1D0"/>
<path d="M36.812 258C33.5413 255 56.312 160.5 72.8114 146.5C88.6302 156.018 86.8422 186.986 85.3484 212.859L85.3114 213.5C81.8114 223.5 75.9872 237.564 75 242.5L97.5 252.5L118.812 262.5L130.812 267.5L125.812 287C79.8114 276 53.3734 273.191 36.812 258Z" fill="#BED4E1"/>
<path d="M74 242.5L89.8125 250C89.8125 250 70.7042 245.8 69.3342 241.754C67.9641 237.708 70.6541 222.321 72.7288 209.882C76.4494 187.578 83.8323 164.682 83.8323 164.682C84.6373 170.711 87.9802 196 84.5 214.5L74 242.5Z" fill="#A8C1D0"/>
<path d="M199.246 392.026L145 391.987L145.041 335.347C145.043 331.757 149.034 328.569 153.421 330.168C163.787 335.759 167.377 335.363 168.973 335.364C181.339 333.778 184.935 325.005 184.94 318.224C184.944 312.8 181.225 307.984 179.364 306.254C174.581 302.262 172.188 301.861 168.199 301.859C164.211 301.856 156.629 305.44 153.438 306.634C146.735 308.225 145.063 303.836 145.065 301.443L145.105 246L201.346 246.04L210.121 246.047L214.907 246.05L216.104 246.051L218.098 246.052L220.491 246.054L223.283 246.056L228.868 246.06L233.654 246.064L291.091 246.105L291.051 302.745C291.446 307.93 297.03 308.333 298.626 307.935C307.803 303.155 312.191 302.76 315.382 302.762C332.93 305.966 332.52 321.122 329.325 326.305C326.131 331.488 320.545 334.277 315.758 334.672C310.971 335.067 304.591 332.271 300.604 330.273C293.585 328.035 291.029 333.591 290.628 336.648L290.588 392.091C271.974 391.945 234.702 392.051 234.064 392.051C228.959 391.09 228.218 385.93 228.885 383.671C230.482 380.215 233.918 373.144 233.285 366.123C232.652 359.103 226.38 353.887 223.721 352.954C220.93 352.021 214.316 350.564 207.366 355.335C200.981 359.718 199.91 369.423 200.971 373.28C201.849 376.472 204.395 382.217 205.351 384.451C207.342 389.106 202.553 392.028 199.246 392.026Z" fill="#6A70FF"/>
<path d="M285.121 263.708C283.715 262.302 284.535 260.778 285.121 260.192H294.499C296 260.5 295.862 264.294 293.912 264.294L285.121 263.708Z" fill="#FCA282"/>
<path d="M284.173 274.679C282.679 273.366 283.4 271.792 283.947 271.17L293.305 270.567C295 271.5 295 274 292.984 274.699L284.173 274.679Z" fill="#FCA282"/>
<path d="M285.206 279.962C283.92 278.832 284.541 277.478 285.011 276.942L293.065 276.423C294.5 277 294.5 279.5 292.788 279.979L285.206 279.962Z" fill="#FCA282"/>
<path d="M282.94 268.9C281.238 267.292 282.231 265.55 282.94 264.881H294.288C296 266 295.922 268.93 293.5 269.5L282.94 268.9Z" fill="#FCA282"/>
<path d="M287.845 263.064L287.722 260.274L285.564 260.601C285.071 261.525 285.219 262.948 286.001 262.905L287.845 263.064Z" fill="#EB8561"/>
<path d="M286.85 273.861L286.547 271.085L284.415 271.55C283.982 272.503 284.222 273.914 284.999 273.82L286.85 273.861Z" fill="#EB8561"/>
<path d="M287.019 279.439L286.832 277.715L285.508 278.004C285.239 278.596 285.387 279.472 285.87 279.414L287.019 279.439Z" fill="#EB8561"/>
<path d="M286.236 268.607L286.087 265.231L283.476 265.626C282.879 266.744 283.059 268.467 284.005 268.414L286.236 268.607Z" fill="#EB8561"/>
<path d="M305 576.792L304.125 629L250.535 629C247.139 629 244.12 625.226 245.629 621.074C250.913 611.26 250.535 607.863 250.535 606.353C249.026 594.652 240.723 591.255 234.307 591.255C229.175 591.255 224.621 594.778 222.986 596.539C219.212 601.069 218.835 603.334 218.835 607.108C218.835 610.883 222.231 618.054 223.363 621.074C224.873 627.415 220.721 629 218.457 629L166 629L166 575.78L166 567.476L166 562.947L166 561.814L166 559.927L166 557.662L166 555.02L166 549.736L166 545.207L166 490.854L219.589 490.854C224.495 490.477 224.873 485.192 224.495 483.683C219.967 475.001 219.589 470.849 219.589 467.83C222.608 451.222 236.949 451.6 241.855 454.619C246.761 457.639 249.403 462.923 249.78 467.452C250.158 471.982 247.516 478.021 245.629 481.795C243.516 488.439 248.774 490.854 251.667 491.232L304.125 491.232C303.999 508.846 304.125 544.116 304.125 544.72C303.219 549.551 298.338 550.256 296.199 549.627C292.929 548.117 286.236 544.871 279.594 545.475C272.952 546.079 268.021 552.017 267.14 554.533C266.26 557.175 264.886 563.435 269.405 570.009C273.556 576.048 283.615 576.179 287.263 575.172C290.282 574.339 295.716 571.926 297.83 571.02C302.232 569.133 305 573.662 305 576.792Z" fill="#58CD64"/>
<path d="M388.32 491L442 491L442 544.541C442 547.934 438.227 550.951 434.078 549.443C424.269 544.164 420.874 544.541 419.365 544.541C407.67 546.049 404.274 554.344 404.274 560.754C404.274 565.882 407.795 570.432 409.556 572.066C414.083 575.836 416.347 576.213 420.119 576.213C423.892 576.213 431.06 572.82 434.078 571.689C440.416 570.18 442 574.328 442 576.59L442 629L388.807 629L380.507 629L375.98 629L374.848 629L372.962 629L370.699 629L368.058 629L362.776 629L358.249 629L303.924 629C303.924 611.53 303.815 577.494 303.815 576.589C303.815 571.688 298.91 570.704 297.024 571.688C288.347 576.212 283.552 576.589 280.534 576.589C263.935 573.573 264.69 558.115 267.708 553.213C270.726 548.311 276.007 545.672 280.534 545.295C285.061 544.918 290.343 547.557 294.116 549.443C300.755 551.554 303.436 547.054 303.814 544.163L303.547 491C321.152 491.126 357.159 491 357.762 491C362.591 491.905 363.673 497.158 363.044 499.294C361.535 502.562 357.913 508.871 358.517 515.507C359.121 522.144 364.679 527.824 367.194 528.704C369.835 529.584 375.336 530.957 381.907 526.442C387.943 522.294 388.572 513.497 387.566 509.852C386.733 506.835 384.699 501.406 383.793 499.294C381.907 494.895 385.193 491 388.32 491Z" fill="#9E62EA"/>
<path d="M304 404.161V353H357.541C360.934 353 363.951 356.762 362.443 360.9C357.164 370.68 357.541 374.066 357.541 375.571C359.049 387.232 367.344 390.618 373.754 390.618C378.882 390.618 383.432 387.107 385.066 385.352C388.836 380.837 389.213 378.58 389.213 374.818C389.213 371.057 385.82 363.909 384.689 360.9C383.18 354.58 387.328 353 389.59 353H442V406.041V414.317V418.832V419.96V421.841V424.098V426.731V431.998V436.512V491.682H388.459C383.557 492.058 383.18 496.325 383.557 497.83C388.082 506.482 388.459 512.991 388.459 516C385.443 532.552 370.902 531.509 366 528.5C361.098 525.491 358.672 518.52 358.295 514.005C357.918 509.491 360.557 503.472 362.443 499.71C364 493 359.301 491.434 356.41 491.058H304C304.126 473.503 304.377 437.49 304.377 436.888C305.282 432.073 309.781 432.123 311.918 432.75C315.186 434.255 323.38 437.114 330.016 436.512C336.652 435.91 340.071 430.744 340.951 428.236C341.831 425.603 342.61 418.606 338.689 411.684C334.767 404.762 326.497 405.038 322.852 406.041C320.339 407.045 314.784 409.277 312.672 410.179C305.734 412.286 304 407.045 304 404.161Z" fill="#FAD142"/>
<path d="M144.535 265.793L131.922 269.759L130.2 269.182L126 285.621L129.452 286.414H139.805L161.089 288C162.981 287.366 162.403 285.621 161.877 284.828L149.265 281.655C148.634 281.021 149.002 280.862 149.265 280.862L163.598 281.655C165.49 280.386 164.788 278.529 164 278L150.053 276.5C149.422 275.866 149.79 275.764 150.053 275.5L166.607 274.517C169.13 273.248 167.5 270.552 166.5 270.5L150.053 270.552V269.759C153.994 269.494 162.35 268.807 164.242 268.172C166.134 267.538 164.85 265 164.242 265H152.418L144.535 265.793Z" fill="#FCA282"/>
<path d="M130.5 281.5L128 280.5L126.5 285.5C127.333 285.833 129.2 286 130 286H139.5C141.5 286 148.5 287 157 287.5C156.2 287.1 144.5 284.5 139.5 283.5L130.5 281.5Z" fill="#C37F67"/>
<path d="M162.479 267.926L162.14 265.568L164 265.5C164.56 266.196 164.661 267.413 163.999 267.5L162.479 267.926Z" fill="#EB8561"/>
<path d="M164.56 273.634L164.56 271.466L166.435 271.466C166.884 272.24 166.798 273.459 166.129 273.445L164.56 273.634Z" fill="#EB8561"/>
<path d="M161.711 280.681L161.932 278.424L163.768 278.807C164.049 279.656 163.768 280.681 163.097 280.681L161.711 280.681Z" fill="#EB8561"/>
<path d="M158.674 287.611L159.161 285.396L160.938 285.994C161.116 286.87 160.716 287.855 160.05 287.775L158.674 287.611Z" fill="#EB8561"/>
</svg>
