<svg width="702" height="674" viewBox="0 0 702 674" fill="none" xmlns="http://www.w3.org/2000/svg">
<circle cx="365.237" cy="352.234" r="320.68" stroke="#3F4245" stroke-opacity="0.3"/>
<path d="M65.6513 468.131C41.0446 404.419 36.4832 332.39 57.2877 261.814C78.0923 191.238 120.995 133.2 176.227 93.0227" stroke="#AA4EF2" stroke-width="2"/>
<path d="M378.662 32.3619C369.152 31.8598 359.621 31.8538 350.111 32.3441" stroke="#F0F0F0" stroke-width="4"/>
<path d="M390.938 32.5602C381.421 32.2176 345.343 31.8524 335.843 32.502" stroke="#F0F0F0" stroke-width="9"/>
<path d="M679.21 282.603C676.659 273.428 666.099 238.928 662.608 230.068" stroke="#F0F0F0" stroke-width="9"/>
<path d="M537.542 623.517C545.306 618.003 574.171 596.357 581.319 590.065" stroke="#F0F0F0" stroke-width="9"/>
<circle cx="364.396" cy="32.3165" r="14.233" stroke="#BBBCBD"/>
<path d="M68.8638 230C61.8638 242 54.3638 263.5 51.8637 283" stroke="#F0F0F0" stroke-width="6"/>
<path d="M549.571 616.332C556.777 610.106 563.654 603.508 570.173 596.567" stroke="#F0F0F0" stroke-width="4"/>
<path d="M148.699 588.379C156.005 594.487 184.275 616.905 192.177 622.22" stroke="#F0F0F0" stroke-width="8"/>
<circle cx="670.597" cy="256.89" r="14.233" stroke="#BBBCBD"/>
<circle cx="560.595" cy="606.733" r="14.233" stroke="#BBBCBD"/>
<circle cx="58.5966" cy="256.733" r="7.99793" fill="#AA4EF2"/>
<circle cx="58.5968" cy="256.733" r="13.733" stroke="#AA4EF2" stroke-width="2"/>
<circle cx="169.597" cy="606.733" r="14.233" stroke="#BBBCBD"/>
</svg>
